<svg width="264" height="43" viewBox="0 0 264 43" fill="none" xmlns="http://www.w3.org/2000/svg">
<g filter="url(#filter0_d_18805_45486)">
<mask id="path-1-inside-1_18805_45486" fill="white">
<path fill-rule="evenodd" clip-rule="evenodd" d="M2 40.415L8.85535 21.2074L2.0001 2L262 2.00001L253.431 21.2077L262 40.415L2 40.415Z"/>
</mask>
<path fill-rule="evenodd" clip-rule="evenodd" d="M2 40.415L8.85535 21.2074L2.0001 2L262 2.00001L253.431 21.2077L262 40.415L2 40.415Z" fill="#F7F4D9"/>
<path d="M8.85535 21.2074L10.739 21.8796L10.9789 21.2074L10.739 20.5351L8.85535 21.2074ZM2 40.415L0.116376 39.7427L-0.83738 42.415H2L2 40.415ZM2.0001 2L2.0001 0H-0.837278L0.116478 2.67228L2.0001 2ZM262 2.00001L263.826 2.81487L265.082 1.0848e-05L262 1.07288e-05V2.00001ZM253.431 21.2077L251.604 20.3929L251.241 21.2077L251.604 22.0226L253.431 21.2077ZM262 40.415V42.415H265.082L263.826 39.6002L262 40.415ZM6.97172 20.5351L0.116376 39.7427L3.88362 41.0873L10.739 21.8796L6.97172 20.5351ZM0.116478 2.67228L6.97172 21.8796L10.739 20.5351L3.88373 1.32772L0.116478 2.67228ZM2.0001 4L262 4.00001V1.07288e-05L2.0001 0L2.0001 4ZM260.174 1.18516L251.604 20.3929L255.257 22.0226L263.826 2.81487L260.174 1.18516ZM251.604 22.0226L260.173 41.2299L263.826 39.6002L255.257 20.3929L251.604 22.0226ZM262 38.415L2 38.415L2 42.415L262 42.415V38.415Z" fill="url(#paint0_linear_18805_45486)" mask="url(#path-1-inside-1_18805_45486)"/>
<mask id="path-3-inside-2_18805_45486" fill="white">
<path fill-rule="evenodd" clip-rule="evenodd" d="M4.56107 35.2928L9.20652 21.2074L4.56104 7.12183L259.056 7.12183L252.751 21.2072L259.056 35.2928L4.56107 35.2928Z"/>
</mask>
<path d="M9.20652 21.2074L9.68136 21.364L9.73301 21.2074L9.68136 21.0508L9.20652 21.2074ZM4.56107 35.2928L4.08623 35.1362L3.86968 35.7928H4.56107L4.56107 35.2928ZM4.56104 7.12183L4.56104 6.62183H3.86964L4.08619 7.27843L4.56104 7.12183ZM259.056 7.12183L259.512 7.3261L259.827 6.62183L259.056 6.62183V7.12183ZM252.751 21.2072L252.295 21.0029L252.204 21.2072L252.295 21.4114L252.751 21.2072ZM259.056 35.2928V35.7928H259.828L259.512 35.0886L259.056 35.2928ZM8.73167 21.0508L4.08623 35.1362L5.03592 35.4494L9.68136 21.364L8.73167 21.0508ZM4.08619 7.27843L8.73167 21.364L9.68136 21.0508L5.03588 6.96522L4.08619 7.27843ZM4.56104 7.62183L259.056 7.62183V6.62183L4.56104 6.62183L4.56104 7.62183ZM258.599 6.91757L252.295 21.0029L253.208 21.4114L259.512 7.3261L258.599 6.91757ZM252.295 21.4114L258.6 35.4971L259.512 35.0886L253.208 21.0029L252.295 21.4114ZM259.056 34.7928L4.56107 34.7928L4.56107 35.7928L259.056 35.7928V34.7928Z" fill="url(#paint1_linear_18805_45486)" mask="url(#path-3-inside-2_18805_45486)"/>
</g>
<defs>
<filter id="filter0_d_18805_45486" x="0" y="0" width="264" height="42.415" filterUnits="userSpaceOnUse" color-interpolation-filters="sRGB">
<feFlood flood-opacity="0" result="BackgroundImageFix"/>
<feColorMatrix in="SourceAlpha" type="matrix" values="0 0 0 0 0 0 0 0 0 0 0 0 0 0 0 0 0 0 127 0" result="hardAlpha"/>
<feOffset/>
<feGaussianBlur stdDeviation="1"/>
<feComposite in2="hardAlpha" operator="out"/>
<feColorMatrix type="matrix" values="0 0 0 0 0 0 0 0 0 0 0 0 0 0 0 0 0 0 0.4 0"/>
<feBlend mode="normal" in2="BackgroundImageFix" result="effect1_dropShadow_18805_45486"/>
<feBlend mode="normal" in="SourceGraphic" in2="effect1_dropShadow_18805_45486" result="shape"/>
</filter>
<linearGradient id="paint0_linear_18805_45486" x1="295.598" y1="21.2075" x2="34.3761" y2="21.2075" gradientUnits="userSpaceOnUse">
<stop stop-color="#B18037"/>
<stop offset="0.255208" stop-color="#DFAE64"/>
<stop offset="0.744792" stop-color="#DFAD61"/>
<stop offset="1" stop-color="#B18037"/>
</linearGradient>
<linearGradient id="paint1_linear_18805_45486" x1="294.285" y1="21.2073" x2="36.7082" y2="21.2073" gradientUnits="userSpaceOnUse">
<stop stop-color="#B18037"/>
<stop offset="0.4375" stop-color="#C59C5F"/>
<stop offset="0.604167" stop-color="#CD9F5A"/>
<stop offset="1" stop-color="#B18037"/>
</linearGradient>
</defs>
</svg>
