<svg width="60" height="60" viewBox="0 0 60 60" fill="none" xmlns="http://www.w3.org/2000/svg">
<circle cx="29.5031" cy="29.7575" r="22.5185" transform="rotate(-20 29.5031 29.7575)" fill="#D14527" stroke="url(#paint0_linear_19192_60562)"/>
<path d="M21.8314 31.6518L20.2962 32.2106L18.6866 31.4202L19.9205 34.8102L18.7531 35.2351L17.6065 32.0849L15.5997 35.4774L15.0526 33.9742L17.0594 30.5817L16.8965 30.134L14.082 31.1584L13.663 30.007L16.4774 28.9826L16.0816 27.8953L17.249 27.4704L17.6447 28.5578L20.4432 27.5392L20.8622 28.6906L18.0638 29.7091L18.1045 29.8211L21.8314 31.6518ZM26.0972 22.276L26.5279 23.4593L24.7369 24.1112L27.6121 32.0107L26.4448 32.4356L23.5696 24.536L21.3308 25.3509L23.5309 31.3955L23.2204 33.4281L21.8771 33.917L22.2283 31.5979L18.7187 21.9554L24.1114 17.9643L24.5596 19.1956L20.2483 22.3765L20.9001 24.1675L26.0972 22.276ZM14.6739 26.814L12.9374 24.7296L14.1367 24.2931L15.8733 26.3775L14.6739 26.814ZM17.8971 21.4395L18.3045 22.5588L12.1 24.8171L11.6926 23.6977L14.2191 22.7781L13.7477 21.4829L14.915 21.058L15.3865 22.3533L17.8971 21.4395ZM19.6574 25.1813L20.0648 26.3006L13.1727 28.8092L12.7653 27.6898L16.5071 26.3278L16.5194 23.4259L17.7507 22.9777L17.7385 25.8797L19.6574 25.1813ZM34.2115 29.4276L32.0464 23.479L39.3063 20.8366L41.4714 26.7852L34.2115 29.4276ZM34.9598 27.8514L39.885 26.0588L39.3379 24.5556L34.4127 26.3482L34.9598 27.8514ZM38.558 22.4128L33.6328 24.2055L34.0053 25.2289L38.9305 23.4362L38.558 22.4128ZM41.7363 17.7609L42.1553 18.9123L40.1405 19.6456L43.0722 21.9288L41.649 22.4468L38.7173 20.1636L32.0011 22.6081L31.2228 26.2416L29.7996 26.7596L30.5779 23.1261L28.8029 23.7722L28.3838 22.6208L30.8944 21.707L31.1702 20.3752L29.5711 20.9572L29.1404 19.7739L31.4911 18.9183L31.7728 17.6025L27.887 19.0168L27.4679 17.8654L32.0893 16.1834L32.3985 14.6945L33.8217 14.1765L33.4965 15.6712L39.2053 13.5934L39.6244 14.7447L33.196 17.0845L32.8983 18.4061L39.1508 16.1304L39.5815 17.3137L37.6626 18.0122L38.746 18.8493L41.7363 17.7609ZM32.5934 19.8572L32.3176 21.189L37.4347 19.3266L36.3513 18.4894L32.5934 19.8572Z" fill="white"/>
<path d="M21.8314 31.6518L21.8948 31.8261L22.3037 31.6773L21.9131 31.4854L21.8314 31.6518ZM20.2962 32.2106L20.2145 32.377L20.2854 32.4119L20.3597 32.3848L20.2962 32.2106ZM18.6866 31.4202L18.7683 31.2537L18.3547 31.0506L18.5123 31.4836L18.6866 31.4202ZM19.9205 34.8102L19.9839 34.9845L20.1581 34.9211L20.0947 34.7468L19.9205 34.8102ZM18.7531 35.2351L18.5789 35.2985L18.6423 35.4728L18.8165 35.4094L18.7531 35.2351ZM17.6065 32.0849L17.7808 32.0215L17.6466 31.6529L17.4469 31.9905L17.6065 32.0849ZM15.5997 35.4774L15.4255 35.5408L15.5596 35.9094L15.7593 35.5718L15.5997 35.4774ZM15.0526 33.9742L14.893 33.8798L14.8484 33.9553L14.8784 34.0377L15.0526 33.9742ZM17.0594 30.5817L17.219 30.6762L17.2637 30.6007L17.2337 30.5183L17.0594 30.5817ZM16.8965 30.134L17.0707 30.0706L17.0073 29.8963L16.833 29.9597L16.8965 30.134ZM14.082 31.1584L13.9078 31.2218L13.9712 31.396L14.1455 31.3326L14.082 31.1584ZM13.663 30.007L13.5996 29.8327L13.4253 29.8962L13.4887 30.0704L13.663 30.007ZM16.4774 28.9826L16.5408 29.1569L16.7151 29.0935L16.6517 28.9192L16.4774 28.9826ZM16.0816 27.8953L16.0182 27.721L15.8439 27.7844L15.9074 27.9587L16.0816 27.8953ZM17.249 27.4704L17.4232 27.407L17.3598 27.2327L17.1855 27.2961L17.249 27.4704ZM17.6447 28.5578L17.4705 28.6212L17.5339 28.7954L17.7082 28.732L17.6447 28.5578ZM20.4432 27.5392L20.6174 27.4758L20.554 27.3015L20.3797 27.365L20.4432 27.5392ZM20.8622 28.6906L20.9256 28.8648L21.0999 28.8014L21.0365 28.6271L20.8622 28.6906ZM18.0638 29.7091L18.0004 29.5349L17.8261 29.5983L17.8895 29.7725L18.0638 29.7091ZM18.1045 29.8211L17.9303 29.8845L17.9558 29.9546L18.0228 29.9875L18.1045 29.8211ZM26.0972 22.276L26.2715 22.2125L26.2081 22.0383L26.0338 22.1017L26.0972 22.276ZM26.5279 23.4593L26.5913 23.6335L26.7656 23.5701L26.7022 23.3959L26.5279 23.4593ZM24.7369 24.1112L24.6735 23.9369L24.4992 24.0003L24.5627 24.1746L24.7369 24.1112ZM27.6121 32.0107L27.6756 32.185L27.8498 32.1215L27.7864 31.9473L27.6121 32.0107ZM26.4448 32.4356L26.2705 32.499L26.334 32.6733L26.5082 32.6098L26.4448 32.4356ZM23.5696 24.536L23.7438 24.4726L23.6804 24.2983L23.5062 24.3618L23.5696 24.536ZM21.3308 25.3509L21.2674 25.1766L21.0932 25.24L21.1566 25.4143L21.3308 25.3509ZM23.5309 31.3955L23.7142 31.4235L23.7214 31.3766L23.7052 31.332L23.5309 31.3955ZM23.2204 33.4281L23.2838 33.6023L23.3871 33.5647L23.4037 33.4561L23.2204 33.4281ZM21.8771 33.917L21.6938 33.8892L21.647 34.1981L21.9405 34.0912L21.8771 33.917ZM22.2283 31.5979L22.4116 31.6257L22.4187 31.5789L22.4025 31.5345L22.2283 31.5979ZM18.7187 21.9554L18.6084 21.8063L18.4971 21.8887L18.5444 22.0188L18.7187 21.9554ZM24.1114 17.9643L24.2857 17.9009L24.2007 17.6675L24.0011 17.8153L24.1114 17.9643ZM24.5596 19.1956L24.6697 19.3448L24.7812 19.2625L24.7338 19.1322L24.5596 19.1956ZM20.2483 22.3765L20.1382 22.2273L20.0266 22.3097L20.074 22.44L20.2483 22.3765ZM20.9001 24.1675L20.7259 24.231L20.7893 24.4052L20.9636 24.3418L20.9001 24.1675ZM14.6739 26.814L14.5315 26.9327L14.6149 27.0328L14.7374 26.9882L14.6739 26.814ZM12.9374 24.7296L12.874 24.5554L12.626 24.6456L12.7949 24.8483L12.9374 24.7296ZM14.1367 24.2931L14.2792 24.1744L14.1958 24.0743L14.0733 24.1188L14.1367 24.2931ZM15.8733 26.3775L15.9367 26.5517L16.1846 26.4615L16.0157 26.2588L15.8733 26.3775ZM17.8971 21.4395L18.0713 21.3761L18.0079 21.2018L17.8336 21.2652L17.8971 21.4395ZM18.3045 22.5588L18.3679 22.7331L18.5422 22.6697L18.4787 22.4954L18.3045 22.5588ZM12.1 24.8171L11.9257 24.8805L11.9892 25.0548L12.1634 24.9914L12.1 24.8171ZM11.6926 23.6977L11.6291 23.5235L11.4549 23.5869L11.5183 23.7612L11.6926 23.6977ZM14.2191 22.7781L14.2826 22.9524L14.4568 22.889L14.3934 22.7147L14.2191 22.7781ZM13.7477 21.4829L13.6843 21.3086L13.51 21.372L13.5734 21.5463L13.7477 21.4829ZM14.915 21.058L15.0893 20.9946L15.0259 20.8203L14.8516 20.8837L14.915 21.058ZM15.3865 22.3533L15.2122 22.4167L15.2757 22.5909L15.4499 22.5275L15.3865 22.3533ZM19.6574 25.1813L19.8316 25.1178L19.7682 24.9436L19.594 25.007L19.6574 25.1813ZM20.0648 26.3006L20.1282 26.4749L20.3025 26.4115L20.2391 26.2372L20.0648 26.3006ZM13.1727 28.8092L12.9984 28.8726L13.0618 29.0468L13.2361 28.9834L13.1727 28.8092ZM12.7653 27.6898L12.7018 27.5155L12.5276 27.5789L12.591 27.7532L12.7653 27.6898ZM16.5071 26.3278L16.5706 26.5021L16.692 26.4579L16.6926 26.3286L16.5071 26.3278ZM16.5194 23.4259L16.456 23.2516L16.3345 23.2958L16.3339 23.4251L16.5194 23.4259ZM17.7507 22.9777L17.9361 22.9785L17.9372 22.7125L17.6873 22.8035L17.7507 22.9777ZM17.7385 25.8797L17.553 25.8789L17.5519 26.1449L17.8019 26.0539L17.7385 25.8797ZM21.768 31.4776L20.2328 32.0363L20.3597 32.3848L21.8948 31.8261L21.768 31.4776ZM20.378 32.0441L18.7683 31.2537L18.6048 31.5866L20.2145 32.377L20.378 32.0441ZM18.5123 31.4836L19.7462 34.8737L20.0947 34.7468L18.8608 31.3567L18.5123 31.4836ZM19.857 34.636L18.6897 35.0609L18.8165 35.4094L19.9839 34.9845L19.857 34.636ZM18.9274 35.1717L17.7808 32.0215L17.4323 32.1483L18.5789 35.2985L18.9274 35.1717ZM17.4469 31.9905L15.4401 35.383L15.7593 35.5718L17.7661 32.1793L17.4469 31.9905ZM15.774 35.414L15.2269 33.9108L14.8784 34.0377L15.4255 35.5408L15.774 35.414ZM15.2122 34.0687L17.219 30.6762L16.8998 30.4873L14.893 33.8798L15.2122 34.0687ZM17.2337 30.5183L17.0707 30.0706L16.7222 30.1974L16.8852 30.6452L17.2337 30.5183ZM16.833 29.9597L14.0186 30.9841L14.1455 31.3326L16.9599 30.3083L16.833 29.9597ZM14.2563 31.0949L13.8372 29.9436L13.4887 30.0704L13.9078 31.2218L14.2563 31.0949ZM13.7264 30.1813L16.5408 29.1569L16.414 28.8084L13.5996 29.8327L13.7264 30.1813ZM16.6517 28.9192L16.2559 27.8318L15.9074 27.9587L16.3031 29.0461L16.6517 28.9192ZM16.145 28.0695L17.3124 27.6446L17.1855 27.2961L16.0182 27.721L16.145 28.0695ZM17.0747 27.5338L17.4705 28.6212L17.819 28.4943L17.4232 27.407L17.0747 27.5338ZM17.7082 28.732L20.5066 27.7135L20.3797 27.365L17.5813 28.3835L17.7082 28.732ZM20.2689 27.6026L20.688 28.754L21.0365 28.6271L20.6174 27.4758L20.2689 27.6026ZM20.7988 28.5163L18.0004 29.5349L18.1272 29.8834L20.9256 28.8648L20.7988 28.5163ZM17.8895 29.7725L17.9303 29.8845L18.2788 29.7576L18.2381 29.6457L17.8895 29.7725ZM18.0228 29.9875L21.7496 31.8183L21.9131 31.4854L18.1863 29.6546L18.0228 29.9875ZM25.923 22.3394L26.3537 23.5227L26.7022 23.3959L26.2715 22.2125L25.923 22.3394ZM26.4645 23.285L24.6735 23.9369L24.8004 24.2854L26.5913 23.6335L26.4645 23.285ZM24.5627 24.1746L27.4379 32.0741L27.7864 31.9473L24.9112 24.0477L24.5627 24.1746ZM27.5487 31.8364L26.3814 32.2613L26.5082 32.6098L27.6756 32.185L27.5487 31.8364ZM26.619 32.3722L23.7438 24.4726L23.3953 24.5995L26.2705 32.499L26.619 32.3722ZM23.5062 24.3618L21.2674 25.1766L21.3943 25.5251L23.633 24.7103L23.5062 24.3618ZM21.1566 25.4143L23.3566 31.4589L23.7052 31.332L21.5051 25.2874L21.1566 25.4143ZM23.3476 31.3675L23.0371 33.4001L23.4037 33.4561L23.7142 31.4235L23.3476 31.3675ZM23.1569 33.2538L21.8137 33.7427L21.9405 34.0912L23.2838 33.6023L23.1569 33.2538ZM22.0605 33.9447L22.4116 31.6257L22.0449 31.5702L21.6938 33.8892L22.0605 33.9447ZM22.4025 31.5345L18.8929 21.8919L18.5444 22.0188L22.054 31.6614L22.4025 31.5345ZM18.829 22.1044L24.2217 18.1134L24.0011 17.8153L18.6084 21.8063L18.829 22.1044ZM23.9371 18.0277L24.3853 19.2591L24.7338 19.1322L24.2857 17.9009L23.9371 18.0277ZM24.4495 19.0464L20.1382 22.2273L20.3584 22.5258L24.6697 19.3448L24.4495 19.0464ZM20.074 22.44L20.7259 24.231L21.0744 24.1041L20.4225 22.3131L20.074 22.44ZM20.9636 24.3418L26.1606 22.4502L26.0338 22.1017L20.8367 23.9933L20.9636 24.3418ZM14.8164 26.6953L13.0799 24.6109L12.7949 24.8483L14.5315 26.9327L14.8164 26.6953ZM13.0008 24.9039L14.2001 24.4674L14.0733 24.1188L12.874 24.5554L13.0008 24.9039ZM13.9942 24.4118L15.7308 26.4962L16.0157 26.2588L14.2792 24.1744L13.9942 24.4118ZM15.8098 26.2032L14.6105 26.6397L14.7374 26.9882L15.9367 26.5517L15.8098 26.2032ZM17.7228 21.5029L18.1302 22.6223L18.4787 22.4954L18.0713 21.3761L17.7228 21.5029ZM18.2411 22.3846L12.0366 24.6428L12.1634 24.9914L18.3679 22.7331L18.2411 22.3846ZM12.2742 24.7537L11.8668 23.6343L11.5183 23.7612L11.9257 24.8805L12.2742 24.7537ZM11.756 23.872L14.2826 22.9524L14.1557 22.6039L11.6291 23.5235L11.756 23.872ZM14.3934 22.7147L13.922 21.4194L13.5734 21.5463L14.0449 22.8416L14.3934 22.7147ZM13.8111 21.6571L14.9785 21.2322L14.8516 20.8837L13.6843 21.3086L13.8111 21.6571ZM14.7408 21.1214L15.2122 22.4167L15.5607 22.2898L15.0893 20.9946L14.7408 21.1214ZM15.4499 22.5275L17.9605 21.6137L17.8336 21.2652L15.3231 22.179L15.4499 22.5275ZM19.4831 25.2447L19.8905 26.364L20.2391 26.2372L19.8316 25.1178L19.4831 25.2447ZM20.0014 26.1264L13.1092 28.6349L13.2361 28.9834L20.1282 26.4749L20.0014 26.1264ZM13.3469 28.7457L12.9395 27.6264L12.591 27.7532L12.9984 28.8726L13.3469 28.7457ZM12.8287 27.864L16.5706 26.5021L16.4437 26.1536L12.7018 27.5155L12.8287 27.864ZM16.6926 26.3286L16.7048 23.4267L16.3339 23.4251L16.3217 26.3271L16.6926 26.3286ZM16.5828 23.6001L17.8141 23.152L17.6873 22.8035L16.456 23.2516L16.5828 23.6001ZM17.5652 22.9769L17.553 25.8789L17.9239 25.8805L17.9361 22.9785L17.5652 22.9769ZM17.8019 26.0539L19.7208 25.3555L19.594 25.007L17.675 25.7054L17.8019 26.0539ZM34.2115 29.4276L34.0373 29.4911L34.1007 29.6653L34.2749 29.6019L34.2115 29.4276ZM32.0464 23.479L31.983 23.3047L31.8087 23.3681L31.8721 23.5424L32.0464 23.479ZM39.3063 20.8366L39.4806 20.7732L39.4171 20.5989L39.2429 20.6623L39.3063 20.8366ZM41.4714 26.7852L41.5349 26.9595L41.7091 26.8961L41.6457 26.7218L41.4714 26.7852ZM34.9598 27.8514L34.7855 27.9148L34.849 28.0891L35.0232 28.0257L34.9598 27.8514ZM39.885 26.0588L39.9484 26.233L40.1227 26.1696L40.0593 25.9953L39.885 26.0588ZM39.3379 24.5556L39.5122 24.4922L39.4488 24.3179L39.2745 24.3814L39.3379 24.5556ZM34.4127 26.3483L34.3493 26.174L34.175 26.2374L34.2384 26.4117L34.4127 26.3483ZM38.558 22.4128L38.7323 22.3494L38.6688 22.1751L38.4946 22.2386L38.558 22.4128ZM33.6328 24.2055L33.5694 24.0312L33.3951 24.0946L33.4585 24.2689L33.6328 24.2055ZM34.0053 25.2289L33.831 25.2923L33.8944 25.4666L34.0687 25.4031L34.0053 25.2289ZM38.9305 23.4362L38.9939 23.6105L39.1682 23.5471L39.1048 23.3728L38.9305 23.4362ZM41.7363 17.7609L41.9105 17.6975L41.8471 17.5232L41.6729 17.5867L41.7363 17.7609ZM42.1553 18.9123L42.2188 19.0865L42.393 19.0231L42.3296 18.8488L42.1553 18.9123ZM40.1405 19.6456L40.077 19.4714L39.7621 19.586L40.0265 19.7919L40.1405 19.6456ZM43.0722 21.9288L43.1356 22.1031L43.4505 21.9884L43.1861 21.7825L43.0722 21.9288ZM41.649 22.4468L41.535 22.5931L41.616 22.6562L41.7124 22.6211L41.649 22.4468ZM38.7173 20.1636L38.8312 20.0173L38.7503 19.9543L38.6538 19.9894L38.7173 20.1636ZM32.0011 22.6081L31.9376 22.4339L31.8412 22.469L31.8197 22.5693L32.0011 22.6081ZM31.2228 26.2416L31.2863 26.4159L31.3827 26.3808L31.4042 26.2804L31.2228 26.2416ZM29.7996 26.7596L29.6183 26.7208L29.5481 27.0485L29.8631 26.9339L29.7996 26.7596ZM30.5779 23.1261L30.7592 23.165L30.8294 22.8372L30.5144 22.9519L30.5779 23.1261ZM28.8029 23.7722L28.6286 23.8356L28.692 24.0099L28.8663 23.9464L28.8029 23.7722ZM28.3838 22.6208L28.3204 22.4466L28.1461 22.51L28.2095 22.6842L28.3838 22.6208ZM30.8944 21.707L30.9578 21.8813L31.055 21.8459L31.076 21.7446L30.8944 21.707ZM31.1702 20.3752L31.3518 20.4128L31.4192 20.0872L31.1068 20.2009L31.1702 20.3752ZM29.5711 20.9572L29.3969 21.0206L29.4603 21.1949L29.6346 21.1315L29.5711 20.9572ZM29.1404 19.7739L29.077 19.5996L28.9027 19.6631L28.9662 19.8373L29.1404 19.7739ZM31.4911 18.9183L31.5545 19.0926L31.651 19.0575L31.6724 18.9571L31.4911 18.9183ZM31.7728 17.6025L31.9541 17.6413L32.0242 17.3136L31.7093 17.4282L31.7728 17.6025ZM27.887 19.0168L27.7127 19.0802L27.7761 19.2545L27.9504 19.191L27.887 19.0168ZM27.4679 17.8654L27.4045 17.6912L27.2302 17.7546L27.2936 17.9289L27.4679 17.8654ZM32.0893 16.1834L32.1527 16.3576L32.2498 16.3223L32.2709 16.2211L32.0893 16.1834ZM32.3985 14.6945L32.3351 14.5203L32.238 14.5556L32.217 14.6568L32.3985 14.6945ZM33.8217 14.1765L34.0029 14.2159L34.0745 13.8872L33.7583 14.0023L33.8217 14.1765ZM33.4965 15.6712L33.3153 15.6318L33.2438 15.9605L33.5599 15.8455L33.4965 15.6712ZM39.2053 13.5934L39.3796 13.5299L39.3161 13.3557L39.1419 13.4191L39.2053 13.5934ZM39.6244 14.7447L39.6878 14.919L39.862 14.8556L39.7986 14.6813L39.6244 14.7447ZM33.196 17.0845L33.1325 16.9102L33.0373 16.9449L33.0151 17.0437L33.196 17.0845ZM32.8983 18.4061L32.7174 18.3654L32.6428 18.6965L32.9617 18.5804L32.8983 18.4061ZM39.1508 16.1304L39.3251 16.067L39.2616 15.8927L39.0874 15.9562L39.1508 16.1304ZM39.5815 17.3137L39.6449 17.488L39.8192 17.4246L39.7557 17.2503L39.5815 17.3137ZM37.6626 18.0122L37.5991 17.8379L37.2828 17.9531L37.5492 18.1589L37.6626 18.0122ZM38.746 18.8493L38.6326 18.996L38.7134 19.0585L38.8094 19.0236L38.746 18.8493ZM32.5934 19.8572L32.53 19.6829L32.4328 19.7183L32.4118 19.8196L32.5934 19.8572ZM32.3176 21.189L32.136 21.1514L32.0686 21.477L32.381 21.3633L32.3176 21.189ZM37.4347 19.3266L37.4981 19.5008L37.8145 19.3857L37.5481 19.1798L37.4347 19.3266ZM36.3513 18.4894L36.4647 18.3427L36.3839 18.2802L36.2879 18.3152L36.3513 18.4894ZM34.3858 29.3642L32.2206 23.4156L31.8721 23.5424L34.0373 29.4911L34.3858 29.3642ZM32.1098 23.6532L39.3697 21.0108L39.2429 20.6623L31.983 23.3047L32.1098 23.6532ZM39.132 20.9L41.2972 26.8487L41.6457 26.7218L39.4806 20.7732L39.132 20.9ZM41.408 26.611L34.1481 29.2534L34.2749 29.6019L41.5349 26.9595L41.408 26.611ZM35.0232 28.0257L39.9484 26.233L39.8216 25.8845L34.8964 27.6771L35.0232 28.0257ZM40.0593 25.9953L39.5122 24.4922L39.1637 24.619L39.7108 26.1222L40.0593 25.9953ZM39.2745 24.3814L34.3493 26.174L34.4761 26.5225L39.4013 24.7299L39.2745 24.3814ZM34.2384 26.4117L34.7855 27.9148L35.1341 27.788L34.587 26.2848L34.2384 26.4117ZM38.4946 22.2386L33.5694 24.0312L33.6962 24.3797L38.6214 22.5871L38.4946 22.2386ZM33.4585 24.2689L33.831 25.2923L34.1795 25.1655L33.807 24.142L33.4585 24.2689ZM34.0687 25.4031L38.9939 23.6105L38.8671 23.262L33.9419 25.0546L34.0687 25.4031ZM39.1048 23.3728L38.7323 22.3494L38.3838 22.4762L38.7562 23.4997L39.1048 23.3728ZM41.562 17.8243L41.9811 18.9757L42.3296 18.8488L41.9105 17.6975L41.562 17.8243ZM42.0919 18.738L40.077 19.4714L40.2039 19.8199L42.2188 19.0865L42.0919 18.738ZM40.0265 19.7919L42.9582 22.0751L43.1861 21.7825L40.2544 19.4993L40.0265 19.7919ZM43.0087 21.7545L41.5856 22.2725L41.7124 22.6211L43.1356 22.1031L43.0087 21.7545ZM41.7629 22.3005L38.8312 20.0173L38.6033 20.3099L41.535 22.5931L41.7629 22.3005ZM38.6538 19.9894L31.9376 22.4339L32.0645 22.7824L38.7807 20.3379L38.6538 19.9894ZM31.8197 22.5693L31.0415 26.2028L31.4042 26.2804L32.1824 22.647L31.8197 22.5693ZM31.1594 26.0673L29.7362 26.5853L29.8631 26.9339L31.2863 26.4159L31.1594 26.0673ZM29.981 26.7984L30.7592 23.165L30.3965 23.0873L29.6183 26.7208L29.981 26.7984ZM30.5144 22.9519L28.7394 23.5979L28.8663 23.9464L30.6413 23.3004L30.5144 22.9519ZM28.9771 23.7087L28.5581 22.5574L28.2095 22.6842L28.6286 23.8356L28.9771 23.7087ZM28.4472 22.7951L30.9578 21.8813L30.831 21.5328L28.3204 22.4466L28.4472 22.7951ZM31.076 21.7446L31.3518 20.4128L30.9886 20.3376L30.7128 21.6694L31.076 21.7446ZM31.1068 20.2009L29.5077 20.783L29.6346 21.1315L31.2337 20.5495L31.1068 20.2009ZM29.7454 20.8938L29.3147 19.7105L28.9662 19.8373L29.3969 21.0206L29.7454 20.8938ZM29.2039 19.9481L31.5545 19.0926L31.4277 18.7441L29.077 19.5996L29.2039 19.9481ZM31.6724 18.9571L31.9541 17.6413L31.5914 17.5637L31.3098 18.8795L31.6724 18.9571ZM31.7093 17.4282L27.8235 18.8425L27.9504 19.191L31.8362 17.7767L31.7093 17.4282ZM28.0612 18.9534L27.6422 17.802L27.2936 17.9289L27.7127 19.0802L28.0612 18.9534ZM27.5313 18.0397L32.1527 16.3576L32.0259 16.0091L27.4045 17.6912L27.5313 18.0397ZM32.2709 16.2211L32.5801 14.7322L32.217 14.6568L31.9077 16.1457L32.2709 16.2211ZM32.462 14.8688L33.8852 14.3508L33.7583 14.0023L32.3351 14.5203L32.462 14.8688ZM33.6405 14.1371L33.3153 15.6318L33.6777 15.7106L34.0029 14.2159L33.6405 14.1371ZM33.5599 15.8455L39.2687 13.7676L39.1419 13.4191L33.4331 15.4969L33.5599 15.8455ZM39.031 13.6568L39.4501 14.8081L39.7986 14.6813L39.3796 13.5299L39.031 13.6568ZM39.5609 14.5705L33.1325 16.9102L33.2594 17.2587L39.6878 14.919L39.5609 14.5705ZM33.0151 17.0437L32.7174 18.3654L33.0792 18.4469L33.3769 17.1252L33.0151 17.0437ZM32.9617 18.5804L39.2142 16.3047L39.0874 15.9562L32.8349 18.2319L32.9617 18.5804ZM38.9765 16.1938L39.4072 17.3772L39.7557 17.2503L39.3251 16.067L38.9765 16.1938ZM39.5181 17.1395L37.5991 17.8379L37.726 18.1864L39.6449 17.488L39.5181 17.1395ZM37.5492 18.1589L38.6326 18.996L38.8593 18.7026L37.776 17.8654L37.5492 18.1589ZM38.8094 19.0236L41.7997 17.9352L41.6729 17.5867L38.6825 18.675L38.8094 19.0236ZM32.4118 19.8196L32.136 21.1514L32.4992 21.2266L32.775 19.8948L32.4118 19.8196ZM32.381 21.3633L37.4981 19.5008L37.3713 19.1523L32.2542 21.0148L32.381 21.3633ZM37.5481 19.1798L36.4647 18.3427L36.2379 18.6362L37.3213 19.4733L37.5481 19.1798ZM36.2879 18.3152L32.53 19.6829L32.6569 20.0315L36.4147 18.6637L36.2879 18.3152Z" fill="white"/>
<path d="M24.2134 43.3424C24.8902 45.2019 23.5185 46.4348 22.2108 46.9107C20.9032 47.3867 19.4469 47.0065 19.0007 46.639L19.5153 45.8132C19.8851 46.0454 20.844 46.4029 21.8877 46.023C22.9194 45.6475 23.7078 44.7899 23.3104 43.6982C22.4633 41.3708 18.0587 44.2375 17.2102 40.9732C16.7647 39.1518 18.1267 38.1534 19.1824 37.7691C20.2381 37.3849 21.4074 37.4619 22.1176 37.8828L21.6401 38.7359C21.3074 38.5309 20.45 38.3403 19.5143 38.6809C18.5785 39.0214 17.9515 39.7252 18.1514 40.6849C18.6255 43.1073 23.0476 40.1392 24.2134 43.3424ZM33.5675 42.6821L31.8262 40.884L27.0515 42.6219L26.8613 45.123L25.9136 45.4679L26.6653 35.1406L27.3132 34.9049L34.5273 42.3328L33.5675 42.6821ZM27.1166 41.6064L31.1116 40.1524L27.5045 36.4384L27.1166 41.6064ZM36.1656 40.7176L41.1802 38.8924L41.5077 39.7921L35.5813 41.9492L32.3501 33.0715L33.2619 32.7397L36.1656 40.7176ZM43.6208 38.0177L48.1916 36.354L48.5147 37.2418L43.0442 39.2329L39.813 30.3553L45.1635 28.4078L45.4867 29.2956L41.0359 30.9156L42.193 34.0947L46.3679 32.5752L46.691 33.463L42.5161 34.9825L43.6208 38.0177Z" fill="white"/>
<path d="M19.0007 46.639L18.8231 46.5283L18.7261 46.684L18.8677 46.8006L19.0007 46.639ZM19.5153 45.8132L19.6266 45.6359L19.4487 45.5242L19.3376 45.7025L19.5153 45.8132ZM17.2102 40.9732L17.0069 41.0229L17.0077 41.0258L17.2102 40.9732ZM22.1176 37.8828L22.3002 37.985L22.4 37.8068L22.2243 37.7027L22.1176 37.8828ZM21.6401 38.7359L21.5304 38.9141L21.7162 39.0285L21.8228 38.8381L21.6401 38.7359ZM18.1514 40.6849L18.3568 40.6447L18.3563 40.6423L18.1514 40.6849ZM24.0168 43.4139C24.331 44.2772 24.1689 44.9789 23.7851 45.525C23.3945 46.0807 22.7652 46.4862 22.1392 46.7141L22.2824 47.1074C22.964 46.8593 23.6744 46.4104 24.1275 45.7657C24.5873 45.1115 24.7727 44.267 24.4101 43.2708L24.0168 43.4139ZM22.1392 46.7141C21.5245 46.9378 20.8693 46.9618 20.3117 46.8839C19.7458 46.8048 19.3141 46.626 19.1337 46.4774L18.8677 46.8006C19.1335 47.0195 19.6531 47.2145 20.2538 47.2984C20.8627 47.3835 21.5895 47.3596 22.2824 47.1074L22.1392 46.7141ZM19.1783 46.7497L19.6929 45.9239L19.3376 45.7025L18.8231 46.5283L19.1783 46.7497ZM19.404 45.9904C19.8109 46.2459 20.8377 46.6279 21.9593 46.2197L21.8161 45.8263C20.8502 46.1779 19.9593 45.8448 19.6266 45.6359L19.404 45.9904ZM21.9593 46.2197C22.5036 46.0215 22.9993 45.6912 23.3068 45.2486C23.6198 44.7982 23.7303 44.24 23.5071 43.6266L23.1137 43.7698C23.2878 44.2481 23.2029 44.6646 22.9631 45.0098C22.7178 45.3627 22.3035 45.6489 21.8161 45.8263L21.9593 46.2197ZM23.5071 43.6266C23.3879 43.2993 23.2024 43.0552 22.9646 42.8787C22.7292 42.7041 22.4526 42.6031 22.1604 42.5444C21.5867 42.4292 20.8972 42.4692 20.258 42.4778C19.5997 42.4866 18.9835 42.4637 18.4825 42.2555C18.0004 42.0552 17.6092 41.6762 17.4128 40.9205L17.0077 41.0258C17.2355 41.9023 17.7131 42.3891 18.3219 42.6421C18.9118 42.8872 19.6088 42.9051 20.2636 42.8963C20.9376 42.8872 21.561 42.851 22.078 42.9548C22.3311 43.0056 22.5443 43.0881 22.7152 43.2149C22.8836 43.3399 23.0211 43.5153 23.1137 43.7698L23.5071 43.6266ZM17.4135 40.9234C17.2068 40.0785 17.4188 39.4394 17.7973 38.9623C18.1825 38.4767 18.7492 38.1495 19.254 37.9658L19.1108 37.5724C18.5599 37.7729 17.9177 38.137 17.4694 38.7021C17.0144 39.2756 16.7681 40.0465 17.0069 41.0229L17.4135 40.9234ZM19.254 37.9658C20.2649 37.5978 21.3664 37.6809 22.0109 38.0628L22.2243 37.7027C21.4484 37.243 20.2113 37.1719 19.1108 37.5724L19.254 37.9658ZM21.935 37.7805L21.4575 38.6336L21.8228 38.8381L22.3002 37.985L21.935 37.7805ZM21.7499 38.5577C21.3577 38.3161 20.4328 38.1238 19.4427 38.4842L19.5858 38.8775C20.4673 38.5567 21.2571 38.7457 21.5304 38.9141L21.7499 38.5577ZM19.4427 38.4842C18.9478 38.6643 18.518 38.9462 18.2383 39.3268C17.9548 39.7126 17.8344 40.189 17.9465 40.7276L18.3563 40.6423C18.2686 40.2211 18.3617 39.8657 18.5756 39.5746C18.7934 39.2783 19.145 39.038 19.5858 38.8775L19.4427 38.4842ZM17.946 40.7251C18.0123 41.0639 18.1516 41.3246 18.3576 41.5164C18.5616 41.7063 18.8157 41.8144 19.0887 41.8758C19.6214 41.9958 20.2925 41.9489 20.9292 41.9301C21.5859 41.9106 22.226 41.9183 22.7704 42.1135C23.2992 42.303 23.7471 42.673 24.0168 43.4139L24.4101 43.2708C24.0969 42.4102 23.5548 41.95 22.9117 41.7194C22.2843 41.4945 21.5707 41.4923 20.9168 41.5117C20.243 41.5316 19.6469 41.5724 19.1806 41.4675C18.9542 41.4165 18.776 41.334 18.6428 41.2101C18.5117 41.088 18.4091 40.9116 18.3568 40.6447L17.946 40.7251ZM33.5675 42.6821L33.4172 42.8277L33.5116 42.9252L33.6391 42.8788L33.5675 42.6821ZM31.8262 40.884L31.9765 40.7384L31.8821 40.6409L31.7546 40.6874L31.8262 40.884ZM27.0515 42.6219L26.9799 42.4252L26.853 42.4714L26.8428 42.606L27.0515 42.6219ZM26.8613 45.123L26.9329 45.3197L27.0598 45.2735L27.07 45.1389L26.8613 45.123ZM25.9136 45.4679L25.7048 45.4527L25.6814 45.7752L25.9852 45.6646L25.9136 45.4679ZM26.6653 35.1406L26.5937 34.944L26.4664 34.9903L26.4566 35.1255L26.6653 35.1406ZM27.3132 34.9049L27.4633 34.759L27.3689 34.6618L27.2416 34.7082L27.3132 34.9049ZM34.5273 42.3328L34.5989 42.5295L34.9027 42.4189L34.6774 42.187L34.5273 42.3328ZM27.1166 41.6064L26.9079 41.5907L26.8837 41.9139L27.1882 41.8031L27.1166 41.6064ZM31.1116 40.1524L31.1831 40.349L31.4869 40.2384L31.2617 40.0065L31.1116 40.1524ZM27.5045 36.4384L27.6546 36.2926L27.3306 35.9589L27.2958 36.4227L27.5045 36.4384ZM33.7179 42.5365L31.9765 40.7384L31.6759 41.0296L33.4172 42.8277L33.7179 42.5365ZM31.7546 40.6874L26.9799 42.4252L27.1231 42.8186L31.8978 41.0807L31.7546 40.6874ZM26.8428 42.606L26.6526 45.1071L27.07 45.1389L27.2602 42.6377L26.8428 42.606ZM26.7898 44.9263L25.842 45.2713L25.9852 45.6646L26.9329 45.3197L26.7898 44.9263ZM26.1223 45.4831L26.8741 35.1558L26.4566 35.1255L25.7048 45.4527L26.1223 45.4831ZM26.7369 35.3373L27.3847 35.1015L27.2416 34.7082L26.5937 34.944L26.7369 35.3373ZM27.163 35.0507L34.3771 42.4786L34.6774 42.187L27.4633 34.759L27.163 35.0507ZM34.4557 42.1361L33.496 42.4855L33.6391 42.8788L34.5989 42.5295L34.4557 42.1361ZM27.1882 41.8031L31.1831 40.349L31.04 39.9557L27.045 41.4097L27.1882 41.8031ZM31.2617 40.0065L27.6546 36.2926L27.3544 36.5842L30.9614 40.2982L31.2617 40.0065ZM27.2958 36.4227L26.9079 41.5907L27.3253 41.6221L27.7132 36.454L27.2958 36.4227ZM36.1656 40.7176L35.9689 40.7891L36.0405 40.9858L36.2372 40.9142L36.1656 40.7176ZM41.1802 38.8924L41.3769 38.8208L41.3053 38.6241L41.1087 38.6957L41.1802 38.8924ZM41.5077 39.7921L41.5793 39.9888L41.776 39.9172L41.7044 39.7206L41.5077 39.7921ZM35.5813 41.9492L35.3846 42.0208L35.4562 42.2174L35.6529 42.1458L35.5813 41.9492ZM32.3501 33.0715L32.2785 32.8749L32.0819 32.9465L32.1535 33.1431L32.3501 33.0715ZM33.2619 32.7397L33.4585 32.6681L33.387 32.4714L33.1903 32.543L33.2619 32.7397ZM36.2372 40.9142L41.2518 39.089L41.1087 38.6957L36.094 40.5209L36.2372 40.9142ZM40.9836 38.964L41.3111 39.8637L41.7044 39.7206L41.3769 38.8208L40.9836 38.964ZM41.4362 39.5955L35.5097 41.7525L35.6529 42.1458L41.5793 39.9888L41.4362 39.5955ZM35.778 41.8776L32.5468 33L32.1535 33.1431L35.3846 42.0208L35.778 41.8776ZM32.4217 33.2682L33.3335 32.9364L33.1903 32.543L32.2785 32.8749L32.4217 33.2682ZM33.0652 32.8113L35.9689 40.7891L36.3623 40.646L33.4585 32.6681L33.0652 32.8113ZM43.6208 38.0177L43.4241 38.0893L43.4957 38.2859L43.6924 38.2143L43.6208 38.0177ZM48.1916 36.354L48.3883 36.2825L48.3167 36.0858L48.12 36.1574L48.1916 36.354ZM48.5147 37.2418L48.5863 37.4385L48.783 37.3669L48.7114 37.1702L48.5147 37.2418ZM43.0442 39.2329L42.8475 39.3045L42.9191 39.5012L43.1157 39.4296L43.0442 39.2329ZM39.813 30.3553L39.7414 30.1586L39.5447 30.2302L39.6163 30.4269L39.813 30.3553ZM45.1635 28.4078L45.3602 28.3363L45.2886 28.1396L45.092 28.2112L45.1635 28.4078ZM45.4867 29.2956L45.5582 29.4923L45.7549 29.4207L45.6833 29.224L45.4867 29.2956ZM41.0359 30.9156L40.9643 30.7189L40.7676 30.7905L40.8392 30.9872L41.0359 30.9156ZM42.193 34.0947L41.9963 34.1663L42.0679 34.363L42.2645 34.2914L42.193 34.0947ZM46.3679 32.5752L46.5645 32.5036L46.4929 32.3069L46.2963 32.3785L46.3679 32.5752ZM46.691 33.463L46.7626 33.6596L46.9592 33.588L46.8876 33.3914L46.691 33.463ZM42.5161 34.9825L42.4445 34.7858L42.2478 34.8574L42.3194 35.0541L42.5161 34.9825ZM43.6924 38.2143L48.2632 36.5507L48.12 36.1574L43.5492 37.821L43.6924 38.2143ZM47.9949 36.4256L48.318 37.3134L48.7114 37.1702L48.3883 36.2825L47.9949 36.4256ZM48.4431 37.0451L42.9726 39.0363L43.1157 39.4296L48.5863 37.4385L48.4431 37.0451ZM43.2408 39.1613L40.0096 30.2837L39.6163 30.4269L42.8475 39.3045L43.2408 39.1613ZM39.8846 30.552L45.2351 28.6045L45.092 28.2112L39.7414 30.1586L39.8846 30.552ZM44.9669 28.4794L45.29 29.3672L45.6833 29.224L45.3602 28.3363L44.9669 28.4794ZM45.4151 29.0989L40.9643 30.7189L41.1074 31.1122L45.5582 29.4923L45.4151 29.0989ZM40.8392 30.9872L41.9963 34.1663L42.3896 34.0231L41.2325 30.844L40.8392 30.9872ZM42.2645 34.2914L46.4394 32.7719L46.2963 32.3785L42.1214 33.8981L42.2645 34.2914ZM46.1712 32.6468L46.4943 33.5345L46.8876 33.3914L46.5645 32.5036L46.1712 32.6468ZM46.6194 33.2663L42.4445 34.7858L42.5877 35.1792L46.7626 33.6596L46.6194 33.2663ZM42.3194 35.0541L43.4241 38.0893L43.8175 37.9461L42.7128 34.9109L42.3194 35.0541Z" fill="white"/>
<defs>
<linearGradient id="paint0_linear_19192_60562" x1="58.4707" y1="29.7575" x2="12.2173" y2="29.7575" gradientUnits="userSpaceOnUse">
<stop stop-color="#B18037"/>
<stop offset="0.255208" stop-color="#DFAE64"/>
<stop offset="0.744792" stop-color="#DFAD61"/>
<stop offset="1" stop-color="#B18037"/>
</linearGradient>
</defs>
</svg>
