<svg width="230" height="84" viewBox="0 0 230 84" fill="none" xmlns="http://www.w3.org/2000/svg">
<path d="M42.3987 24.9502H40.557L38.3171 10.988L33.1155 23.3076H31.3733L26.5699 11.1374L24.3549 24.9502H22.5381L25.4748 6.53308H26.6695L32.2693 20.6695L38.2673 6.53308H39.4619L42.3987 24.9502ZM63.0964 24.9502L61.1054 20.4953H51.2L49.184 24.9502H47.2179L55.4807 6.53308H56.8247L65.0875 24.9502H63.0964ZM51.9964 18.6784H60.2841L56.1527 9.46987L51.9964 18.6784ZM85.5344 24.9502H83.2447L77.6449 16.7372L72.1447 24.9502H69.9047L76.3756 15.5425L70.2283 6.53308H72.4682L77.62 14.2484L82.8216 6.53308H85.0615L78.9142 15.5425L85.5344 24.9502ZM97.6726 6.18465C100.535 6.18465 104.094 8.42457 104.094 12.2822C104.094 13.6759 103.223 15.3434 102.625 16.339L97.6477 25.1244H95.582L99.7881 17.7576C99.2406 18.0314 98.5188 18.3798 97.1251 18.3798C93.9394 18.3549 90.8533 16.1399 90.8533 12.5311C90.8533 8.05125 94.8105 6.18465 97.6726 6.18465ZM97.4735 16.6376C99.8628 16.6376 102.227 15.0199 102.227 12.2822C102.227 9.51964 99.6637 7.92681 97.6229 7.92681C95.582 7.92681 92.7448 9.24588 92.7448 12.4564C92.7448 15.1941 94.9101 16.6376 97.4735 16.6376ZM116.539 6.35887C120.969 6.35887 123.159 9.94274 123.159 13.004C123.159 13.6759 123.159 17.7825 123.159 18.4793C123.159 21.5406 120.969 25.1244 116.539 25.1244C112.134 25.1244 109.919 21.5406 109.919 18.4793C109.919 17.7825 109.919 13.6759 109.919 13.004C109.919 9.94274 112.134 6.35887 116.539 6.35887ZM121.342 18.5042C121.342 16.7372 121.342 14.7461 121.342 12.9791C121.342 10.5898 119.526 8.10103 116.539 8.10103C113.577 8.10103 111.736 10.5898 111.736 12.9791C111.736 14.7461 111.736 16.7372 111.736 18.5042C111.736 20.8935 113.577 23.3823 116.539 23.3823C119.526 23.3823 121.342 20.8935 121.342 18.5042ZM142.722 6.53308H144.29L132.668 24.9502H131.1L142.722 6.53308ZM133.041 6.35887C135.505 6.35887 137.073 8.20058 137.073 10.7392C137.073 13.2528 135.505 15.0946 133.041 15.0946C130.552 15.0946 128.984 13.2528 128.984 10.7392C128.984 8.20058 130.552 6.35887 133.041 6.35887ZM133.041 13.6511C134.36 13.6511 135.281 12.5311 135.281 10.7392C135.281 8.92233 134.36 7.80237 133.041 7.80237C131.697 7.80237 130.776 8.92233 130.776 10.7392C130.776 12.5311 131.697 13.6511 133.041 13.6511ZM142.374 16.3639C144.838 16.3639 146.406 18.2056 146.406 20.7441C146.406 23.2827 144.838 25.1244 142.374 25.1244C139.885 25.1244 138.317 23.2827 138.317 20.7441C138.317 18.2056 139.885 16.3639 142.374 16.3639ZM142.374 23.656C143.693 23.656 144.614 22.561 144.614 20.7441C144.614 18.9522 143.693 17.8322 142.374 17.8322C141.03 17.8322 140.109 18.9522 140.109 20.7441C140.109 22.561 141.03 23.656 142.374 23.656ZM170.597 15.5425C170.597 20.3211 166.964 24.9751 161.289 24.9751C155.64 24.9751 151.981 20.3211 151.981 15.5425C151.981 10.8387 155.689 6.30909 161.289 6.30909C166.914 6.30909 170.597 10.8387 170.597 15.5425ZM161.289 23.1832C166.292 23.1832 168.706 18.8527 168.706 15.6421C168.706 12.4315 166.192 8.12592 161.289 8.12592C156.386 8.12592 153.873 12.4315 153.873 15.6421C153.873 18.8527 156.287 23.1832 161.289 23.1832ZM188.252 8.3748H178.77V14.9701H187.431V16.8118H178.77V24.9502H176.903V6.53308H188.252V8.3748ZM206.564 8.3748H197.082V14.9701H205.743V16.8118H197.082V24.9502H195.215V6.53308H206.564V8.3748Z" fill="white"/>
<path d="M24.7097 71.2599H20.0065L16.43 67.5365V77.9228H12.8536V68.2714L4.08401 75.4732V70.868L12.8536 63.6661V62.2943H4.23099V58.7669H12.8536V55.4354H16.43V58.7669H25.0037V62.2943H16.43V62.6373L24.7097 71.2599ZM45.4824 50.0953V53.7207H39.9953V77.9228H36.4188V53.7207H29.5599V72.2397L26.7184 77.4329H22.603L25.8365 71.5049V41.9626L44.3556 36.4755V40.2479L29.5599 44.6082V50.0953H45.4824ZM10.11 51.1241L7.46447 43.7753H11.1389L13.7845 51.1241H10.11ZM24.1218 39.758V43.1874H5.11285V39.758H12.8536V35.7896H16.43V39.758H24.1218ZM25.1996 51.6141V55.0435H4.08401V51.6141H15.5482L18.4387 43.7753H22.2111L19.3206 51.6141H25.1996ZM59.0364 77.4329V59.2078H81.2788V77.4329H59.0364ZM62.6128 73.9055H77.7024V69.3002H62.6128V73.9055ZM77.7024 62.7353H62.6128V65.8708H77.7024V62.7353ZM90.8813 53.2798V56.8072H84.7082L90.3913 65.8708H86.031L80.3479 56.8072H59.7712L54.0882 65.8708H49.7279L55.4109 56.8072H49.9728V53.2798H57.6646L59.7223 49.9483H54.823V46.3229H62.0249L64.0826 43.0404H52.1775V39.513H66.3362L68.6388 35.7896H72.9991L70.6475 39.513H88.1377V43.0404H68.4429L66.3362 46.3229H85.4921V49.9483H79.6131L81.7197 53.2798H90.8813ZM64.0826 49.9483L62.0249 53.2798H77.7024L75.5957 49.9483H64.0826Z" fill="white"/>
<path d="M24.7097 71.2599V71.7938H25.9625L25.0948 70.8901L24.7097 71.2599ZM20.0065 71.2599L19.6214 71.6297L19.779 71.7938H20.0065V71.2599ZM16.43 67.5365L16.8151 67.1667L15.8962 66.21V67.5365H16.43ZM16.43 77.9228V78.4567H16.9639V77.9228H16.43ZM12.8536 77.9228H12.3197V78.4567H12.8536V77.9228ZM12.8536 68.2714H13.3875V67.1421L12.5148 67.8588L12.8536 68.2714ZM4.08401 75.4732H3.55013V76.6025L4.42283 75.8858L4.08401 75.4732ZM4.08401 70.868L3.74519 70.4554L3.55013 70.6156V70.868H4.08401ZM12.8536 63.6661L13.1924 64.0787L13.3875 63.9185V63.6661H12.8536ZM12.8536 62.2943H13.3875V61.7605H12.8536V62.2943ZM4.23099 62.2943H3.69711V62.8282H4.23099V62.2943ZM4.23099 58.7669V58.233H3.69711V58.7669H4.23099ZM12.8536 58.7669V59.3008H13.3875V58.7669H12.8536ZM12.8536 55.4354V54.9016H12.3197V55.4354H12.8536ZM16.43 55.4354H16.9639V54.9016H16.43V55.4354ZM16.43 58.7669H15.8962V59.3008H16.43V58.7669ZM25.0037 58.7669H25.5375V58.233H25.0037V58.7669ZM25.0037 62.2943V62.8282H25.5375V62.2943H25.0037ZM16.43 62.2943V61.7605H15.8962V62.2943H16.43ZM16.43 62.6373H15.8962V62.8521L16.0449 63.0071L16.43 62.6373ZM45.4824 50.0953H46.0163V49.5614H45.4824V50.0953ZM45.4824 53.7207V54.2546H46.0163V53.7207H45.4824ZM39.9953 53.7207V53.1868H39.4614V53.7207H39.9953ZM39.9953 77.9228V78.4567H40.5291V77.9228H39.9953ZM36.4188 77.9228H35.8849V78.4567H36.4188V77.9228ZM36.4188 53.7207H36.9527V53.1868H36.4188V53.7207ZM29.5599 53.7207V53.1868H29.026V53.7207H29.5599ZM29.5599 72.2397L30.0283 72.496L30.0938 72.3763V72.2397H29.5599ZM26.7184 77.4329V77.9668H27.0348L27.1867 77.6892L26.7184 77.4329ZM22.603 77.4329L22.1344 77.1773L21.7037 77.9668H22.603V77.4329ZM25.8365 71.5049L26.3052 71.7605L26.3704 71.641V71.5049H25.8365ZM25.8365 41.9626L25.6849 41.4507L25.3026 41.564V41.9626H25.8365ZM44.3556 36.4755H44.8894V35.7605L44.2039 35.9636L44.3556 36.4755ZM44.3556 40.2479L44.5065 40.76L44.8894 40.6471V40.2479H44.3556ZM29.5599 44.6082L29.409 44.0961L29.026 44.2089V44.6082H29.5599ZM29.5599 50.0953H29.026V50.6292H29.5599V50.0953ZM10.11 51.1241L9.60773 51.305L9.73482 51.658H10.11V51.1241ZM7.46447 43.7753V43.2414H6.70485L6.96215 43.9561L7.46447 43.7753ZM11.1389 43.7753L11.6412 43.5945L11.5141 43.2414H11.1389V43.7753ZM13.7845 51.1241V51.658H14.5441L14.2868 50.9433L13.7845 51.1241ZM24.1218 39.758H24.6557V39.2241H24.1218V39.758ZM24.1218 43.1874V43.7213H24.6557V43.1874H24.1218ZM5.11285 43.1874H4.57897V43.7213H5.11285V43.1874ZM5.11285 39.758V39.2241H4.57897V39.758H5.11285ZM12.8536 39.758V40.2918H13.3875V39.758H12.8536ZM12.8536 35.7896V35.2557H12.3197V35.7896H12.8536ZM16.43 35.7896H16.9639V35.2557H16.43V35.7896ZM16.43 39.758H15.8962V40.2918H16.43V39.758ZM25.1996 51.6141H25.7335V51.0802H25.1996V51.6141ZM25.1996 55.0435V55.5774H25.7335V55.0435H25.1996ZM4.08401 55.0435H3.55013V55.5774H4.08401V55.0435ZM4.08401 51.6141V51.0802H3.55013V51.6141H4.08401ZM15.5482 51.6141V52.1479H15.9203L16.0491 51.7988L15.5482 51.6141ZM18.4387 43.7753V43.2414H18.0666L17.9378 43.5906L18.4387 43.7753ZM22.2111 43.7753L22.712 43.96L22.977 43.2414H22.2111V43.7753ZM19.3206 51.6141L18.8197 51.4293L18.5547 52.1479H19.3206V51.6141ZM24.7097 70.726H20.0065V71.7938H24.7097V70.726ZM20.3915 70.8901L16.8151 67.1667L16.045 67.9063L19.6214 71.6297L20.3915 70.8901ZM15.8962 67.5365V77.9228H16.9639V67.5365H15.8962ZM16.43 77.389H12.8536V78.4567H16.43V77.389ZM13.3875 77.9228V68.2714H12.3197V77.9228H13.3875ZM12.5148 67.8588L3.74519 75.0606L4.42283 75.8858L13.1924 68.684L12.5148 67.8588ZM4.61789 75.4732V70.868H3.55013V75.4732H4.61789ZM4.42283 71.2805L13.1924 64.0787L12.5148 63.2535L3.74519 70.4554L4.42283 71.2805ZM13.3875 63.6661V62.2943H12.3197V63.6661H13.3875ZM12.8536 61.7605H4.23099V62.8282H12.8536V61.7605ZM4.76486 62.2943V58.7669H3.69711V62.2943H4.76486ZM4.23099 59.3008H12.8536V58.233H4.23099V59.3008ZM13.3875 58.7669V55.4354H12.3197V58.7669H13.3875ZM12.8536 55.9693H16.43V54.9016H12.8536V55.9693ZM15.8962 55.4354V58.7669H16.9639V55.4354H15.8962ZM16.43 59.3008H25.0037V58.233H16.43V59.3008ZM24.4698 58.7669V62.2943H25.5375V58.7669H24.4698ZM25.0037 61.7605H16.43V62.8282H25.0037V61.7605ZM15.8962 62.2943V62.6373H16.9639V62.2943H15.8962ZM16.0449 63.0071L24.3246 71.6297L25.0948 70.8901L16.8151 62.2675L16.0449 63.0071ZM44.9485 50.0953V53.7207H46.0163V50.0953H44.9485ZM45.4824 53.1868H39.9953V54.2546H45.4824V53.1868ZM39.4614 53.7207V77.9228H40.5291V53.7207H39.4614ZM39.9953 77.389H36.4188V78.4567H39.9953V77.389ZM36.9527 77.9228V53.7207H35.8849V77.9228H36.9527ZM36.4188 53.1868H29.5599V54.2546H36.4188V53.1868ZM29.026 53.7207V72.2397H30.0938V53.7207H29.026ZM29.0916 71.9835L26.25 77.1766L27.1867 77.6892L30.0283 72.496L29.0916 71.9835ZM26.7184 76.899H22.603V77.9668H26.7184V76.899ZM23.0717 77.6886L26.3052 71.7605L25.3678 71.2492L22.1344 77.1773L23.0717 77.6886ZM26.3704 71.5049V41.9626H25.3026V71.5049H26.3704ZM25.9882 42.4745L44.5072 36.9874L44.2039 35.9636L25.6849 41.4507L25.9882 42.4745ZM43.8217 36.4755V40.2479H44.8894V36.4755H43.8217ZM44.2046 39.7358L29.409 44.0961L29.7108 45.1203L44.5065 40.76L44.2046 39.7358ZM29.026 44.6082V50.0953H30.0938V44.6082H29.026ZM29.5599 50.6292H45.4824V49.5614H29.5599V50.6292ZM10.6124 50.9433L7.96679 43.5945L6.96215 43.9561L9.60773 51.305L10.6124 50.9433ZM7.46447 44.3092H11.1389V43.2414H7.46447V44.3092ZM10.6366 43.9561L13.2821 51.305L14.2868 50.9433L11.6412 43.5945L10.6366 43.9561ZM13.7845 50.5903H10.11V51.658H13.7845V50.5903ZM23.5879 39.758V43.1874H24.6557V39.758H23.5879ZM24.1218 42.6535H5.11285V43.7213H24.1218V42.6535ZM5.64672 43.1874V39.758H4.57897V43.1874H5.64672ZM5.11285 40.2918H12.8536V39.2241H5.11285V40.2918ZM13.3875 39.758V35.7896H12.3197V39.758H13.3875ZM12.8536 36.3235H16.43V35.2557H12.8536V36.3235ZM15.8962 35.7896V39.758H16.9639V35.7896H15.8962ZM16.43 40.2918H24.1218V39.2241H16.43V40.2918ZM24.6657 51.6141V55.0435H25.7335V51.6141H24.6657ZM25.1996 54.5096H4.08401V55.5774H25.1996V54.5096ZM4.61789 55.0435V51.6141H3.55013V55.0435H4.61789ZM4.08401 52.1479H15.5482V51.0802H4.08401V52.1479ZM16.0491 51.7988L18.9396 43.96L17.9378 43.5906L15.0473 51.4293L16.0491 51.7988ZM18.4387 44.3092H22.2111V43.2414H18.4387V44.3092ZM21.7102 43.5906L18.8197 51.4293L19.8215 51.7988L22.712 43.96L21.7102 43.5906ZM19.3206 52.1479H25.1996V51.0802H19.3206V52.1479ZM59.0364 77.4329H58.5025V77.9668H59.0364V77.4329ZM59.0364 59.2078V58.674H58.5025V59.2078H59.0364ZM81.2788 59.2078H81.8127V58.674H81.2788V59.2078ZM81.2788 77.4329V77.9668H81.8127V77.4329H81.2788ZM62.6128 73.9055H62.0789V74.4394H62.6128V73.9055ZM77.7024 73.9055V74.4394H78.2362V73.9055H77.7024ZM77.7024 69.3002H78.2362V68.7663H77.7024V69.3002ZM62.6128 69.3002V68.7663H62.0789V69.3002H62.6128ZM77.7024 62.7353H78.2362V62.2014H77.7024V62.7353ZM62.6128 62.7353V62.2014H62.0789V62.7353H62.6128ZM62.6128 65.8708H62.0789V66.4046H62.6128V65.8708ZM77.7024 65.8708V66.4046H78.2362V65.8708H77.7024ZM90.8813 53.2798H91.4151V52.7459H90.8813V53.2798ZM90.8813 56.8072V57.3411H91.4151V56.8072H90.8813ZM84.7082 56.8072V56.2733H83.7433L84.2559 57.0908L84.7082 56.8072ZM90.3913 65.8708V66.4046H91.3562L90.8437 65.5872L90.3913 65.8708ZM86.031 65.8708L85.5787 66.1544L85.7356 66.4046H86.031V65.8708ZM80.3479 56.8072L80.8003 56.5236L80.6433 56.2733H80.3479V56.8072ZM59.7712 56.8072V56.2733H59.4759L59.3189 56.5236L59.7712 56.8072ZM54.0882 65.8708V66.4046H54.3835L54.5405 66.1544L54.0882 65.8708ZM49.7279 65.8708L49.2755 65.5872L48.763 66.4046H49.7279V65.8708ZM55.4109 56.8072L55.8633 57.0908L56.3758 56.2733H55.4109V56.8072ZM49.9728 56.8072H49.4389V57.3411H49.9728V56.8072ZM49.9728 53.2798V52.7459H49.4389V53.2798H49.9728ZM57.6646 53.2798V53.8137H57.9623L58.1188 53.5603L57.6646 53.2798ZM59.7223 49.9483L60.1765 50.2289L60.6795 49.4144H59.7223V49.9483ZM54.823 49.9483H54.2892V50.4822H54.823V49.9483ZM54.823 46.3229V45.789H54.2892V46.3229H54.823ZM62.0249 46.3229V46.8568H62.3203L62.4772 46.6065L62.0249 46.3229ZM64.0826 43.0404L64.5349 43.324L65.0473 42.5066H64.0826V43.0404ZM52.1775 43.0404H51.6436V43.5743H52.1775V43.0404ZM52.1775 39.513V38.9791H51.6436V39.513H52.1775ZM66.3362 39.513V40.0469H66.6338L66.7903 39.7938L66.3362 39.513ZM68.6388 35.7896V35.2557H68.3413L68.1848 35.5088L68.6388 35.7896ZM72.9991 35.7896L73.4505 36.0747L73.9678 35.2557H72.9991V35.7896ZM70.6475 39.513L70.1961 39.2279L69.6789 40.0469H70.6475V39.513ZM88.1377 39.513H88.6716V38.9791H88.1377V39.513ZM88.1377 43.0404V43.5743H88.6716V43.0404H88.1377ZM68.4429 43.0404V42.5066H68.1511L67.9936 42.7521L68.4429 43.0404ZM66.3362 46.3229L65.8869 46.0345L65.3592 46.8568H66.3362V46.3229ZM85.4921 46.3229H86.026V45.789H85.4921V46.3229ZM85.4921 49.9483V50.4822H86.026V49.9483H85.4921ZM79.6131 49.9483V49.4144H78.6438L79.1618 50.2337L79.6131 49.9483ZM81.7197 53.2798L81.2685 53.5651L81.4257 53.8137H81.7197V53.2798ZM64.0826 49.9483V49.4144H63.7848L63.6283 49.6678L64.0826 49.9483ZM62.0249 53.2798L61.5707 52.9992L61.0676 53.8137H62.0249V53.2798ZM77.7024 53.2798V53.8137H78.6716L78.1536 52.9944L77.7024 53.2798ZM75.5957 49.9483L76.0469 49.663L75.8898 49.4144H75.5957V49.9483ZM59.5702 77.4329V59.2078H58.5025V77.4329H59.5702ZM59.0364 59.7417H81.2788V58.674H59.0364V59.7417ZM80.7449 59.2078V77.4329H81.8127V59.2078H80.7449ZM81.2788 76.899H59.0364V77.9668H81.2788V76.899ZM62.6128 74.4394H77.7024V73.3716H62.6128V74.4394ZM78.2362 73.9055V69.3002H77.1685V73.9055H78.2362ZM77.7024 68.7663H62.6128V69.8341H77.7024V68.7663ZM62.0789 69.3002V73.9055H63.1467V69.3002H62.0789ZM77.7024 62.2014H62.6128V63.2691H77.7024V62.2014ZM62.0789 62.7353V65.8708H63.1467V62.7353H62.0789ZM62.6128 66.4046H77.7024V65.3369H62.6128V66.4046ZM78.2362 65.8708V62.7353H77.1685V65.8708H78.2362ZM90.3474 53.2798V56.8072H91.4151V53.2798H90.3474ZM90.8813 56.2733H84.7082V57.3411H90.8813V56.2733ZM84.2559 57.0908L89.939 66.1544L90.8437 65.5872L85.1606 56.5236L84.2559 57.0908ZM90.3913 65.3369H86.031V66.4046H90.3913V65.3369ZM86.4833 65.5872L80.8003 56.5236L79.8956 57.0908L85.5787 66.1544L86.4833 65.5872ZM80.3479 56.2733H59.7712V57.3411H80.3479V56.2733ZM59.3189 56.5236L53.6358 65.5872L54.5405 66.1544L60.2236 57.0908L59.3189 56.5236ZM54.0882 65.3369H49.7279V66.4046H54.0882V65.3369ZM50.1802 66.1544L55.8633 57.0908L54.9586 56.5236L49.2755 65.5872L50.1802 66.1544ZM55.4109 56.2733H49.9728V57.3411H55.4109V56.2733ZM50.5067 56.8072V53.2798H49.4389V56.8072H50.5067ZM49.9728 53.8137H57.6646V52.7459H49.9728V53.8137ZM58.1188 53.5603L60.1765 50.2289L59.268 49.6678L57.2104 52.9992L58.1188 53.5603ZM59.7223 49.4144H54.823V50.4822H59.7223V49.4144ZM55.3569 49.9483V46.3229H54.2892V49.9483H55.3569ZM54.823 46.8568H62.0249V45.789H54.823V46.8568ZM62.4772 46.6065L64.5349 43.324L63.6302 42.7569L61.5725 46.0393L62.4772 46.6065ZM64.0826 42.5066H52.1775V43.5743H64.0826V42.5066ZM52.7113 43.0404V39.513H51.6436V43.0404H52.7113ZM52.1775 40.0469H66.3362V38.9791H52.1775V40.0469ZM66.7903 39.7938L69.0929 36.0704L68.1848 35.5088L65.8821 39.2322L66.7903 39.7938ZM68.6388 36.3235H72.9991V35.2557H68.6388V36.3235ZM72.5477 35.5045L70.1961 39.2279L71.0989 39.7981L73.4505 36.0747L72.5477 35.5045ZM70.6475 40.0469H88.1377V38.9791H70.6475V40.0469ZM87.6038 39.513V43.0404H88.6716V39.513H87.6038ZM88.1377 42.5066H68.4429V43.5743H88.1377V42.5066ZM67.9936 42.7521L65.8869 46.0345L66.7855 46.6113L68.8922 43.3288L67.9936 42.7521ZM66.3362 46.8568H85.4921V45.789H66.3362V46.8568ZM84.9582 46.3229V49.9483H86.026V46.3229H84.9582ZM85.4921 49.4144H79.6131V50.4822H85.4921V49.4144ZM79.1618 50.2337L81.2685 53.5651L82.171 52.9944L80.0643 49.663L79.1618 50.2337ZM81.7197 53.8137H90.8813V52.7459H81.7197V53.8137ZM63.6283 49.6678L61.5707 52.9992L62.4791 53.5603L64.5368 50.2289L63.6283 49.6678ZM62.0249 53.8137H77.7024V52.7459H62.0249V53.8137ZM78.1536 52.9944L76.0469 49.663L75.1445 50.2337L77.2511 53.5651L78.1536 52.9944ZM75.5957 49.4144H64.0826V50.4822H75.5957V49.4144Z" fill="white"/>
<path d="M123.024 66.018C123.024 74.2629 115.896 77.1353 110.098 77.1353C104.3 77.1353 99.1404 73.5714 97.917 71.4969L101.109 68.9968C102.226 70.433 105.47 73.1991 110.098 73.1991C114.673 73.1991 118.981 70.965 118.981 66.1244C118.981 55.805 97.651 60.7519 98.9809 46.7622C99.8319 38.996 106.587 37.0279 111.268 37.0279C115.949 37.0279 120.418 38.996 122.599 41.6557L119.513 44.3153C118.503 43.0387 115.417 41.0706 111.268 41.0706C107.119 41.0706 103.662 42.9323 103.077 46.975C101.481 57.1348 123.024 51.8155 123.024 66.018ZM160.589 76.763L156.333 67.2415H135.162L130.854 76.763H126.652L144.312 37.4002H147.184L164.844 76.763H160.589ZM136.865 63.3584H154.578L145.748 43.677L136.865 63.3584ZM173.56 72.7735H195.795V76.763H169.518V37.4002H173.56V72.7735ZM206.597 72.8267H226.863V76.763H202.607V37.4002H226.331V41.3365H206.597V55.4326H225.108V59.3689H206.597V72.8267Z" fill="white"/>
<path d="M97.917 71.4969L97.3793 70.8104L96.7777 71.2817L97.1659 71.9399L97.917 71.4969ZM101.109 68.9968L101.797 68.4615L101.26 67.7708L100.571 68.3104L101.109 68.9968ZM98.9809 46.7622L98.1139 46.6672L98.1128 46.6797L98.9809 46.7622ZM122.599 41.6557L123.168 42.3161L123.812 41.7606L123.273 41.1027L122.599 41.6557ZM119.513 44.3153L118.83 44.8566L119.394 45.5695L120.083 44.9758L119.513 44.3153ZM103.077 46.975L103.938 47.1103L103.94 47.0999L103.077 46.975ZM122.152 66.018C122.152 69.8458 120.517 72.3621 118.236 73.9533C115.916 75.5724 112.874 76.2633 110.098 76.2633V78.0074C113.121 78.0074 116.542 77.2621 119.234 75.3837C121.967 73.4775 123.896 70.4352 123.896 66.018H122.152ZM110.098 76.2633C107.373 76.2633 104.773 75.4234 102.701 74.3238C100.598 73.2078 99.1628 71.8927 98.6681 71.0539L97.1659 71.9399C97.8947 73.1756 99.6511 74.6797 101.883 75.8643C104.146 77.0653 107.026 78.0074 110.098 78.0074V76.2633ZM98.4547 72.1834L101.646 69.6833L100.571 68.3104L97.3793 70.8104L98.4547 72.1834ZM100.42 69.5322C101.649 71.1125 105.125 74.0711 110.098 74.0711V72.3271C105.816 72.3271 102.802 69.7536 101.797 68.4615L100.42 69.5322ZM110.098 74.0711C112.512 74.0711 114.923 73.4841 116.758 72.1894C118.625 70.8719 119.853 68.8441 119.853 66.1244H118.109C118.109 68.2453 117.183 69.7548 115.752 70.7645C114.289 71.797 112.259 72.3271 110.098 72.3271V74.0711ZM119.853 66.1244C119.853 64.6731 119.475 63.4529 118.795 62.423C118.122 61.4038 117.183 60.6144 116.123 59.9682C114.041 58.6995 111.284 57.8734 108.77 56.9963C106.18 56.093 103.8 55.1251 102.135 53.596C100.533 52.1246 99.5411 50.0832 99.849 46.8447L98.1128 46.6797C97.7557 50.436 98.9319 53.0225 100.955 54.8806C102.916 56.6811 105.619 57.7445 108.195 58.643C110.847 59.5679 113.34 60.3143 115.216 61.4575C116.134 62.0173 116.851 62.6437 117.34 63.3838C117.821 64.1133 118.109 64.9958 118.109 66.1244H119.853ZM99.8477 46.8572C100.243 43.2545 101.983 41.0542 104.145 39.7257C106.345 38.3736 109.03 37.8999 111.268 37.8999V36.1559C108.826 36.1559 105.792 36.6662 103.232 38.2398C100.633 39.8368 98.5703 42.5038 98.114 46.6672L99.8477 46.8572ZM111.268 37.8999C115.751 37.8999 119.945 39.7949 121.924 42.2086L123.273 41.1027C120.89 38.1972 116.148 36.1559 111.268 36.1559V37.8999ZM122.029 40.9952L118.944 43.6548L120.083 44.9758L123.168 42.3161L122.029 40.9952ZM120.197 43.7741C119.006 42.2693 115.658 40.1985 111.268 40.1985V41.9426C115.177 41.9426 118 43.8081 118.83 44.8566L120.197 43.7741ZM111.268 40.1985C109.074 40.1985 106.99 40.6896 105.352 41.7812C103.692 42.8879 102.542 44.5813 102.214 46.8501L103.94 47.0999C104.196 45.326 105.068 44.0672 106.32 43.2323C107.595 42.3824 109.314 41.9426 111.268 41.9426V40.1985ZM102.215 46.8397C101.992 48.2604 102.166 49.4798 102.699 50.5242C103.227 51.5583 104.068 52.3437 105.049 52.9733C106.964 54.202 109.658 54.9749 112.178 55.8084C114.777 56.668 117.272 57.6104 119.126 59.1503C120.926 60.6458 122.152 62.7326 122.152 66.018H123.896C123.896 62.2022 122.43 59.628 120.24 57.8089C118.104 56.0342 115.313 55.0085 112.726 54.1526C110.059 53.2706 107.667 52.5808 105.991 51.5055C105.177 50.9832 104.597 50.4063 104.252 49.7312C103.913 49.0663 103.762 48.2295 103.938 47.1103L102.215 46.8397ZM160.589 76.763L159.793 77.1188L160.023 77.635H160.589V76.763ZM156.333 67.2415L157.129 66.8857L156.899 66.3695H156.333V67.2415ZM135.162 67.2415V66.3695H134.6L134.368 66.882L135.162 67.2415ZM130.854 76.763V77.635H131.416L131.648 77.1225L130.854 76.763ZM126.652 76.763L125.856 76.406L125.305 77.635H126.652V76.763ZM144.312 37.4002V36.5282H143.747L143.516 37.0433L144.312 37.4002ZM147.184 37.4002L147.98 37.0433L147.749 36.5282H147.184V37.4002ZM164.844 76.763V77.635H166.191L165.64 76.406L164.844 76.763ZM136.865 63.3584L136.07 62.9996L135.514 64.2304H136.865V63.3584ZM154.578 63.3584V64.2304H155.925L155.373 63.0014L154.578 63.3584ZM145.748 43.677L146.543 43.3201L145.75 41.552L144.953 43.3183L145.748 43.677ZM161.385 76.4072L157.129 66.8857L155.537 67.5973L159.793 77.1188L161.385 76.4072ZM156.333 66.3695H135.162V68.1135H156.333V66.3695ZM134.368 66.882L130.059 76.4035L131.648 77.1225L135.957 67.601L134.368 66.882ZM130.854 75.891H126.652V77.635H130.854V75.891ZM127.447 77.1199L145.107 37.7572L143.516 37.0433L125.856 76.406L127.447 77.1199ZM144.312 38.2723H147.184V36.5282H144.312V38.2723ZM146.388 37.7572L164.048 77.1199L165.64 76.406L147.98 37.0433L146.388 37.7572ZM164.844 75.891H160.589V77.635H164.844V75.891ZM136.865 64.2304H154.578V62.4864H136.865V64.2304ZM155.373 63.0014L146.543 43.3201L144.952 44.034L153.782 63.7153L155.373 63.0014ZM144.953 43.3183L136.07 62.9996L137.659 63.7171L146.543 44.0357L144.953 43.3183ZM173.56 72.7735H172.688V73.6455H173.56V72.7735ZM195.795 72.7735H196.667V71.9015H195.795V72.7735ZM195.795 76.763V77.635H196.667V76.763H195.795ZM169.518 76.763H168.646V77.635H169.518V76.763ZM169.518 37.4002V36.5282H168.646V37.4002H169.518ZM173.56 37.4002H174.432V36.5282H173.56V37.4002ZM173.56 73.6455H195.795V71.9015H173.56V73.6455ZM194.923 72.7735V76.763H196.667V72.7735H194.923ZM195.795 75.891H169.518V77.635H195.795V75.891ZM170.39 76.763V37.4002H168.646V76.763H170.39ZM169.518 38.2723H173.56V36.5282H169.518V38.2723ZM172.688 37.4002V72.7735H174.432V37.4002H172.688ZM206.597 72.8267H205.725V73.6987H206.597V72.8267ZM226.863 72.8267H227.735V71.9547H226.863V72.8267ZM226.863 76.763V77.635H227.735V76.763H226.863ZM202.607 76.763H201.735V77.635H202.607V76.763ZM202.607 37.4002V36.5282H201.735V37.4002H202.607ZM226.331 37.4002H227.203V36.5282H226.331V37.4002ZM226.331 41.3365V42.2085H227.203V41.3365H226.331ZM206.597 41.3365V40.4645H205.725V41.3365H206.597ZM206.597 55.4326H205.725V56.3047H206.597V55.4326ZM225.108 55.4326H225.98V54.5606H225.108V55.4326ZM225.108 59.3689V60.2409H225.98V59.3689H225.108ZM206.597 59.3689V58.4969H205.725V59.3689H206.597ZM206.597 73.6987H226.863V71.9547H206.597V73.6987ZM225.991 72.8267V76.763H227.735V72.8267H225.991ZM226.863 75.891H202.607V77.635H226.863V75.891ZM203.479 76.763V37.4002H201.735V76.763H203.479ZM202.607 38.2723H226.331V36.5282H202.607V38.2723ZM225.459 37.4002V41.3365H227.203V37.4002H225.459ZM226.331 40.4645H206.597V42.2085H226.331V40.4645ZM205.725 41.3365V55.4326H207.469V41.3365H205.725ZM206.597 56.3047H225.108V54.5606H206.597V56.3047ZM224.236 55.4326V59.3689H225.98V55.4326H224.236ZM225.108 58.4969H206.597V60.2409H225.108V58.4969ZM205.725 59.3689V72.8267H207.469V59.3689H205.725Z" fill="white"/>
</svg>
