<svg width="25" height="32" viewBox="0 0 25 32" fill="none" xmlns="http://www.w3.org/2000/svg">
<path d="M21.2999 11.1334H19.8333V8.20003C19.8333 4.15203 16.5479 0.866699 12.4999 0.866699C8.45194 0.866699 5.1666 4.15203 5.1666 8.20003V11.1334H3.69993C2.0866 11.1334 0.766602 12.4534 0.766602 14.0667V28.7334C0.766602 30.3467 2.0866 31.6667 3.69993 31.6667H21.2999C22.9133 31.6667 24.2333 30.3467 24.2333 28.7334V14.0667C24.2333 12.4534 22.9133 11.1334 21.2999 11.1334ZM8.09994 8.20003C8.09994 5.76537 10.0653 3.80003 12.4999 3.80003C14.9346 3.80003 16.8999 5.76537 16.8999 8.20003V11.1334H8.09994V8.20003ZM21.2999 28.7334H3.69993V14.0667H21.2999V28.7334ZM12.4999 24.3334C14.1133 24.3334 15.4333 23.0134 15.4333 21.4C15.4333 19.7867 14.1133 18.4667 12.4999 18.4667C10.8866 18.4667 9.5666 19.7867 9.5666 21.4C9.5666 23.0134 10.8866 24.3334 12.4999 24.3334Z" fill="#BDBDBD"/>
</svg>
