<svg width="34" height="27" viewBox="0 0 34 27" fill="none" xmlns="http://www.w3.org/2000/svg">
<path fill-rule="evenodd" clip-rule="evenodd" d="M30.6908 7.90043V3.47622C30.6908 3.29283 30.5437 3.14288 30.3574 3.14288H3.69076C3.52407 3.14288 3.37409 3.27326 3.37409 3.47622V7.90172C5.35493 8.97709 6.69076 11.082 6.69076 13.4762C6.69076 15.88 5.34719 17.9844 3.35742 19.0564V23.4762C3.35742 23.5585 3.38839 23.6395 3.45791 23.7091C3.52742 23.7786 3.60842 23.8095 3.69076 23.8095H30.3574C30.4398 23.8095 30.5208 23.7786 30.5903 23.7091C30.6598 23.6395 30.6908 23.5585 30.6908 23.4762V19.052C28.7083 17.9803 27.3574 15.882 27.3574 13.4762C27.3574 11.0704 28.7083 8.97211 30.6908 7.90043ZM33.6908 7.14288V3.47622C33.6908 1.62622 32.1908 0.142883 30.3574 0.142883H3.69076C1.85742 0.142883 0.374089 1.62622 0.374089 3.47622V7.14288V10.1429C2.20742 10.1429 3.69076 11.6429 3.69076 13.4762C3.69076 15.3095 2.20742 16.8095 0.357422 16.8095V19.8095V23.4762C0.357422 25.3095 1.85742 26.8095 3.69076 26.8095H30.3574C32.1908 26.8095 33.6908 25.3095 33.6908 23.4762V19.8095V16.8095C31.8574 16.8095 30.3574 15.3095 30.3574 13.4762C30.3574 11.6429 31.8574 10.1429 33.6908 10.1429V7.14288ZM22.0451 5.72728H23.8633V7.54546H22.0451V5.72728ZM23.8633 10.2727H22.0451V12.0909H23.8633V10.2727ZM22.0451 14.8182H23.8633V16.6364H22.0451V14.8182ZM23.8633 19.3636H22.0451V21.1818H23.8633V19.3636Z" fill="url(#paint0_linear_22070_90595)"/>
<defs>
<linearGradient id="paint0_linear_22070_90595" x1="34.0239" y1="-0.137803" x2="-4.26571" y2="9.17755" gradientUnits="userSpaceOnUse">
<stop stop-color="#FFCE51"/>
<stop offset="1" stop-color="#D346B4"/>
</linearGradient>
</defs>
</svg>
