<svg width="34" height="32" viewBox="0 0 34 32" fill="none" xmlns="http://www.w3.org/2000/svg">
<path d="M22.0002 13.6666C22.0002 12.75 22.7502 12 23.6668 12C24.5835 12 25.3335 12.75 25.3335 13.6666C25.3335 14.5833 24.5835 15.3333 23.6668 15.3333C22.7502 15.3333 22.0002 14.5833 22.0002 13.6666ZM10.3335 12H18.6668V8.66665H10.3335V12ZM33.6668 9.49998V21.1166L28.9668 22.6833L26.1668 32H17.0002V28.6666H13.6668V32H4.50016C4.50016 32 0.333496 17.9 0.333496 12.8333C0.333496 7.76665 4.4335 3.66665 9.50016 3.66665H17.8335C19.3502 1.64998 21.7668 0.333313 24.5002 0.333313C25.8835 0.333313 27.0002 1.44998 27.0002 2.83331C27.0002 3.18331 26.9335 3.49998 26.8002 3.79998C26.5668 4.36665 26.3668 5.01665 26.2668 5.71665L30.0502 9.49998H33.6668ZM30.3335 12.8333H28.6668L22.8335 6.99998C22.8335 5.91665 22.9835 4.84998 23.2668 3.81665C21.6502 4.23331 20.3335 5.43331 19.7835 6.99998H9.50016C6.2835 6.99998 3.66683 9.61665 3.66683 12.8333C3.66683 15.9666 5.70016 23.9166 7.01683 28.6666H10.3335V25.3333H20.3335V28.6666H23.6835L26.2668 20.0833L30.3335 18.7166V12.8333Z" fill="url(#paint0_linear_21944_88000)"/>
<defs>
<linearGradient id="paint0_linear_21944_88000" x1="34" y1="-1.5282e-06" x2="-4.92225" y2="7.97412" gradientUnits="userSpaceOnUse">
<stop stop-color="#FFCE51"/>
<stop offset="1" stop-color="#D346B4"/>
</linearGradient>
</defs>
</svg>
