<svg width="36" height="35" viewBox="0 0 36 35" fill="none" xmlns="http://www.w3.org/2000/svg">
<path d="M25.1665 18.6667C30.3165 13.9834 35.1665 9.60004 35.1665 5.83337C35.1665 2.75004 32.7498 0.333374 29.6665 0.333374C27.9332 0.333374 26.2498 1.15004 25.1665 2.41671C24.0665 1.15004 22.3998 0.333374 20.6665 0.333374C17.5832 0.333374 15.1665 2.75004 15.1665 5.83337C15.1665 9.60004 20.0165 13.9834 25.1665 18.6667ZM20.6665 3.66671C21.3998 3.66671 22.1498 4.01671 22.6332 4.58337L25.1665 7.56671L27.6998 4.58337C28.1832 4.01671 28.9332 3.66671 29.6665 3.66671C30.8998 3.66671 31.8332 4.60004 31.8332 5.83337C31.8332 7.70004 28.4332 11.1167 25.1665 14.15C21.8998 11.1167 18.4998 7.68337 18.4998 5.83337C18.4998 4.60004 19.4332 3.66671 20.6665 3.66671Z" fill="url(#paint0_linear_22070_90572)"/>
<path d="M30.1665 23.6667H26.8332C26.8332 21.6667 25.5832 19.8667 23.7165 19.1667L13.4498 15.3334H0.166504V33.6667H10.1665V31.2667L21.8332 34.5L35.1665 30.3334V28.6667C35.1665 25.9 32.9332 23.6667 30.1665 23.6667ZM3.49984 30.3334V18.6667H6.83317V30.3334H3.49984ZM21.7832 31.0167L10.1665 27.8V18.6667H12.8498L22.5498 22.2834C23.1165 22.5 23.4998 23.05 23.4998 23.6667C23.4998 23.6667 20.1832 23.5834 19.6665 23.4167L15.6998 22.1L14.6498 25.2667L18.6165 26.5834C19.4665 26.8667 20.3498 27.0167 21.2498 27.0167H30.1665C30.8165 27.0167 31.3998 27.4 31.6665 27.95L21.7832 31.0167Z" fill="url(#paint1_linear_22070_90572)"/>
<defs>
<linearGradient id="paint0_linear_22070_90572" x1="35.3664" y1="0.140402" x2="12.0825" y2="5.08411" gradientUnits="userSpaceOnUse">
<stop stop-color="#FFCE51"/>
<stop offset="1" stop-color="#D346B4"/>
</linearGradient>
<linearGradient id="paint1_linear_22070_90572" x1="35.5163" y1="15.1316" x2="-2.29163" y2="28.569" gradientUnits="userSpaceOnUse">
<stop stop-color="#FFCE51"/>
<stop offset="1" stop-color="#D346B4"/>
</linearGradient>
</defs>
</svg>
