<svg width="35" height="32" viewBox="0 0 35 32" fill="none" xmlns="http://www.w3.org/2000/svg">
<path d="M30.8335 6.99998H27.2002C27.3835 6.48331 27.5002 5.91665 27.5002 5.33331C27.5002 2.56665 25.2668 0.333313 22.5002 0.333313C20.7502 0.333313 19.2335 1.23331 18.3335 2.58331L17.5002 3.69998L16.6668 2.56665C15.7668 1.23331 14.2502 0.333313 12.5002 0.333313C9.7335 0.333313 7.50016 2.56665 7.50016 5.33331C7.50016 5.91665 7.61683 6.48331 7.80016 6.99998H4.16683C2.31683 6.99998 0.850163 8.48331 0.850163 10.3333L0.833496 28.6666C0.833496 30.5166 2.31683 32 4.16683 32H30.8335C32.6835 32 34.1668 30.5166 34.1668 28.6666V10.3333C34.1668 8.48331 32.6835 6.99998 30.8335 6.99998ZM22.5002 3.66665C23.4168 3.66665 24.1668 4.41665 24.1668 5.33331C24.1668 6.24998 23.4168 6.99998 22.5002 6.99998C21.5835 6.99998 20.8335 6.24998 20.8335 5.33331C20.8335 4.41665 21.5835 3.66665 22.5002 3.66665ZM12.5002 3.66665C13.4168 3.66665 14.1668 4.41665 14.1668 5.33331C14.1668 6.24998 13.4168 6.99998 12.5002 6.99998C11.5835 6.99998 10.8335 6.24998 10.8335 5.33331C10.8335 4.41665 11.5835 3.66665 12.5002 3.66665ZM30.8335 28.6666H4.16683V25.3333H30.8335V28.6666ZM30.8335 20.3333H4.16683V10.3333H12.6335L9.16683 15.05L11.8668 17L17.5002 9.33331L23.1335 17L25.8335 15.05L22.3668 10.3333H30.8335V20.3333Z" fill="url(#paint0_linear_22070_90805)"/>
<defs>
<linearGradient id="paint0_linear_22070_90805" x1="34.5" y1="-1.5282e-06" x2="-4.42225" y2="7.97412" gradientUnits="userSpaceOnUse">
<stop stop-color="#FFCE51"/>
<stop offset="1" stop-color="#D346B4"/>
</linearGradient>
</defs>
</svg>
