<svg width="38" height="28" viewBox="0 0 38 28" fill="none" xmlns="http://www.w3.org/2000/svg">
<path d="M32.3332 7.33335H27.3332V0.666687H3.99984C2.1665 0.666687 0.666504 2.16669 0.666504 4.00002V22.3334H3.99984C3.99984 25.1 6.23317 27.3334 8.99984 27.3334C11.7665 27.3334 13.9998 25.1 13.9998 22.3334H23.9998C23.9998 25.1 26.2332 27.3334 28.9998 27.3334C31.7665 27.3334 33.9998 25.1 33.9998 22.3334H37.3332V14L32.3332 7.33335ZM31.4998 9.83335L34.7665 14H27.3332V9.83335H31.4998ZM8.99984 24C8.08317 24 7.33317 23.25 7.33317 22.3334C7.33317 21.4167 8.08317 20.6667 8.99984 20.6667C9.9165 20.6667 10.6665 21.4167 10.6665 22.3334C10.6665 23.25 9.9165 24 8.99984 24ZM12.6998 19C11.7832 17.9834 10.4832 17.3334 8.99984 17.3334C7.5165 17.3334 6.2165 17.9834 5.29984 19H3.99984V4.00002H23.9998V19H12.6998ZM28.9998 24C28.0832 24 27.3332 23.25 27.3332 22.3334C27.3332 21.4167 28.0832 20.6667 28.9998 20.6667C29.9165 20.6667 30.6665 21.4167 30.6665 22.3334C30.6665 23.25 29.9165 24 28.9998 24Z" fill="url(#paint0_linear_22070_90767)"/>
<defs>
<linearGradient id="paint0_linear_22070_90767" x1="37.6997" y1="0.386001" x2="-3.93041" y2="11.5268" gradientUnits="userSpaceOnUse">
<stop stop-color="#FFCE51"/>
<stop offset="1" stop-color="#D346B4"/>
</linearGradient>
</defs>
</svg>
