<svg width="31" height="30" viewBox="0 0 31 30" fill="none" xmlns="http://www.w3.org/2000/svg">
<path d="M13.8333 8.33333V16.6667L20.9167 20.8667L22.2 18.7333L16.3333 15.25V8.33333H13.8333ZM30.5 11.6667V0L26.1 4.4C23.4 1.68333 19.65 0 15.5 0C7.21667 0 0.5 6.71667 0.5 15C0.5 23.2833 7.21667 30 15.5 30C23.7833 30 30.5 23.2833 30.5 15H27.1667C27.1667 21.4333 21.9333 26.6667 15.5 26.6667C9.06667 26.6667 3.83333 21.4333 3.83333 15C3.83333 8.56667 9.06667 3.33333 15.5 3.33333C18.7167 3.33333 21.6333 4.65 23.75 6.75L18.8333 11.6667H30.5Z" fill="url(#paint0_linear_22070_90540)"/>
<defs>
<linearGradient id="paint0_linear_22070_90540" x1="30.7999" y1="-0.315772" x2="-4.3683" y2="6.52898" gradientUnits="userSpaceOnUse">
<stop stop-color="#FFCE51"/>
<stop offset="1" stop-color="#D346B4"/>
</linearGradient>
</defs>
</svg>
