<svg width="167" height="51" viewBox="0 0 167 51" fill="none" xmlns="http://www.w3.org/2000/svg">
<path d="M40.0027 10.3958H46.0237V16.9298C46.0237 17.3618 46.0237 17.8208 45.9157 18.1178C45.8077 18.4958 44.9167 18.7388 43.5937 18.7928V19.8188H54.1507V18.7928C52.8277 18.7388 51.9367 18.4958 51.8287 18.1178C51.7207 17.8208 51.7207 17.3618 51.7207 16.9298V3.80785C51.7207 3.37585 51.7207 2.91685 51.8287 2.61985C51.9367 2.24185 52.8277 1.99885 54.1507 1.94485V0.918846H43.5937V1.94485C44.9167 1.99885 45.8077 2.24185 45.9157 2.61985C46.0237 2.91685 46.0237 3.37585 46.0237 3.80785V8.72185H40.0027V3.80785C40.0027 3.37585 40.0027 2.91685 40.1107 2.61985C40.2187 2.24185 41.0827 1.99885 42.4327 1.94485V0.918846H31.8757V1.94485C33.2257 1.99885 34.0897 2.24185 34.1977 2.61985C34.3057 2.91685 34.3057 3.37585 34.3057 3.80785V16.9298C34.3057 17.3618 34.3057 17.8208 34.1977 18.1178C34.0897 18.4958 33.2257 18.7388 31.8757 18.7928V19.8188H42.4327V18.7928C41.0827 18.7388 40.2187 18.4958 40.1107 18.1178C40.0027 17.8208 40.0027 17.3618 40.0027 16.9298V10.3958ZM73.7459 18.1988C72.8819 18.2528 71.9099 17.8478 71.9099 15.1208V11.3678C71.9099 8.31685 70.0469 5.99485 65.1329 5.99485C63.2969 5.99485 61.5419 6.34585 59.9759 6.93985C59.4899 7.10185 59.3549 7.45285 59.0309 8.53285L58.7609 9.58585C58.6259 10.1528 58.8959 10.2608 59.1389 10.3958L60.5969 10.8548C60.9209 10.9358 61.2179 10.8818 61.3259 10.5308C61.9469 8.42485 63.0269 7.18285 64.2689 7.18285C65.6729 7.18285 66.4559 8.50585 66.4559 10.5038L62.0819 11.7458C60.2189 12.2858 57.4919 13.2038 57.4919 16.3628C57.4919 18.6038 59.0039 20.1428 61.0019 20.1428C62.4329 20.1428 63.3239 19.8188 64.0529 19.3598L66.5099 17.6048C66.5099 18.2798 66.4829 18.9818 66.8879 20.1428L73.7189 19.3598L73.7459 18.1988ZM66.5099 14.8508C66.5099 15.7148 65.7269 17.4698 64.2959 17.4698C63.1619 17.4698 62.8109 16.5248 62.8109 15.4178C62.8109 13.7708 64.1879 12.4208 66.5099 11.7458V14.8508ZM83.7347 11.2598C83.7347 10.7198 83.9777 9.96385 84.4097 9.28885C84.8417 8.64085 85.3817 8.10085 86.1647 8.10085C87.7577 8.10085 88.2167 10.8008 88.2167 13.1228C88.2167 17.6048 86.6507 19.2518 85.6787 19.2518C84.9497 19.2518 84.1937 18.7928 83.7347 17.7938V11.2598ZM83.7347 19.7378C84.8417 20.0888 86.1377 20.1428 86.8937 20.1428C89.1347 20.1428 94.1297 18.4148 94.1297 12.6098C94.1297 9.12685 92.4017 5.99485 89.2157 5.99485C86.8937 5.99485 84.8957 7.07485 83.7347 8.39785V6.04885L83.6807 5.99485C81.8987 6.80485 78.7397 7.12885 76.3367 7.12885V8.15485C77.8487 8.15485 78.3347 8.80285 78.3347 10.3418V23.6798C78.3347 24.1118 78.3347 24.5708 78.2267 24.8678C78.1187 25.2458 77.2277 25.4888 76.3367 25.5428V26.5688H85.5707V25.5428C84.8147 25.4888 83.9507 25.2458 83.8427 24.8678C83.7347 24.5708 83.7347 24.1118 83.7347 23.6798V19.7378ZM104.719 11.2598C104.719 10.7198 104.962 9.96385 105.394 9.28885C105.826 8.64085 106.366 8.10085 107.149 8.10085C108.742 8.10085 109.201 10.8008 109.201 13.1228C109.201 17.6048 107.635 19.2518 106.663 19.2518C105.934 19.2518 105.178 18.7928 104.719 17.7938V11.2598ZM104.719 19.7378C105.826 20.0888 107.122 20.1428 107.878 20.1428C110.119 20.1428 115.114 18.4148 115.114 12.6098C115.114 9.12685 113.386 5.99485 110.2 5.99485C107.878 5.99485 105.88 7.07485 104.719 8.39785V6.04885L104.665 5.99485C102.883 6.80485 99.7241 7.12885 97.3211 7.12885V8.15485C98.8331 8.15485 99.3191 8.80285 99.3191 10.3418V23.6798C99.3191 24.1118 99.3191 24.5708 99.2111 24.8678C99.1031 25.2458 98.2121 25.4888 97.3211 25.5428V26.5688H106.555V25.5428C105.799 25.4888 104.935 25.2458 104.827 24.8678C104.719 24.5708 104.719 24.1118 104.719 23.6798V19.7378ZM128.349 14.5808L126.189 9.36985C125.865 8.55985 125.217 7.34485 126.54 7.34485V6.31885H118.278V7.34485C119.628 7.34485 120.114 8.50585 120.384 9.09985L125.703 20.5748L125.163 21.8438C124.569 23.1668 123.354 23.4638 122.382 24.0038L121.518 24.4898C121.302 24.6788 121.302 24.8408 121.302 25.0568V26.0828C121.302 26.2988 121.356 26.5688 121.707 26.5688H123.975C124.569 26.5688 125.001 26.1368 125.244 25.5968L132.372 9.80185C132.912 8.61385 133.047 7.34485 134.883 7.34485V6.31885H128.646V7.34485C130.293 7.34485 131.292 7.93885 130.671 9.28885L128.349 14.5808ZM10.29 30.9188H0.0299649V31.9448C1.62296 31.9448 3.02696 34.2668 3.48597 35.3738C3.99896 36.5618 7.69797 47.1188 8.61596 49.8188H12.585C14.475 44.4728 16.419 39.1808 18.363 33.8348C18.768 32.7818 19.821 31.9448 21.063 31.9448V30.9188H14.772V31.9448C16.284 31.9448 17.256 32.2958 16.419 34.6178C15.177 38.0198 13.962 41.4488 12.72 44.8508C11.262 40.9088 9.96597 37.1288 8.61596 32.9978C8.50797 32.5118 9.10197 31.9448 10.29 31.9448V30.9188ZM37.6438 48.1988C36.7798 48.2528 35.8078 47.8478 35.8078 45.1208V41.3678C35.8078 38.3168 33.9448 35.9948 29.0308 35.9948C27.1948 35.9948 25.4398 36.3458 23.8738 36.9398C23.3878 37.1018 23.2528 37.4528 22.9288 38.5328L22.6588 39.5858C22.5238 40.1528 22.7938 40.2608 23.0368 40.3958L24.4948 40.8548C24.8188 40.9358 25.1158 40.8818 25.2238 40.5308C25.8448 38.4248 26.9248 37.1828 28.1668 37.1828C29.5708 37.1828 30.3538 38.5058 30.3538 40.5038L25.9798 41.7458C24.1168 42.2858 21.3898 43.2038 21.3898 46.3628C21.3898 48.6038 22.9018 50.1428 24.8998 50.1428C26.3308 50.1428 27.2218 49.8188 27.9508 49.3598L30.4078 47.6048C30.4078 48.2798 30.3808 48.9818 30.7858 50.1428L37.6168 49.3598L37.6438 48.1988ZM30.4078 44.8508C30.4078 45.7148 29.6248 47.4698 28.1938 47.4698C27.0598 47.4698 26.7088 46.5248 26.7088 45.4178C26.7088 43.7708 28.0858 42.4208 30.4078 41.7458V44.8508ZM42.5566 46.9298C42.5566 47.3618 42.5566 47.8208 42.4486 48.1178C42.3406 48.4958 41.4496 48.7388 40.5586 48.7928V49.8188H49.9276V48.7928C49.0366 48.7388 48.1726 48.4958 48.0646 48.1178C47.9566 47.8208 47.9566 47.3618 47.9566 46.9298V30.0278L47.9026 29.9738C46.7146 30.4058 44.9866 30.7298 40.5586 30.7838V31.8098H40.8286C42.7186 31.8098 42.5566 33.8348 42.5566 34.5908V46.9298ZM66.873 42.3668V41.6108C66.873 38.3978 65.361 35.9948 61.257 35.9948C55.425 35.9948 53.427 39.5048 53.427 42.8798C53.427 45.6068 54.858 47.9558 56.019 48.7658C58.449 50.4398 59.313 50.1428 61.797 50.1428H62.931L66.873 47.4698L66.063 46.3358C65.388 46.8758 64.065 47.7668 62.31 47.7668C58.287 47.7668 58.908 42.0698 58.908 42.3668H66.873ZM58.908 41.3408C58.908 38.2088 59.88 37.0208 60.879 37.0208C61.878 37.0208 62.391 38.3168 62.391 39.8828C62.391 40.9898 62.013 41.3408 61.689 41.3408H58.908ZM77.5856 43.1498C77.5856 38.1818 79.2326 38.2358 79.8806 38.2358C80.9876 38.2358 81.5006 39.3698 81.5006 41.4758V46.9298C81.5006 47.3618 81.5006 47.8208 81.3926 48.1178C81.2846 48.4958 80.4206 48.7388 79.9346 48.7928V49.8188H88.8986V48.7928C87.9806 48.7388 87.1166 48.4958 87.0086 48.1178C86.9006 47.8208 86.9006 47.3618 86.9006 46.9298V40.7738C86.9006 37.9658 85.7126 35.9948 82.9046 35.9948C80.6906 35.9948 78.7466 37.0208 77.5856 38.3708V36.0488L77.5316 35.9948C75.7496 36.8048 72.5906 37.1288 70.1876 37.1288V38.1548C71.6996 38.1548 72.1856 38.8028 72.1856 40.3418V46.9298C72.1856 47.3618 72.1856 47.8208 72.0776 48.1178C71.9696 48.4958 71.0786 48.7388 70.1876 48.7928V49.8188H79.1516V48.7928C78.6656 48.7388 77.8016 48.4958 77.6936 48.1178C77.5856 47.8208 77.5856 47.3618 77.5856 46.9298V43.1498ZM103.756 36.7778H99.7872V31.9988H98.3022C97.2222 32.4038 95.7102 32.9438 94.3602 33.5108V36.7778H92.0652V38.4248H94.3872V45.8768C94.3872 49.0088 95.8722 50.1428 98.3832 50.1428L103.999 48.7658L103.648 47.3078C103.054 47.5508 102.595 47.6858 101.947 47.6858C99.3552 47.6858 99.7872 44.5808 99.7872 42.3398V38.4248H102.352L103.756 37.7768V36.7778ZM109.197 46.9298C109.197 47.3618 109.197 47.8208 109.089 48.1178C108.981 48.4958 108.09 48.7388 107.199 48.7928V49.8188H116.568V48.7928C115.677 48.7388 114.813 48.4958 114.705 48.1178C114.597 47.8208 114.597 47.3618 114.597 46.9298V36.0488L114.543 35.9948C112.761 36.8048 109.602 37.1288 107.199 37.1288V38.1548C108.711 38.1548 109.197 38.8028 109.197 40.3418V46.9298ZM109.197 32.5388C109.197 33.9968 110.304 35.1308 111.735 35.1308C113.409 35.1308 114.381 33.9428 114.381 32.5388C114.381 31.0808 113.409 29.9738 111.762 29.9738C110.304 29.9738 109.197 31.1078 109.197 32.5388ZM127.25 43.1498C127.25 38.1818 128.897 38.2358 129.545 38.2358C130.652 38.2358 131.165 39.3698 131.165 41.4758V46.9298C131.165 47.3618 131.165 47.8208 131.057 48.1178C130.949 48.4958 130.085 48.7388 129.599 48.7928V49.8188H138.563V48.7928C137.645 48.7388 136.781 48.4958 136.673 48.1178C136.565 47.8208 136.565 47.3618 136.565 46.9298V40.7738C136.565 37.9658 135.377 35.9948 132.569 35.9948C130.355 35.9948 128.411 37.0208 127.25 38.3708V36.0488L127.196 35.9948C125.414 36.8048 122.255 37.1288 119.852 37.1288V38.1548C121.364 38.1548 121.85 38.8028 121.85 40.3418V46.9298C121.85 47.3618 121.85 47.8208 121.742 48.1178C121.634 48.4958 120.743 48.7388 119.852 48.7928V49.8188H128.816V48.7928C128.33 48.7388 127.466 48.4958 127.358 48.1178C127.25 47.8208 127.25 47.3618 127.25 46.9298V43.1498ZM155.526 42.3668V41.6108C155.526 38.3978 154.014 35.9948 149.91 35.9948C144.078 35.9948 142.08 39.5048 142.08 42.8798C142.08 45.6068 143.511 47.9558 144.672 48.7658C147.102 50.4398 147.966 50.1428 150.45 50.1428H151.584L155.526 47.4698L154.716 46.3358C154.041 46.8758 152.718 47.7668 150.963 47.7668C146.94 47.7668 147.561 42.0698 147.561 42.3668H155.526ZM147.561 41.3408C147.561 38.2088 148.533 37.0208 149.532 37.0208C150.531 37.0208 151.044 38.3168 151.044 39.8828C151.044 40.9898 150.666 41.3408 150.342 41.3408H147.561ZM163.863 43.7438C164.538 40.3958 165.375 34.9688 165.996 31.8098C166.293 30.4058 164.781 29.9738 163.188 29.9738C161.595 29.9738 160.083 30.4058 160.38 31.8098C161.001 34.9688 161.838 40.3958 162.513 43.7438H163.863ZM160.677 47.6048C160.677 48.9818 161.865 50.1428 163.242 50.1428C164.538 50.1428 165.699 48.9278 165.699 47.6048C165.699 46.3088 164.538 45.1208 163.215 45.1208C161.865 45.1208 160.677 46.2278 160.677 47.6048Z" fill="#ECDECD"/>
</svg>
