<svg width="41" height="18" viewBox="0 0 41 18" fill="none" xmlns="http://www.w3.org/2000/svg">
<path fill-rule="evenodd" clip-rule="evenodd" d="M40.4997 0L37.7998 9L40.4997 18H0.5V0H40.4997Z" fill="url(#paint0_linear_21686_88271)"/>
<path d="M14.86 4.88H13.48C13.51 5.06 13.54 5.56 13.54 5.76C13.54 6.22 13.53 7.46 13.53 8.6C13.53 9.81 13.58 11.2 13.58 11.72C13.58 12.07 13.45 12.15 13.27 12.15C13.01 12.15 12.54 11.88 12.54 11.56C12.54 11.13 13.18 10.59 14.08 10.25C14.86 9.94 15.74 9.76 16.59 9.76C17.46 9.76 18.06 10.15 18.06 10.84C18.06 11.56 17.41 11.97 16.6 12.11C16.26 12.18 15.82 12.18 15.38 12.18L15.83 13.48C16.24 13.44 16.69 13.41 17.15 13.31C18.74 12.92 19.36 12.03 19.36 10.84C19.36 9.46 18.14 8.66 16.6 8.66C15.84 8.66 14.83 8.82 13.94 9.14C12.55 9.63 11.3 10.65 11.3 11.62C11.3 12.68 12.68 13.52 13.65 13.52C14.31 13.52 14.75 13.18 14.75 11.95C14.75 11.37 14.69 9.64 14.69 8.55C14.69 7.62 14.72 6.54 14.77 5.75C14.78 5.5 14.82 5.07 14.86 4.88ZM17.71 5.97L17.16 6.94C17.78 7.24 19.08 7.99 19.56 8.39L20.17 7.37C19.63 6.99 18.47 6.34 17.71 5.97ZM11.57 6.52L11.6 7.73C11.94 7.77 12.33 7.78 12.99 7.78C13.87 7.78 15.48 7.6 16.61 7.34L16.58 6.1C15.55 6.4 13.99 6.59 12.95 6.59C12.59 6.59 12.16 6.59 11.57 6.52ZM25.7 6.93H28.31V7.44H25.7V6.93ZM25.7 5.64H28.31V6.14H25.7V5.64ZM24.54 4.8V8.28H29.52V4.8H24.54ZM24.04 8.72V9.7H29.85V8.72H24.04ZM23.78 10.27V11.29H30.05V10.27H23.78ZM27.47 9.58V12.68C27.47 12.8 27.43 12.83 27.28 12.84C27.15 12.85 26.68 12.85 26.26 12.83C26.41 13.13 26.58 13.57 26.63 13.9C27.32 13.9 27.82 13.89 28.19 13.72C28.58 13.55 28.68 13.26 28.68 12.71V9.58H27.47ZM24.45 11.78C24.86 12.21 25.38 12.8 25.6 13.18L26.5 12.54C26.24 12.17 25.71 11.61 25.28 11.22L24.45 11.78ZM23.08 6.72C22.48 7.69 21.5 8.68 20.62 9.3C20.8 9.59 21.1 10.27 21.18 10.53C22.23 9.71 23.4 8.39 24.13 7.16L23.08 6.72ZM22.81 4.52C22.39 5.19 21.5 6.01 20.72 6.49C20.91 6.74 21.19 7.23 21.32 7.5C22.26 6.89 23.28 5.91 23.95 4.98L22.81 4.52ZM22.09 8.95V13.9H23.25V7.87L23.2 7.84L22.09 8.95Z" fill="white"/>
<defs>
<linearGradient id="paint0_linear_21686_88271" x1="38.3459" y1="0.900001" x2="8.19001" y2="24.3822" gradientUnits="userSpaceOnUse">
<stop stop-color="#FFCE51"/>
<stop offset="1" stop-color="#D346B4"/>
</linearGradient>
</defs>
</svg>
