<svg width="62" height="61" viewBox="0 0 62 61" fill="none" xmlns="http://www.w3.org/2000/svg">
<path d="M58.5591 14.6601C57.9683 12.9663 56.0566 11.8769 54.4572 11.1153L42.4167 5.39609C40.9071 4.67725 36.8929 2.77009 35.1677 6.2834L31.9396 12.6226L27.1908 3.25306C24.9085 -1.37445 20.6427 0.660754 19.0365 1.42676L6.04132 7.62448C4.48234 8.36803 2.60888 9.46201 1.95069 11.349C1.54635 12.526 1.68562 13.8244 2.3775 15.2284L8.46515 27.1544L9.58833 26.5816L10.7115 26.011L10.6935 25.9773L31.5128 14.5702L32.353 14.1434L32.5372 14.24L51.8919 24.443L54.1382 25.5931L58.3344 17.4254V17.4074C58.5578 16.9892 58.693 16.5296 58.7316 16.057C58.7702 15.5845 58.7115 15.109 58.5591 14.6601Z" fill="white"/>
<path d="M34.9247 14.9764L53.3189 24.9023C53.4765 24.988 53.6084 25.1165 53.7004 25.2739C53.7925 25.4313 53.8411 25.6116 53.8411 25.7954C53.8411 25.9792 53.7925 26.1595 53.7004 26.3169C53.6084 26.4743 53.4765 26.6027 53.3189 26.6884L32.4681 37.9393C32.3352 38.0113 32.188 38.0504 32.038 38.0537C31.8879 38.0569 31.7392 38.0242 31.6036 37.9581L9.47767 27.2956C9.31233 27.2161 9.17189 27.0904 9.07227 26.9327C8.97265 26.7751 8.91783 26.5918 8.91403 26.4037C8.91023 26.2155 8.9576 26.03 9.05077 25.8682C9.14394 25.7064 9.27919 25.5748 9.44117 25.4883L29.1515 14.9646C30.044 14.4881 31.0346 14.2404 32.0395 14.2424C33.0444 14.2445 34.0341 14.4962 34.9247 14.9764Z" fill="url(#paint0_linear)"/>
<path d="M50.7545 22.3789L35.7623 14.8065C34.4477 14.1433 32.9958 13.7979 31.5234 13.7979C30.051 13.7979 28.5992 14.1433 27.2845 14.8065L12.2833 22.3789C10.7753 23.1338 9.50643 24.2924 8.61801 25.7257C7.72959 27.1591 7.25651 28.811 7.25146 30.4973V44.135C7.25651 45.8213 7.72959 47.4732 8.61801 48.9066C9.50643 50.3399 10.7753 51.4985 12.2833 52.2533L27.2756 59.8281C28.5907 60.4895 30.0424 60.8339 31.5144 60.8339C32.9865 60.8339 34.4382 60.4895 35.7533 59.8281L50.7456 52.2533C52.2553 51.4998 53.526 50.3417 54.416 48.9083C55.3061 47.4748 55.7805 45.8223 55.7864 44.135V30.4973C55.7814 28.811 55.3083 27.1591 54.4199 25.7257C53.5314 24.2924 52.2626 23.1338 50.7545 22.3789ZM12.0789 24.3647L27.9292 16.1071C29.0616 15.517 30.3181 15.2047 31.595 15.1961C32.8718 15.1875 34.1324 15.4828 35.2726 16.0577L51.3206 24.1446C51.4374 24.2052 51.5453 24.2681 51.6621 24.3333C51.9005 24.4766 52.096 24.6814 52.2278 24.9264C52.3597 25.1713 52.4231 25.4473 52.4114 25.7252C52.3997 26.0032 52.3132 26.2728 52.1612 26.5058C52.0092 26.7388 51.7972 26.9265 51.5475 27.0491L35.0907 35.2371C33.9617 35.7979 32.7169 36.086 31.4563 36.0782C30.1958 36.0704 28.9546 35.7669 27.8327 35.1922L12.0879 27.1233C11.8343 26.9934 11.6214 26.7963 11.4724 26.5535C11.3235 26.3107 11.2442 26.0316 11.2432 25.7467C11.2423 25.4619 11.3198 25.1823 11.4672 24.9385C11.6146 24.6947 11.8262 24.4962 12.0789 24.3647Z" fill="white"/>
<defs>
<linearGradient id="paint0_linear" x1="47.4098" y1="22.0215" x2="31.3775" y2="38.0539" gradientUnits="userSpaceOnUse">
<stop stop-color="#FFCE51"/>
<stop offset="1" stop-color="#D346B4"/>
</linearGradient>
</defs>
</svg>
