<svg width="50" height="50" viewBox="0 0 50 50" fill="none" xmlns="http://www.w3.org/2000/svg">
<path d="M47.1739 12.2553C46.6985 10.8925 45.1604 10.0159 43.8735 9.40318L34.1858 4.80149C32.9712 4.22312 29.7413 2.68862 28.3532 5.51542L25.756 10.616L21.9351 3.07721C20.0987 -0.64607 16.6665 0.991453 15.3741 1.60778L4.91823 6.59445C3.66388 7.19271 2.15649 8.07292 1.62692 9.59115C1.30158 10.5382 1.41364 11.5829 1.97033 12.7126L6.86843 22.3082L7.77214 21.8473L8.67585 21.3882L8.66139 21.3611L25.4126 12.183L26.0885 11.8396L26.2367 11.9173L41.8095 20.1266L43.6169 21.052L46.9931 14.4802V14.4658C47.1728 14.1293 47.2816 13.7595 47.3127 13.3793C47.3438 12.9991 47.2965 12.6165 47.1739 12.2553Z" fill="white"/>
<path d="M40.8946 18.4659L28.8319 12.3731C27.7741 11.8395 26.6059 11.5616 25.4213 11.5616C24.2366 11.5616 23.0684 11.8395 22.0107 12.3731L9.94071 18.4659C8.72737 19.0732 7.70643 20.0054 6.99161 21.1587C6.27679 22.312 5.89615 23.641 5.89209 24.9979L5.89209 35.9707C5.89615 37.3276 6.27679 38.6566 6.99161 39.8099C7.70643 40.9632 8.72737 41.8954 9.94071 42.5027L22.0034 48.5974C23.0616 49.1295 24.2296 49.4067 25.414 49.4067C26.5985 49.4067 27.7665 49.1295 28.8246 48.5974L40.8873 42.5027C42.102 41.8964 43.1245 40.9646 43.8406 39.8113C44.5567 38.6579 44.9385 37.3283 44.9432 35.9707V24.9979C44.9391 23.641 44.5585 22.312 43.8437 21.1587C43.1289 20.0054 42.1079 19.0732 40.8946 18.4659ZM9.77623 20.0636L22.5294 13.4196C23.4405 12.9447 24.4514 12.6935 25.4788 12.6866C26.5062 12.6796 27.5205 12.9173 28.4378 13.3798L41.35 19.8865C41.444 19.9353 41.5308 19.9859 41.6248 20.0383C41.8166 20.1536 41.9739 20.3184 42.08 20.5155C42.1861 20.7126 42.2371 20.9347 42.2276 21.1583C42.2182 21.3819 42.1487 21.5989 42.0264 21.7863C41.9041 21.9738 41.7335 22.1248 41.5326 22.2235L28.2914 28.8115C27.3831 29.2627 26.3815 29.4945 25.3673 29.4882C24.353 29.4819 23.3544 29.2378 22.4517 28.7754L9.78346 22.2831C9.57946 22.1787 9.40815 22.0201 9.28827 21.8247C9.1684 21.6294 9.1046 21.4048 9.10385 21.1756C9.10311 20.9464 9.16545 20.7214 9.28404 20.5253C9.40264 20.3291 9.57292 20.1694 9.77623 20.0636Z" fill="white"/>
</svg>
