<svg width="226" height="117" viewBox="0 0 226 117" fill="none" xmlns="http://www.w3.org/2000/svg">
<g filter="url(#filter0_d)">
<path fill-rule="evenodd" clip-rule="evenodd" d="M56.1813 112.405L219.942 112.405C220.885 112.405 221.649 111.641 221.649 110.698L221.649 2.43458C221.649 1.49149 220.885 0.726959 219.942 0.726959L56.1813 0.726945L56.1815 0.769082L56.1816 0.812455C56.1816 6.70679 51.4033 11.4851 45.509 11.4851C39.6147 11.4851 34.8364 6.70679 34.8364 0.812453C34.8364 0.783927 34.8365 0.755424 34.8367 0.726943L1.70764 0.72694C0.764536 0.72694 9.51528e-06 1.49147 9.43437e-06 2.43456L1.46496e-07 110.698C6.55887e-08 111.641 0.764542 112.405 1.70763 112.405L34.8367 112.405C34.8825 106.55 39.6431 101.818 45.509 101.818C51.3748 101.818 56.1354 106.55 56.1813 112.405ZM45.4232 92.427C44.4801 92.427 43.7156 93.1916 43.7156 94.1346C43.7156 95.0777 44.4801 95.8423 45.4232 95.8423C46.3663 95.8423 47.1308 95.0777 47.1308 94.1346C47.1308 93.1916 46.3663 92.427 45.4232 92.427ZM43.7156 65.9573C43.7156 65.0142 44.4801 64.2496 45.4232 64.2496C46.3663 64.2496 47.1308 65.0142 47.1308 65.9573C47.1308 66.9003 46.3663 67.6649 45.4232 67.6649C44.4801 67.6649 43.7156 66.9003 43.7156 65.9573ZM45.4225 36.0741C44.4794 36.0741 43.7149 36.8386 43.7149 37.7817C43.7149 38.7248 44.4794 39.4893 45.4225 39.4893C46.3656 39.4893 47.1301 38.7248 47.1301 37.7817C47.1301 36.8386 46.3656 36.0741 45.4225 36.0741ZM43.7149 84.7417C43.7149 83.7986 44.4794 83.0341 45.4225 83.0341C46.3656 83.0341 47.1301 83.7986 47.1301 84.7417C47.1301 85.6848 46.3656 86.4493 45.4225 86.4493C44.4794 86.4493 43.7149 85.6848 43.7149 84.7417ZM45.4232 54.8585C44.4801 54.8585 43.7156 55.623 43.7156 56.5661C43.7156 57.5092 44.4801 58.2737 45.4232 58.2737C46.3663 58.2737 47.1308 57.5092 47.1308 56.5661C47.1308 55.623 46.3663 54.8585 45.4232 54.8585ZM43.7149 28.3899C43.7149 27.4468 44.4794 26.6823 45.4225 26.6823C46.3656 26.6823 47.1301 27.4468 47.1301 28.3899C47.1301 29.333 46.3656 30.0975 45.4225 30.0975C44.4794 30.0975 43.7149 29.333 43.7149 28.3899ZM45.4225 73.6414C44.4794 73.6414 43.7149 74.4059 43.7149 75.349C43.7149 76.2921 44.4794 77.0567 45.4225 77.0567C46.3656 77.0567 47.1301 76.2921 47.1301 75.349C47.1301 74.4059 46.3656 73.6414 45.4225 73.6414ZM43.7149 47.173C43.7149 46.2299 44.4794 45.4654 45.4225 45.4654C46.3656 45.4654 47.1301 46.2299 47.1301 47.173C47.1301 48.1161 46.3656 48.8807 45.4225 48.8807C44.4794 48.8807 43.7149 48.1161 43.7149 47.173ZM45.4232 17.2905C44.4801 17.2905 43.7156 18.055 43.7156 18.9981C43.7156 19.9412 44.4801 20.7057 45.4232 20.7057C46.3663 20.7057 47.1308 19.9412 47.1308 18.9981C47.1308 18.055 46.3663 17.2905 45.4232 17.2905Z" fill="#FFE99E"/>
<rect x="204.915" y="98.7438" width="143.782" height="84.5272" rx="1.70762" transform="rotate(-180 204.915 98.7438)" fill="#FFD84D"/>
<rect x="30.5674" y="98.7442" width="18.6131" height="84.5272" rx="1.70762" transform="rotate(-180 30.5674 98.7442)" fill="#FFD84D"/>
<path d="M91.904 48.1422L84.4153 48.1424L83.2198 52.1699C83.3981 52.149 83.5659 52.1332 83.7232 52.1227C83.891 52.1122 84.0431 52.107 84.1795 52.107C86.5393 52.1069 88.4744 52.904 89.9848 54.4981C91.5056 56.0818 92.2661 58.1113 92.2662 60.5865C92.2663 63.1457 91.4063 65.2538 89.6863 66.911C87.9662 68.5682 85.8004 69.3969 83.1888 69.397C79.9689 69.3971 77.4307 67.8868 75.5742 64.8662L78.343 62.522C79.1087 63.8226 79.8797 64.7403 80.6558 65.2751C81.4319 65.7995 82.3811 66.0617 83.5034 66.0617C84.9718 66.0616 86.2041 65.5477 87.2005 64.5198C88.1968 63.4604 88.695 62.1756 88.6949 60.6653C88.6949 59.113 88.2019 57.844 87.216 56.8581C86.23 55.8408 84.9976 55.3321 83.5188 55.3322C81.8721 55.3322 80.451 56.0507 79.2554 57.4876L78.044 57.4877L81.8666 44.7128L91.9038 44.7125L91.904 48.1422ZM97.3462 50.1086C97.3461 48.5878 97.9282 47.2662 99.0923 46.1439C100.277 45.0217 101.646 44.4605 103.198 44.4604C104.793 44.4604 106.167 45.0267 107.32 46.1594C108.474 47.2816 109.051 48.6241 109.051 50.1869C109.051 51.7601 108.474 53.1079 107.321 54.2302C106.167 55.3524 104.777 55.9136 103.152 55.9136C101.557 55.9137 100.189 55.3421 99.0454 54.1989C97.9126 53.0558 97.3462 51.6923 97.3462 50.1086ZM100.084 50.1557C100.084 51.0367 100.388 51.7814 100.996 52.3897C101.605 52.998 102.344 53.3021 103.214 53.3021C104.064 53.302 104.793 52.9979 105.401 52.3895C106.01 51.7812 106.314 51.047 106.314 50.1869C106.314 49.3374 106.009 48.6085 105.401 48.0002C104.793 47.3919 104.059 47.0877 103.199 47.0878C102.339 47.0878 101.604 47.392 100.996 48.0003C100.388 48.6086 100.084 49.3271 100.084 50.1557ZM116.996 44.287L118.711 45.2623L104.804 69.3963L103.073 68.358L116.996 44.287ZM112.717 63.4177C112.717 61.9074 113.299 60.5911 114.463 59.4688C115.648 58.3465 117.017 57.7854 118.569 57.7853C120.174 57.7853 121.553 58.3516 122.707 59.4843C123.861 60.6065 124.438 61.949 124.438 63.5118C124.438 65.0955 123.856 66.4432 122.692 67.555C121.548 68.6668 120.159 69.2228 118.523 69.2228C116.928 69.2229 115.56 68.6565 114.416 67.5238C113.284 66.3911 112.717 65.0224 112.717 63.4177ZM115.47 63.4806C115.47 64.3616 115.769 65.1062 116.367 65.7145C116.975 66.3228 117.715 66.627 118.585 66.627C119.445 66.6269 120.174 66.3227 120.772 65.7144C121.381 65.1061 121.685 64.3719 121.685 63.5118C121.685 62.6518 121.38 61.9176 120.772 61.3093C120.174 60.701 119.44 60.3969 118.57 60.3969C117.72 60.3969 116.991 60.7011 116.383 61.3095C115.774 61.9178 115.47 62.6415 115.47 63.4806ZM128.637 56.7467C128.637 53.3275 129.89 50.3907 132.397 47.9364C134.893 45.4821 137.892 44.2549 141.396 44.2547C144.857 44.2546 147.825 45.4922 150.3 47.9673C152.786 50.4425 154.029 53.4159 154.029 56.8875C154.029 60.3801 152.781 63.3431 150.285 65.7764C147.778 68.2203 144.753 69.4422 141.208 69.4424C138.072 69.4425 135.255 68.357 132.759 66.186C130.011 63.7843 128.637 60.6378 128.637 56.7467ZM132.334 56.7938C132.334 59.4788 133.236 61.6865 135.04 63.417C136.834 65.1475 138.905 66.0128 141.255 66.0127C143.803 66.0126 145.953 65.1315 147.705 63.3694C149.456 61.5864 150.332 59.4153 150.332 56.8561C150.332 54.2655 149.466 52.0945 147.736 50.343C146.016 48.581 143.887 47.7001 141.348 47.7001C138.821 47.7002 136.686 48.5813 134.945 50.3434C133.204 52.0845 132.334 54.2346 132.334 56.7938ZM172.057 48.1554L163.593 48.1557L163.593 53.9924L171.758 53.9922L171.758 57.4376L163.593 57.4378L163.593 69.0012L159.928 69.0013L159.927 44.7104L172.057 44.71L172.057 48.1554ZM189.739 48.1549L181.275 48.1552L181.275 53.9919L189.44 53.9916L189.44 57.437L181.275 57.4373L181.275 69.0006L177.61 69.0007L177.609 44.7099L189.739 44.7095L189.739 48.1549Z" fill="white"/>
<path d="M25.7934 26.549L23.8771 26.549C24.6593 25.614 25.0505 24.6465 25.0505 23.6467C25.0505 22.545 24.6547 21.6169 23.8632 20.8624C23.0763 20.1033 22.1134 19.7237 20.9747 19.7237C19.8499 19.7237 18.901 20.1033 18.1279 20.8624C17.3549 21.6215 16.9684 22.5519 16.9684 23.6536C16.9684 24.223 17.061 24.7067 17.2461 25.1048C17.3387 25.327 17.4637 25.5561 17.6211 25.7922C17.7785 26.0329 17.9683 26.2852 18.1904 26.549L16.2394 26.549C15.7163 25.6232 15.4548 24.6512 15.4548 23.6328C15.4548 22.1006 15.9894 20.793 17.0587 19.7098C18.1372 18.6313 19.4379 18.092 20.9608 18.092C22.3264 18.092 23.5438 18.5433 24.613 19.4459C25.923 20.5569 26.578 21.9942 26.578 23.7578C26.578 24.7206 26.3165 25.651 25.7934 26.549ZM21.058 30.5528C22.5671 30.5528 23.8632 31.106 24.9463 32.2123C26.0295 33.314 26.5711 34.6378 26.5711 36.1839C26.5711 37.7114 26.0249 39.0214 24.9324 40.1138C23.84 41.2109 22.5277 41.7594 20.9956 41.7594C19.4541 41.7594 18.1465 41.2086 17.0726 40.1069C15.994 39.0006 15.4548 37.6651 15.4548 36.1006C15.4548 34.7165 15.9338 33.4737 16.892 32.372C17.9521 31.1592 19.3407 30.5528 21.058 30.5528ZM21.0372 32.1845C19.8522 32.1845 18.8778 32.5826 18.1141 33.3788C17.3503 34.1703 16.9684 35.0845 16.9684 36.1214C16.9684 37.2462 17.3572 38.1951 18.1349 38.9682C18.9218 39.7412 19.88 40.1277 21.0094 40.1277C22.1528 40.1277 23.111 39.7458 23.884 38.9821C24.6616 38.2229 25.0505 37.2833 25.0505 36.1631C25.0505 35.0475 24.6616 34.1055 23.884 33.3371C23.1156 32.5687 22.1667 32.1845 21.0372 32.1845ZM26.3697 47.9712L19.9124 47.9712C18.9912 47.9712 18.3177 48.1217 17.8919 48.4225C17.2762 48.8715 16.9684 49.5034 16.9684 50.3181C16.9684 51.1374 17.2762 51.7715 17.8919 52.2205C18.3038 52.5214 18.9774 52.6719 19.9124 52.6719L26.3697 52.6719L26.3697 54.2897L19.468 54.2897C18.3386 54.2897 17.4082 53.9379 16.6768 53.2343C15.8621 52.4427 15.4548 51.4707 15.4548 50.3181C15.4548 49.1655 15.8621 48.1957 16.6768 47.4088C17.4082 46.7052 18.3386 46.3534 19.468 46.3534L26.3697 46.3534L26.3697 47.9712ZM20.0027 61.0431L15.6492 61.0431L15.6492 59.4253L26.3697 59.4253L26.3697 61.2583C26.3697 62.1563 26.3072 62.8344 26.1822 63.2927C26.0573 63.7556 25.8212 64.1629 25.474 64.5147C24.8723 65.1304 24.1131 65.4382 23.1966 65.4382C22.2153 65.4382 21.4376 65.1096 20.8636 64.4522C20.2896 63.7949 20.0027 62.9085 20.0027 61.7929L20.0027 61.0431ZM21.5024 61.0431L21.5024 61.6471C21.5024 63.133 22.0741 63.876 23.2174 63.876C24.3237 63.876 24.8769 63.1099 24.8769 61.5777L24.8769 61.0431L21.5024 61.0431ZM21.058 69.1296C22.5671 69.1296 23.8632 69.6827 24.9463 70.789C26.0295 71.8907 26.5711 73.2146 26.5711 74.7606C26.5711 76.2882 26.0249 77.5982 24.9324 78.6906C23.84 79.7876 22.5277 80.3362 20.9956 80.3362C19.4541 80.3362 18.1465 79.7853 17.0726 78.6836C15.994 77.5773 15.4548 76.2419 15.4548 74.6773C15.4548 73.2933 15.9338 72.0504 16.892 70.9487C17.952 69.736 19.3407 69.1296 21.058 69.1296ZM21.0372 70.7613C19.8522 70.7613 18.8778 71.1593 18.1141 71.9555C17.3503 72.7471 16.9684 73.6613 16.9684 74.6981C16.9684 75.823 17.3572 76.7719 18.1349 77.5449C18.9218 78.318 19.88 78.7045 21.0094 78.7045C22.1528 78.7045 23.111 78.3226 23.884 77.5588C24.6616 76.7997 25.0505 75.86 25.0505 74.7398C25.0505 73.6242 24.6616 72.6823 23.884 71.9139C23.1156 71.1455 22.1667 70.7613 21.0372 70.7613ZM15.6492 84.9302L27.0988 84.9302L18.9195 92.7484L26.3697 92.7484L26.3697 94.3662L14.9965 94.3662L23.1549 86.548L15.6492 86.548L15.6492 84.9302Z" fill="white"/>
</g>
<defs>
<filter id="filter0_d" x="0" y="0.726929" width="225.649" height="115.678" filterUnits="userSpaceOnUse" color-interpolation-filters="sRGB">
<feFlood flood-opacity="0" result="BackgroundImageFix"/>
<feColorMatrix in="SourceAlpha" type="matrix" values="0 0 0 0 0 0 0 0 0 0 0 0 0 0 0 0 0 0 127 0" result="hardAlpha"/>
<feOffset dx="4" dy="4"/>
<feComposite in2="hardAlpha" operator="out"/>
<feColorMatrix type="matrix" values="0 0 0 0 0 0 0 0 0 0 0 0 0 0 0 0 0 0 0.2 0"/>
<feBlend mode="normal" in2="BackgroundImageFix" result="effect1_dropShadow"/>
<feBlend mode="normal" in="SourceGraphic" in2="effect1_dropShadow" result="shape"/>
</filter>
</defs>
</svg>
