<svg width="48" height="47" viewBox="0 0 48 47" fill="none" xmlns="http://www.w3.org/2000/svg">
<path d="M48 24.6557C48 38.5919 40.5296 47 26.0405 47C11.5514 47 0 41.4812 0 27.5451C0 13.6089 5.33281 0 19.8219 0C34.311 0 48 10.7196 48 24.6557Z" fill="#505050"/>
<path d="M21.7676 31.793C21.791 30.3984 21.9492 29.2969 22.2422 28.4883C22.5352 27.6797 23.1328 26.7832 24.0352 25.7988L26.3379 23.4258C27.3223 22.3125 27.8145 21.1172 27.8145 19.8398C27.8145 18.6094 27.4922 17.6484 26.8477 16.957C26.2031 16.2539 25.2656 15.9023 24.0352 15.9023C22.8398 15.9023 21.8789 16.2188 21.1523 16.8516C20.4258 17.4844 20.0625 18.334 20.0625 19.4004H16.8105C16.834 17.502 17.5078 15.9727 18.832 14.8125C20.168 13.6406 21.9023 13.0547 24.0352 13.0547C26.25 13.0547 27.9727 13.6523 29.2031 14.8477C30.4453 16.0312 31.0664 17.6602 31.0664 19.7344C31.0664 21.7852 30.1172 23.8066 28.2188 25.7988L26.3027 27.6973C25.4473 28.6465 25.0195 30.0117 25.0195 31.793H21.7676ZM21.627 37.3652C21.627 36.8379 21.7852 36.3984 22.1016 36.0469C22.4297 35.6836 22.9102 35.502 23.543 35.502C24.1758 35.502 24.6562 35.6836 24.9844 36.0469C25.3125 36.3984 25.4766 36.8379 25.4766 37.3652C25.4766 37.8926 25.3125 38.332 24.9844 38.6836C24.6562 39.0234 24.1758 39.1934 23.543 39.1934C22.9102 39.1934 22.4297 39.0234 22.1016 38.6836C21.7852 38.332 21.627 37.8926 21.627 37.3652Z" fill="white"/>
</svg>
