<svg width="319" height="65" viewBox="0 0 319 65" fill="none" xmlns="http://www.w3.org/2000/svg">
<line x1="176.062" y1="52.9381" x2="316.938" y2="52.9381" stroke="#D8D8D8" stroke-width="4.12387" stroke-linecap="round" stroke-dasharray="1 1"/>
<line x1="14.0619" y1="52.9381" x2="154.938" y2="52.9381" stroke="white" stroke-width="4.12387" stroke-linecap="round" stroke-dasharray="1 1"/>
<circle cx="165" cy="53" r="12" fill="white"/>
<circle cx="165" cy="53" r="7" fill="white"/>
<path d="M165 27.5C164.724 27.5 164.5 27.7239 164.5 28C164.5 28.2761 164.724 28.5 165 28.5V27.5ZM318 28L313 25.1132V30.8868L318 28ZM165 28.5H313.5V27.5H165V28.5Z" fill="white"/>
<path d="M165 28L165 41" stroke="white" stroke-linecap="round" stroke-linejoin="round"/>
<path d="M192.88 15.768C192.944 15.096 192.976 14.424 192.992 13.816H199.408V15.768H192.88ZM199.408 10.056V12.008H192.992V10.056H199.408ZM201.424 8.2H191.024V13.464C191.024 15.896 190.8 18.952 188.384 21.016C188.8 21.288 189.568 21.992 189.856 22.392C191.344 21.144 192.144 19.4 192.56 17.608H199.408V19.928C199.408 20.264 199.28 20.392 198.896 20.392C198.544 20.392 197.2 20.408 196.08 20.344C196.384 20.872 196.768 21.784 196.88 22.344C198.528 22.344 199.648 22.312 200.416 21.976C201.152 21.656 201.424 21.112 201.424 19.96V8.2ZM217.191 13.176H214.023V12.2H217.191V13.176ZM217.191 15.464H214.023V14.488H217.191V15.464ZM217.191 17.8H214.023V16.808H217.191V17.8ZM212.311 10.776V19.208H218.983V10.776H216.151C216.279 10.44 216.407 10.072 216.535 9.688H219.303V8.072H211.831V9.688H214.519C214.455 10.04 214.391 10.424 214.327 10.776H212.311ZM206.375 10.248H210.199V11.352H211.783V8.776H209.175V7.48H207.399V8.776H204.839V11.352H206.375V10.248ZM209.255 19.992H207.319V18.52H209.255V19.992ZM207.351 17.048C207.815 16.744 208.263 16.392 208.695 16.008C209.175 16.376 209.655 16.728 210.055 17.048H207.351ZM209.271 12.792C209.047 13.192 208.791 13.576 208.487 13.928L207.383 13.208C207.495 13.064 207.607 12.936 207.719 12.792H209.271ZM210.871 17.72L210.903 17.752L211.975 16.424C211.447 15.976 210.663 15.4 209.799 14.824C210.471 13.992 211.015 13.032 211.383 11.944L210.311 11.448L210.023 11.528H208.535C208.679 11.288 208.791 11.048 208.903 10.792L207.351 10.408C206.775 11.752 205.671 12.968 204.423 13.752C204.775 13.976 205.367 14.552 205.623 14.856C205.863 14.696 206.087 14.504 206.311 14.312L207.367 15.048C206.487 15.784 205.479 16.36 204.423 16.728C204.759 17.032 205.175 17.672 205.383 18.088L205.719 17.944V22.088H207.319V21.448H210.871C211.191 21.752 211.543 22.104 211.751 22.36C212.919 21.896 214.327 21.048 215.159 20.232L213.623 19.272C213.047 19.864 211.927 20.6 210.871 21.032V17.72ZM215.863 20.216C216.727 20.856 217.847 21.8 218.359 22.408L219.831 21.432C219.255 20.824 218.087 19.944 217.239 19.352L215.863 20.216ZM225.952 21H229.748V16.58H234.376V14.682H229.748V12.992H234.376V11.094H230.606L235.078 2.254H231.256L229.54 6.466C229.02 7.74 228.5 9.04 227.98 10.366H227.85C227.304 9.066 226.81 7.766 226.316 6.466L224.6 2.254H220.648L225.094 11.094H221.376V12.992H225.952V14.682H221.376V16.58H225.952V21ZM242.744 21.364C246.41 21.364 249.504 19.31 249.504 15.774C249.504 13.252 247.84 11.64 245.682 11.042V10.912C247.71 10.106 248.88 8.598 248.88 6.518C248.88 3.242 246.358 1.396 242.64 1.396C240.378 1.396 238.532 2.306 236.868 3.762L238.818 6.102C239.962 5.036 241.08 4.412 242.458 4.412C244.096 4.412 245.032 5.296 245.032 6.804C245.032 8.52 243.888 9.742 240.352 9.742V12.472C244.538 12.472 245.656 13.668 245.656 15.54C245.656 17.282 244.33 18.244 242.38 18.244C240.638 18.244 239.234 17.386 238.09 16.268L236.296 18.686C237.648 20.22 239.702 21.364 242.744 21.364ZM258.703 21.364C262.629 21.364 265.203 17.932 265.203 11.302C265.203 4.672 262.629 1.396 258.703 1.396C254.777 1.396 252.177 4.646 252.177 11.302C252.177 17.932 254.777 21.364 258.703 21.364ZM258.703 18.374C257.039 18.374 255.791 16.71 255.791 11.302C255.791 5.92 257.039 4.36 258.703 4.36C260.367 4.36 261.589 5.92 261.589 11.302C261.589 16.71 260.367 18.374 258.703 18.374ZM274.117 21.364C278.043 21.364 280.617 17.932 280.617 11.302C280.617 4.672 278.043 1.396 274.117 1.396C270.191 1.396 267.591 4.646 267.591 11.302C267.591 17.932 270.191 21.364 274.117 21.364ZM274.117 18.374C272.453 18.374 271.205 16.71 271.205 11.302C271.205 5.92 272.453 4.36 274.117 4.36C275.781 4.36 277.003 5.92 277.003 11.302C277.003 16.71 275.781 18.374 274.117 18.374Z" fill="#DDAA00"/>
<path d="M29 16.94C28.78 16.7 28.24 16.18 27.64 15.6C28.18 15.04 28.8 14.32 29.5 13.64L27.98 12.38C27.64 13.02 27.06 13.92 26.54 14.6C26.34 14.42 26.16 14.26 26 14.12C27 12.64 27.86 11.02 28.46 9.38L27.12 8.5L26.74 8.6H25.88V5.08H23.54V8.6H20.96V10.74H25.52C24.3 13.12 22.34 15.46 20.4 16.82C20.78 17.24 21.4 18.4 21.62 18.98C22.26 18.48 22.9 17.9 23.54 17.22V23.74H25.88V16.56C26.54 17.32 27.2 18.16 27.58 18.74L29 16.94ZM28.28 6.6V8.84H31.16C31.06 13.94 30.76 19 26.66 21.88C27.28 22.34 28.02 23.12 28.42 23.76C32.88 20.38 33.42 14.62 33.58 8.84H36.48C36.34 17.02 36.12 20.24 35.56 20.9C35.34 21.2 35.14 21.28 34.82 21.28C34.34 21.28 33.4 21.28 32.36 21.2C32.78 21.9 33.06 22.96 33.1 23.66C34.18 23.68 35.28 23.7 36 23.56C36.76 23.42 37.26 23.16 37.78 22.36C38.56 21.28 38.74 17.8 38.92 7.8C38.94 7.48 38.94 6.6 38.94 6.6H28.28ZM46.1 15.46C46.18 14.62 46.22 13.78 46.24 13.02H54.26V15.46H46.1ZM54.26 8.32V10.76H46.24V8.32H54.26ZM56.78 6H43.78V12.58C43.78 15.62 43.5 19.44 40.48 22.02C41 22.36 41.96 23.24 42.32 23.74C44.18 22.18 45.18 20 45.7 17.76H54.26V20.66C54.26 21.08 54.1 21.24 53.62 21.24C53.18 21.24 51.5 21.26 50.1 21.18C50.48 21.84 50.96 22.98 51.1 23.68C53.16 23.68 54.56 23.64 55.52 23.22C56.44 22.82 56.78 22.14 56.78 20.7V6ZM71.956 22H76.044V17.688H81.476V15.616H76.044V13.796H81.476V11.724H76.94L83.548 1.336H78.788L76.268 6.376C75.288 8.42 74.924 9.232 74.112 10.744H73.972C73.216 9.232 72.852 8.504 71.816 6.376L69.268 1.336H64.424L71.004 11.724H66.496V13.796H71.956V15.616H66.496V17.688H71.956V22ZM90.296 22H102.756V18.668H98.864V1.252H95.812C94.496 2.092 93.068 2.624 90.996 3.016V5.564H94.748V18.668H90.296V22ZM112.216 22.392C116.052 22.392 119.468 19.732 119.468 15.112C119.468 10.604 116.556 8.532 113.084 8.532C112.132 8.532 111.432 8.728 110.592 9.12L110.984 4.724H118.516V1.252H107.428L106.868 11.332L108.744 12.564C109.948 11.78 110.62 11.472 111.852 11.472C113.952 11.472 115.352 12.816 115.352 15.224C115.352 17.66 113.84 19.032 111.684 19.032C109.752 19.032 108.296 18.08 107.12 16.932L105.216 19.564C106.756 21.104 108.94 22.392 112.216 22.392ZM129.237 22.392C133.465 22.392 136.237 18.696 136.237 11.556C136.237 4.416 133.465 0.888 129.237 0.888C125.009 0.888 122.209 4.388 122.209 11.556C122.209 18.696 125.009 22.392 129.237 22.392ZM129.237 19.172C127.445 19.172 126.101 17.38 126.101 11.556C126.101 5.76 127.445 4.08 129.237 4.08C131.029 4.08 132.345 5.76 132.345 11.556C132.345 17.38 131.029 19.172 129.237 19.172Z" fill="#DDAA00"/>
</svg>
