<svg width="194" height="169" viewBox="0 0 194 169" fill="none" xmlns="http://www.w3.org/2000/svg">
<path d="M152.985 69.6781C151.851 66.4264 148.181 64.3348 145.11 62.8728L121.995 51.8928C119.096 50.5128 111.39 46.8514 108.078 53.5963L101.88 65.7666L92.7635 47.7786C88.3818 38.8945 80.1921 42.8018 77.1086 44.2724L52.16 56.171C49.167 57.5984 45.5703 59.6987 44.3067 63.3213C43.5304 65.5811 43.7978 68.0738 45.1261 70.7692L56.8133 93.665L58.9696 92.5653L61.126 91.4699L61.0915 91.4052L101.061 69.5056L102.674 68.6862L103.028 68.8717L140.185 88.4597L144.498 90.6678L152.554 74.987V74.9525C152.983 74.1496 153.242 73.2673 153.316 72.36C153.391 71.4528 153.278 70.5401 152.985 69.6781Z" fill="white"/>
<path d="M107.612 70.2868L142.925 89.343C143.228 89.5075 143.481 89.7542 143.658 90.0563C143.835 90.3585 143.928 90.7046 143.928 91.0575C143.928 91.4104 143.835 91.7565 143.658 92.0587C143.481 92.3608 143.228 92.6075 142.925 92.772L102.895 114.372C102.64 114.51 102.358 114.585 102.07 114.591C101.782 114.598 101.496 114.535 101.236 114.408L58.7578 93.9376C58.4404 93.785 58.1707 93.5437 57.9795 93.241C57.7882 92.9384 57.683 92.5865 57.6757 92.2253C57.6684 91.8641 57.7593 91.508 57.9382 91.1974C58.1171 90.8867 58.3767 90.634 58.6877 90.4679L96.5281 70.2642C98.2416 69.3494 100.143 68.8739 102.073 68.8778C104.002 68.8817 105.902 69.365 107.612 70.2868Z" fill="url(#paint0_linear)"/>
<path d="M138.002 84.4967L109.22 69.9588C106.696 68.6857 103.909 68.0226 101.082 68.0226C98.2552 68.0226 95.4678 68.6857 92.944 69.9588L64.1442 84.4967C61.2491 85.9458 58.813 88.1701 57.1074 90.9219C55.4018 93.6738 54.4936 96.845 54.4839 100.083V126.265C54.4936 129.502 55.4018 132.673 57.1074 135.425C58.813 138.177 61.2491 140.401 64.1442 141.85L92.9267 156.393C95.4516 157.662 98.2385 158.324 101.065 158.324C103.891 158.324 106.678 157.662 109.203 156.393L137.985 141.85C140.884 140.404 143.323 138.18 145.032 135.428C146.741 132.676 147.651 129.504 147.663 126.265V100.083C147.653 96.845 146.745 93.6738 145.039 90.9219C143.334 88.1701 140.898 85.9458 138.002 84.4967ZM63.7517 88.3091L94.1817 72.4558C96.3556 71.3228 98.7679 70.7233 101.219 70.7068C103.671 70.6903 106.091 71.2573 108.28 72.3609L139.089 87.8864C139.313 88.0029 139.52 88.1236 139.745 88.2487C140.203 88.5237 140.578 88.9171 140.831 89.3873C141.084 89.8576 141.206 90.3874 141.183 90.921C141.161 91.4546 140.995 91.9723 140.703 92.4195C140.411 92.8668 140.004 93.2271 139.525 93.4627L107.93 109.182C105.763 110.259 103.373 110.812 100.953 110.797C98.533 110.782 96.1502 110.199 93.9963 109.096L63.769 93.605C63.2822 93.3557 62.8735 92.9773 62.5874 92.5111C62.3014 92.045 62.1492 91.5092 62.1474 90.9623C62.1456 90.4154 62.2944 89.8786 62.5773 89.4106C62.8603 88.9426 63.2666 88.5615 63.7517 88.3091Z" fill="white"/>
<rect width="5.42536" height="7.05296" transform="matrix(-0.959282 0.282451 0.282451 0.959282 191.625 30.5067)" fill="#FFCD4F"/>
<rect width="7.5955" height="7.05296" transform="matrix(-0.97679 -0.214198 -0.214198 0.97679 109.932 22.3713)" fill="#49DDE7"/>
<rect width="6.81555" height="5.07548" transform="matrix(-0.707107 0.707107 0.707107 0.707107 35.0464 0)" fill="#EC56CB"/>
<rect width="5.96789" height="7.05296" transform="matrix(0.126303 0.991992 0.991992 -0.126303 68.0552 50.3116)" fill="#EC56CB"/>
<circle r="4.61155" transform="matrix(-1 0 0 1 130.629 18.6446)" fill="#EC56CB"/>
<path d="M8.58696 30.6202L2.27452 36.9326L10.8975 39.2431L8.58696 30.6202Z" fill="#FFCD4F"/>
<path d="M175.015 14.5048L180.382 21.6387L183.877 13.4241L175.015 14.5048Z" fill="#49DDE7"/>
<path fill-rule="evenodd" clip-rule="evenodd" d="M88.0679 59.1828C88.1583 58.8094 88.2487 58.2493 88.6104 57.5025C90.0571 54.2351 93.041 54.6085 94.9398 51.3411C95.2111 50.8744 96.2057 49.1006 96.1153 46.8602C96.1153 46.2067 95.9344 45.6466 95.844 45.2731C95.7536 44.9931 95.5728 44.713 95.3919 44.433C94.4877 42.846 92.8602 42.2858 92.1368 42.0991C92.0464 43.5928 91.7751 45.7399 90.4188 47.5136C89.2434 49.0073 88.52 48.7272 87.1637 50.5009C85.5361 52.5547 84.5415 55.542 85.5361 56.9424C85.6266 57.0357 85.6266 57.1291 85.8074 57.2224C86.6212 58.156 87.435 58.8094 88.0679 59.1828Z" fill="#BA9219"/>
<path fill-rule="evenodd" clip-rule="evenodd" d="M82.0371 35.0196C82.0371 35.0196 80.1741 32.5744 85.0646 26.9853C88.9071 22.677 90.3043 11.3824 83.7837 8.93713C83.7837 8.93713 82.7358 18.6016 79.0097 22.0948C74.8179 25.9373 73.3042 31.41 73.8864 33.3894C73.8864 33.3894 75.2837 35.3689 77.8453 35.6018C80.5234 35.8347 82.0371 35.0196 82.0371 35.0196Z" fill="#BA9219"/>
<path fill-rule="evenodd" clip-rule="evenodd" d="M95.8933 45.8487C94.8453 38.1637 92.1672 35.2527 89.8384 34.0883C84.5986 31.2937 77.6123 35.3691 75.2835 32.2253C74.352 30.9444 74.5849 29.1978 74.8177 27.917C74.352 28.9649 73.4205 31.5266 73.8862 34.6705C74.0027 35.9513 74.5849 39.6774 77.263 41.7733C81.3383 44.8007 86.1124 40.8418 92.7494 43.9856C94.2631 44.6843 95.3111 45.3829 95.8933 45.8487Z" fill="#FFD43A"/>
<path fill-rule="evenodd" clip-rule="evenodd" d="M105.032 76.2666C106.03 65.9968 103.761 62.0185 101.493 60.3531C96.8659 56.9299 88.2464 59.798 85.9781 55.357C85.6152 54.6169 85.4443 53.9692 85.4443 53.6917C85.2629 54.3393 84.8343 55.327 84.8343 56.4372C84.7436 58.2877 85.2523 60.7232 85.7967 61.9259C87.702 66.2744 96.9566 62.8511 101.947 67.6622C103.308 69.1425 104.85 71.548 105.032 76.2666Z" fill="#FFD43A"/>
<path fill-rule="evenodd" clip-rule="evenodd" d="M68.7634 21.2799C66.9004 17.9031 65.0373 14.4099 63.1743 11.0332C63.6401 9.98524 65.8524 4.8619 71.4415 2.76599C72.4895 2.41667 75.6333 1.25228 79.0101 2.18379C83.9005 3.58107 87.5102 8.58796 88.2088 14.8757C87.1609 13.8277 84.9485 11.8483 81.6882 11.499C76.5649 10.9168 71.0922 14.7593 68.7634 21.2799Z" fill="#FFD43A"/>
<path fill-rule="evenodd" clip-rule="evenodd" d="M31.1657 50.8688C32.7795 47.752 34.4448 44.4931 36.0585 41.3763C39.5273 42.4573 43.8896 44.1794 48.8999 46.7758C48.8999 46.7758 52.8227 48.8225 56.403 51.148C63.2787 55.6972 73.6955 67.7783 83.3941 85.3848C76.4874 76.4876 64.2713 63.6019 45.3196 55.5334C40.4393 53.4653 35.5921 51.9713 31.1657 50.8688Z" fill="#49DDE7"/>
<path fill-rule="evenodd" clip-rule="evenodd" d="M175.196 51.479C173.582 48.3622 171.917 45.1033 170.303 41.9865C166.834 43.0675 162.472 44.7895 157.461 47.386C157.461 47.386 153.539 49.4326 149.958 51.7582C143.083 56.3074 132.666 68.3884 122.967 85.9949C129.874 77.0978 142.09 64.212 161.042 56.1436C165.922 54.0755 170.769 52.5814 175.196 51.479Z" fill="#49DDE7"/>
<defs>
<linearGradient id="paint0_linear" x1="131.581" y1="83.8123" x2="100.802" y2="114.592" gradientUnits="userSpaceOnUse">
<stop stop-color="#FFCE51"/>
<stop offset="1" stop-color="#D346B4"/>
</linearGradient>
</defs>
</svg>
