<svg width="22" height="22" viewBox="0 0 22 22" fill="none" xmlns="http://www.w3.org/2000/svg">
<path d="M21.5 9.52022C21.5 4.81638 16.7863 0.998199 11 0.998199C5.21368 0.998199 0.5 4.81638 0.5 9.52022C0.5 13.732 4.23946 17.255 9.27788 17.9242C9.6223 18.0029 10.0848 18.1505 10.2029 18.4457C10.3112 18.7114 10.2718 19.1247 10.2324 19.3904C10.2324 19.3904 10.1045 20.1285 10.0848 20.2859C10.0356 20.5516 9.87816 21.3192 10.9902 20.8567C12.112 20.3843 17.0323 17.2944 19.2366 14.7653C20.7718 13.0924 21.5 11.3998 21.5 9.52022Z" fill="white"/>
<path d="M18.0066 12.2265H15.0642C14.956 12.2265 14.8674 12.1379 14.8674 12.0297V7.45377C14.8674 7.34552 14.956 7.25696 15.0642 7.25696H18.0066C18.1149 7.25696 18.2034 7.34552 18.2034 7.45377V8.20166C18.2034 8.30991 18.1149 8.39848 18.0066 8.39848H15.9991V9.16605H18.0066C18.1149 9.16605 18.2034 9.25462 18.2034 9.36286V10.1108C18.2034 10.219 18.1149 10.3076 18.0066 10.3076H15.9991V11.085H18.0066C18.1149 11.085 18.2034 11.1735 18.2034 11.2818V12.0297C18.2034 12.1379 18.1149 12.2265 18.0066 12.2265Z" fill="#06C755"/>
<path d="M7.09335 12.2264C7.2016 12.2264 7.29017 12.1379 7.29017 12.0296V11.2817C7.29017 11.1735 7.2016 11.0849 7.09335 11.0849H5.08585V7.44385C5.08585 7.33561 4.99729 7.24704 4.88904 7.24704H4.14115C4.0329 7.24704 3.94434 7.33561 3.94434 7.44385V12.0198C3.94434 12.128 4.0329 12.2166 4.14115 12.2166H7.09335V12.2264Z" fill="#06C755"/>
<path d="M8.87439 7.2471H8.1265C8.01825 7.2471 7.92969 7.33567 7.92969 7.44391V12.0297C7.92969 12.1379 8.01825 12.2265 8.1265 12.2265H8.87439C8.98264 12.2265 9.07121 12.1379 9.07121 12.0297V7.44391C9.07121 7.33567 8.98264 7.2471 8.87439 7.2471Z" fill="#06C755"/>
<path d="M13.9423 7.2471H13.1944C13.0862 7.2471 12.9976 7.33567 12.9976 7.44391V10.1698L10.9015 7.33567C10.9015 7.32583 10.8917 7.32583 10.8819 7.31599L10.872 7.30614L10.8622 7.2963C10.8622 7.2963 10.8622 7.2963 10.8523 7.2963L10.8425 7.28646C10.8425 7.28646 10.8425 7.28646 10.8327 7.28646C10.8327 7.28646 10.8228 7.28646 10.8228 7.27662C10.8228 7.27662 10.8228 7.27662 10.813 7.27662C10.813 7.27662 10.8031 7.27662 10.8031 7.26678C10.8031 7.26678 10.8031 7.26678 10.7933 7.26678H10.7835C10.7835 7.26678 10.7835 7.26678 10.7736 7.26678H10.7638H10.7539H10.7441H10.7343C10.7343 7.26678 10.7343 7.26678 10.7244 7.26678H9.98636C9.87812 7.26678 9.78955 7.35535 9.78955 7.4636V12.0494C9.78955 12.1576 9.87812 12.2462 9.98636 12.2462H10.7343C10.8425 12.2462 10.9311 12.1576 10.9311 12.0494V9.31364L13.0271 12.1478C13.037 12.1674 13.0567 12.1871 13.0763 12.197L13.0862 12.2068C13.0862 12.2068 13.0862 12.2068 13.096 12.2068H13.1059H13.1157C13.1157 12.2068 13.1157 12.2068 13.1255 12.2068H13.1354C13.1551 12.2068 13.1649 12.2166 13.1846 12.2166H13.9226C14.0309 12.2166 14.1194 12.1281 14.1194 12.0198V7.44391C14.1391 7.33567 14.0506 7.2471 13.9423 7.2471Z" fill="#06C755"/>
</svg>
