<svg width="26" height="34" viewBox="0 0 26 34" fill="none" xmlns="http://www.w3.org/2000/svg">
<path d="M22.4987 11.6673H20.9154V8.50065C20.9154 4.13065 17.3687 0.583984 12.9987 0.583984C8.6287 0.583984 5.08203 4.13065 5.08203 8.50065V11.6673H3.4987C1.75703 11.6673 0.332031 13.0923 0.332031 14.834V30.6673C0.332031 32.409 1.75703 33.834 3.4987 33.834H22.4987C24.2404 33.834 25.6654 32.409 25.6654 30.6673V14.834C25.6654 13.0923 24.2404 11.6673 22.4987 11.6673ZM8.2487 8.50065C8.2487 5.87232 10.3704 3.75065 12.9987 3.75065C15.627 3.75065 17.7487 5.87232 17.7487 8.50065V11.6673H8.2487V8.50065ZM22.4987 30.6673H3.4987V14.834H22.4987V30.6673ZM12.9987 25.9173C14.7404 25.9173 16.1654 24.4923 16.1654 22.7507C16.1654 21.009 14.7404 19.584 12.9987 19.584C11.257 19.584 9.83203 21.009 9.83203 22.7507C9.83203 24.4923 11.257 25.9173 12.9987 25.9173Z" fill="#767676"/>
</svg>
