<svg width="20" height="27" viewBox="0 0 20 27" fill="none" xmlns="http://www.w3.org/2000/svg">
<path d="M17.4991 8.79004H16.2491V6.29004C16.2491 2.84004 13.4491 0.0400391 9.99915 0.0400391C6.54915 0.0400391 3.74915 2.84004 3.74915 6.29004V8.79004H2.49915C1.12415 8.79004 -0.000854492 9.91504 -0.000854492 11.29V23.79C-0.000854492 25.165 1.12415 26.29 2.49915 26.29H17.4991C18.8741 26.29 19.9991 25.165 19.9991 23.79V11.29C19.9991 9.91504 18.8741 8.79004 17.4991 8.79004ZM6.24915 6.29004C6.24915 4.21504 7.92415 2.54004 9.99915 2.54004C12.0741 2.54004 13.7491 4.21504 13.7491 6.29004V8.79004H6.24915V6.29004ZM17.4991 23.79H2.49915V11.29H17.4991V23.79ZM9.99915 20.04C11.3741 20.04 12.4991 18.915 12.4991 17.54C12.4991 16.165 11.3741 15.04 9.99915 15.04C8.62415 15.04 7.49915 16.165 7.49915 17.54C7.49915 18.915 8.62415 20.04 9.99915 20.04Z" fill="#E0E0E0"/>
</svg>
