<svg width="312" height="106" viewBox="0 0 312 106" fill="none" xmlns="http://www.w3.org/2000/svg">
<path d="M260.448 24.7418C242.889 23.0969 230.209 29.1292 230.209 52.2491V80.4655H242.889V52.2491C243.316 42.1304 246.265 36.0002 260.448 37.3056V24.7418Z" fill="black"/>
<path d="M276.252 15.6568C280.319 15.6568 283.615 12.2898 283.615 8.1364C283.615 3.98298 280.319 0.615967 276.252 0.615967C272.185 0.615967 268.888 3.98298 268.888 8.1364C268.888 12.2898 272.185 15.6568 276.252 15.6568Z" fill="black"/>
<path d="M12.7498 105.643H0.146912V25.8985H12.7498V31.8581C17.706 26.8918 23.3702 24.3376 29.6009 24.3376C37.106 24.3376 43.3366 27.1755 48.1512 32.7095C53.1074 38.2434 55.5147 45.1962 55.5147 53.568C55.5147 61.7979 53.1074 68.6089 48.1512 74.0009C43.3366 79.3929 37.106 82.0889 29.7425 82.0889C23.3702 82.0889 17.706 79.5348 12.6082 74.4266V105.643H12.7498ZM42.7702 53.568C42.7702 48.3179 41.3541 44.0611 38.522 40.7975C35.6899 37.5339 32.0082 35.8311 27.6184 35.8311C22.9454 35.8311 19.2637 37.392 16.4316 40.6556C13.5994 43.9192 12.1834 48.0341 12.1834 53.2842C12.1834 58.3924 13.5994 62.6493 16.4316 65.9129C19.2637 69.1765 22.9454 70.7373 27.6184 70.7373C32.0082 70.7373 35.5483 69.0346 38.3804 65.771C41.2125 62.6493 42.7702 58.5343 42.7702 53.568Z" fill="black"/>
<path d="M108.192 25.8985H120.795V80.5281H108.192V74.8523C102.953 79.6767 97.4301 82.0889 91.4826 82.0889C83.9775 82.0889 77.7469 79.3929 72.7907 73.859C67.8345 68.3251 65.4272 61.3722 65.4272 53.0004C65.4272 44.7705 67.8345 37.9596 72.7907 32.5676C77.7469 27.1755 83.8359 24.3376 91.1994 24.3376C97.5717 24.3376 103.236 26.8918 108.334 32.1419V25.8985H108.192ZM78.3133 53.1423C78.3133 58.3924 79.7294 62.6493 82.5615 65.9129C85.3936 69.1765 89.0753 70.8792 93.4651 70.8792C98.1381 70.8792 101.961 69.3184 104.794 66.0548C107.626 62.7912 109.042 58.5343 109.042 53.4261C109.042 48.3179 107.626 44.0611 104.794 40.7975C101.961 37.5339 98.1381 35.973 93.6067 35.973C89.2169 35.973 85.6768 37.6758 82.7031 40.9394C79.7294 44.0611 78.3133 48.176 78.3133 53.1423Z" fill="black"/>
<path d="M136.453 25.8992H149.056V31.0074C153.445 26.6086 158.402 24.4802 163.924 24.4802C170.297 24.4802 175.253 26.4668 178.793 30.4398C181.908 33.8453 183.324 39.3792 183.324 47.0415V80.5287H170.721V50.0213C170.721 44.6293 170.013 40.94 168.456 38.8116C167.04 36.6832 164.349 35.6899 160.526 35.6899C156.278 35.6899 153.445 37.1089 151.605 39.8049C149.905 42.5009 149.056 47.3253 149.056 54.1363V80.5287H136.453V25.8992Z" fill="black"/>
<path d="M212.399 36.5368V80.5242H199.796V36.5368H194.415V24.7595H199.796V11.5632H212.399V24.7595H222.169V36.5368H212.399Z" fill="black"/>
<path d="M283.134 24.3611H269.227V80.6673H283.134V24.3611Z" fill="black"/>
<path d="M310.609 24.3611H297.042V80.6673H310.609V24.3611Z" fill="black"/>
<path d="M304.405 15.6568C308.472 15.6568 311.768 12.2898 311.768 8.1364C311.768 3.98298 308.472 0.615967 304.405 0.615967C300.338 0.615967 297.042 3.98298 297.042 8.1364C297.042 12.2898 300.338 15.6568 304.405 15.6568Z" fill="black"/>
</svg>
