<svg width="415" height="752" viewBox="0 0 415 752" fill="none" xmlns="http://www.w3.org/2000/svg">
<g opacity="0.4">
<rect width="7.86774" height="9.28536" transform="matrix(0.967255 0.253808 -0.313713 0.949518 74.4043 100.809)" fill="#EC56CB"/>
<rect width="11.0538" height="9.24532" transform="matrix(0.981435 -0.191798 0.238936 0.971035 111.949 136.863)" fill="#EC56CB"/>
<rect width="9.43928" height="7.02935" transform="matrix(0.746558 0.665321 -0.746558 0.665321 20.4141 109.293)" fill="#FFCD4F"/>
<rect width="7.79293" height="10.2961" transform="matrix(-0.141433 0.989948 -0.993624 -0.112745 88.377 172.669)" fill="#49DDE7"/>
<ellipse cx="148.839" cy="79.9528" rx="6.74316" ry="6.0094" fill="#49DDE7"/>
<path d="M61.3187 115.979L70.549 124.205L57.9402 127.216L61.3187 115.979Z" fill="#49DDE7"/>
<path d="M158.917 160.013L151.07 169.31L145.96 158.605L158.917 160.013Z" fill="#FFCD4F"/>
<rect width="7.86774" height="9.28536" transform="matrix(0.967255 0.253808 -0.313713 0.949518 203.768 526.173)" fill="#EC56CB"/>
<rect width="11.0538" height="9.24532" transform="matrix(0.981435 -0.191798 0.238936 0.971035 241.312 562.229)" fill="#EC56CB"/>
<rect width="9.43928" height="7.02935" transform="matrix(0.746558 0.665321 -0.746558 0.665321 149.777 534.657)" fill="#FFCD4F"/>
<rect width="7.79293" height="10.2961" transform="matrix(-0.141433 0.989948 -0.993624 -0.112745 217.74 598.033)" fill="#49DDE7"/>
<ellipse cx="278.202" cy="505.317" rx="6.74316" ry="6.0094" fill="#49DDE7"/>
<path d="M190.682 541.344L199.912 549.57L187.304 552.58L190.682 541.344Z" fill="#49DDE7"/>
<path d="M288.281 585.379L280.433 594.675L275.323 583.97L288.281 585.379Z" fill="#FFCD4F"/>
<rect width="7.86774" height="9.28536" transform="matrix(0.967255 0.253808 -0.313713 0.949518 351.965 283.771)" fill="#FFCD4F"/>
<rect width="11.0538" height="9.24532" transform="matrix(0.981435 -0.191798 0.238936 0.971035 316.525 240.644)" fill="#EC56CB"/>
<rect width="9.43928" height="7.02935" transform="matrix(0.746558 0.665321 -0.746558 0.665321 334.467 249.836)" fill="#FFCD4F"/>
<rect width="7.79293" height="10.2961" transform="matrix(-0.141433 0.989948 -0.993624 -0.112745 407.984 246.755)" fill="#FFCD4F"/>
<ellipse cx="357.382" cy="329.372" rx="6.74316" ry="6.0094" fill="#EC56CB"/>
<path d="M389.651 280.56L398.881 288.786L386.272 291.797L389.651 280.56Z" fill="#EC56CB"/>
<path d="M310.339 289.952L302.492 299.248L297.382 288.544L310.339 289.952Z" fill="#49DDE7"/>
<rect width="7.86774" height="9.28536" transform="matrix(0.967255 0.253808 -0.313713 0.949518 280.592 700.392)" fill="#FFCD4F"/>
<rect width="11.0538" height="9.24532" transform="matrix(0.981435 -0.191798 0.238936 0.971035 245.152 657.264)" fill="#EC56CB"/>
<rect width="9.43928" height="7.02935" transform="matrix(0.746558 0.665321 -0.746558 0.665321 263.094 666.456)" fill="#FFCD4F"/>
<rect width="7.79293" height="10.2961" transform="matrix(-0.141433 0.989948 -0.993624 -0.112745 336.611 663.375)" fill="#FFCD4F"/>
<ellipse cx="286.009" cy="745.992" rx="6.74316" ry="6.0094" fill="#EC56CB"/>
<path d="M318.278 697.181L327.508 705.406L314.899 708.417L318.278 697.181Z" fill="#EC56CB"/>
<path d="M238.966 706.572L231.119 715.868L226.009 705.164L238.966 706.572Z" fill="#49DDE7"/>
<rect width="7.86774" height="9.28536" transform="matrix(0.967255 0.253808 -0.313713 0.949518 320.738 406.213)" fill="#FFCD4F"/>
<rect width="11.0538" height="9.24532" transform="matrix(0.981435 -0.191798 0.238936 0.971035 285.299 363.085)" fill="#EC56CB"/>
<rect width="9.43928" height="7.02935" transform="matrix(0.746558 0.665321 -0.746558 0.665321 303.24 372.277)" fill="#FFCD4F"/>
<rect width="7.79293" height="10.2961" transform="matrix(-0.141433 0.989948 -0.993624 -0.112745 376.758 369.196)" fill="#FFCD4F"/>
<ellipse cx="326.155" cy="451.813" rx="6.74316" ry="6.0094" fill="#EC56CB"/>
<path d="M358.424 403.002L367.654 411.228L355.046 414.239L358.424 403.002Z" fill="#EC56CB"/>
<path d="M279.113 412.393L271.265 421.69L266.155 410.985L279.113 412.393Z" fill="#49DDE7"/>
<rect width="7.86774" height="9.28536" transform="matrix(0.967255 0.253808 -0.313713 0.949518 58.4453 581.129)" fill="#FFCD4F"/>
<rect width="11.0538" height="9.24532" transform="matrix(0.981435 -0.191798 0.238936 0.971035 23.0059 538.002)" fill="#EC56CB"/>
<rect width="9.43928" height="7.02935" transform="matrix(0.746558 0.665321 -0.746558 0.665321 40.9473 547.194)" fill="#FFCD4F"/>
<rect width="7.79293" height="10.2961" transform="matrix(-0.141433 0.989948 -0.993624 -0.112745 114.465 544.113)" fill="#FFCD4F"/>
<ellipse cx="63.8623" cy="626.73" rx="6.74316" ry="6.0094" fill="#EC56CB"/>
<path d="M96.1312 577.919L105.361 586.145L92.7527 589.156L96.1312 577.919Z" fill="#EC56CB"/>
<path d="M16.8196 587.309L8.97237 596.606L3.86203 585.901L16.8196 587.309Z" fill="#49DDE7"/>
<rect width="7.86774" height="9.28536" transform="matrix(0.967255 0.253808 -0.313713 0.949518 22.541 440.427)" fill="#FFCD4F"/>
<rect width="11.0538" height="9.24532" transform="matrix(0.981435 -0.191798 0.238936 0.971035 56.9141 360.536)" fill="#49DDE7"/>
<rect width="9.43928" height="7.02935" transform="matrix(0.746558 0.665321 -0.746558 0.665321 130.387 318.825)" fill="#EC56CB"/>
<rect width="7.79293" height="10.2961" transform="matrix(-0.141433 0.989948 -0.993624 -0.112745 102.359 422.5)" fill="#EC56CB"/>
<ellipse cx="36.6846" cy="363.719" rx="6.74316" ry="6.0094" fill="#EC56CB"/>
<path d="M98.307 384.193L107.537 392.419L94.9285 395.43L98.307 384.193Z" fill="#FFCD4F"/>
<path d="M46.759 443.78L38.9118 453.076L33.8015 442.372L46.759 443.78Z" fill="#49DDE7"/>
<rect width="7.86774" height="9.28536" transform="matrix(-0.967255 0.253808 0.313713 0.949518 390.57 183.618)" fill="#FFCD4F"/>
<rect width="11.0538" height="9.24532" transform="matrix(-0.981435 -0.191798 -0.238936 0.971035 356.197 103.728)" fill="#49DDE7"/>
<rect width="9.43928" height="7.02935" transform="matrix(-0.746558 0.665321 0.746558 0.665321 282.725 62.0166)" fill="#EC56CB"/>
<rect width="7.79293" height="10.2961" transform="matrix(0.141433 0.989948 0.993624 -0.112745 310.752 165.691)" fill="#EC56CB"/>
<ellipse rx="6.74316" ry="6.0094" transform="matrix(-1 0 0 1 376.427 106.911)" fill="#EC56CB"/>
<path d="M314.804 127.385L305.574 135.611L318.183 138.621L314.804 127.385Z" fill="#FFCD4F"/>
<path d="M366.352 186.971L374.2 196.268L379.31 185.563L366.352 186.971Z" fill="#49DDE7"/>
<rect width="7.86774" height="9.28536" transform="matrix(0.967255 0.253808 -0.313713 0.949518 156.363 702.802)" fill="#FFCD4F"/>
<rect width="11.0538" height="9.24532" transform="matrix(0.981435 -0.191798 0.238936 0.971035 190.736 622.911)" fill="#49DDE7"/>
<rect width="9.43928" height="7.02935" transform="matrix(0.746558 0.665321 -0.746558 0.665321 264.209 581.2)" fill="#EC56CB"/>
<rect width="7.79293" height="10.2961" transform="matrix(-0.141433 0.989948 -0.993624 -0.112745 236.182 684.875)" fill="#EC56CB"/>
<ellipse cx="170.507" cy="626.094" rx="6.74316" ry="6.0094" fill="#EC56CB"/>
<path d="M232.129 646.568L241.36 654.794L228.751 657.805L232.129 646.568Z" fill="#FFCD4F"/>
<path d="M180.581 706.155L172.734 715.451L167.624 704.747L180.581 706.155Z" fill="#49DDE7"/>
<rect width="7.86774" height="9.28536" transform="matrix(0.967255 0.253808 -0.313713 0.949518 55.5508 290.954)" fill="#FFCD4F"/>
<rect width="11.0538" height="9.24532" transform="matrix(0.981435 -0.191798 0.238936 0.971035 89.9238 211.063)" fill="#49DDE7"/>
<rect width="9.43928" height="7.02935" transform="matrix(0.746558 0.665321 -0.746558 0.665321 163.396 169.353)" fill="#EC56CB"/>
<rect width="7.79293" height="10.2961" transform="matrix(-0.141433 0.989948 -0.993624 -0.112745 135.369 273.027)" fill="#EC56CB"/>
<ellipse cx="69.6943" cy="214.247" rx="6.74316" ry="6.0094" fill="#EC56CB"/>
<path d="M131.317 234.721L140.547 242.947L127.938 245.957L131.317 234.721Z" fill="#FFCD4F"/>
<path d="M79.7688 294.307L71.9216 303.604L66.8113 292.899L79.7688 294.307Z" fill="#49DDE7"/>
<rect width="7.86774" height="9.28536" transform="matrix(0.967255 0.253808 -0.313713 0.949518 299.109 647.147)" fill="#FFCD4F"/>
<rect width="11.0538" height="9.24532" transform="matrix(0.981435 -0.191798 0.238936 0.971035 333.482 567.257)" fill="#49DDE7"/>
<rect width="9.43928" height="7.02935" transform="matrix(0.746558 0.665321 -0.746558 0.665321 406.955 525.546)" fill="#EC56CB"/>
<rect width="7.79293" height="10.2961" transform="matrix(-0.141433 0.989948 -0.993624 -0.112745 378.928 629.221)" fill="#EC56CB"/>
<ellipse cx="313.253" cy="570.44" rx="6.74316" ry="6.0094" fill="#EC56CB"/>
<path d="M374.875 590.914L384.106 599.14L371.497 602.151L374.875 590.914Z" fill="#FFCD4F"/>
<path d="M323.327 650.501L315.48 659.797L310.37 649.092L323.327 650.501Z" fill="#49DDE7"/>
</g>
<path d="M260.763 59.9389C259.668 57.1417 256.125 55.3424 253.161 54.0848L230.849 44.6396C228.051 43.4525 220.613 40.3029 217.416 46.105L211.434 56.5741L202.634 41.1005C198.404 33.4583 190.499 36.8194 187.523 38.0844L163.441 48.3198C160.552 49.5477 157.08 51.3544 155.861 54.4706C155.111 56.4146 155.369 58.5588 156.651 60.8775L167.933 80.5729L170.014 79.6269L172.095 78.6846L172.062 78.6289L210.643 59.7905L212.2 59.0856L212.541 59.2452L248.407 76.0951L252.57 77.9945L260.346 64.5057V64.476C260.76 63.7853 261.011 63.0263 261.082 62.2459C261.154 61.4655 261.045 60.6803 260.763 59.9389Z" fill="white"/>
<path d="M216.967 60.462L251.054 76.8545C251.346 76.9961 251.59 77.2083 251.761 77.4682C251.931 77.7281 252.021 78.0259 252.021 78.3294C252.021 78.6329 251.931 78.9307 251.761 79.1906C251.59 79.4505 251.346 79.6627 251.054 79.8043L212.414 98.3848C212.168 98.5036 211.895 98.5682 211.617 98.5736C211.339 98.579 211.064 98.525 210.812 98.4158L169.811 80.8069C169.504 80.6756 169.244 80.468 169.059 80.2077C168.875 79.9474 168.773 79.6447 168.766 79.3339C168.759 79.0232 168.847 78.7169 169.019 78.4497C169.192 78.1825 169.443 77.9651 169.743 77.8222L206.268 60.4426C207.922 59.6557 209.758 59.2466 211.62 59.25C213.483 59.2534 215.316 59.6691 216.967 60.462Z" fill="url(#paint0_linear_16806_27144)"/>
<path d="M246.304 72.685L218.522 60.1793C216.085 59.0842 213.395 58.5137 210.666 58.5137C207.938 58.5137 205.247 59.0842 202.811 60.1793L175.012 72.685C172.218 73.9316 169.866 75.845 168.22 78.2121C166.574 80.5793 165.697 83.3073 165.688 86.0923V108.615C165.697 111.4 166.574 114.128 168.22 116.495C169.866 118.862 172.218 120.775 175.012 122.022L202.795 134.531C205.232 135.624 207.922 136.192 210.65 136.192C213.378 136.192 216.068 135.624 218.505 134.531L246.287 122.022C249.085 120.777 251.44 118.865 253.089 116.497C254.739 114.13 255.618 111.401 255.629 108.615V86.0923C255.619 83.3073 254.743 80.5793 253.096 78.2121C251.45 75.845 249.098 73.9316 246.304 72.685V72.685ZM174.633 75.9645L204.006 62.3272C206.104 61.3526 208.433 60.8369 210.799 60.8227C213.165 60.8085 215.501 61.2963 217.614 62.2456L247.353 75.6009C247.569 75.7011 247.769 75.805 247.986 75.9126C248.428 76.1492 248.79 76.4875 249.034 76.892C249.278 77.2966 249.396 77.7523 249.374 78.2113C249.353 78.6703 249.192 79.1156 248.911 79.5004C248.629 79.8852 248.236 80.1951 247.773 80.3977L217.277 93.92C215.185 94.8461 212.878 95.3218 210.542 95.3089C208.206 95.296 205.906 94.7949 203.827 93.8458L174.65 80.5201C174.18 80.3057 173.786 79.9802 173.509 79.5792C173.233 79.1782 173.086 78.7173 173.085 78.2468C173.083 77.7764 173.227 77.3146 173.5 76.912C173.773 76.5095 174.165 76.1817 174.633 75.9645V75.9645Z" fill="white"/>
<rect width="5.19367" height="6.12948" transform="matrix(-0.967255 0.253808 0.313713 0.949518 298.059 26.2422)" fill="#FFCD4F"/>
<rect width="7.29688" height="6.10305" transform="matrix(-0.981435 -0.191798 -0.238936 0.971035 219.207 19.2441)" fill="#49DDE7"/>
<rect width="6.23108" height="4.64023" transform="matrix(-0.746558 0.665321 0.746558 0.665321 146.924 0)" fill="#EC56CB"/>
<rect width="5.14429" height="6.79671" transform="matrix(0.141433 0.989948 0.993624 -0.112745 178.785 43.2783)" fill="#EC56CB"/>
<ellipse rx="4.45131" ry="3.96694" transform="matrix(-1 0 0 1 239.183 16.0382)" fill="#EC56CB"/>
<path d="M121.382 26.3408L115.289 31.7708L123.612 33.7584L121.382 26.3408Z" fill="#FFCD4F"/>
<path d="M282.027 12.4772L287.207 18.614L290.581 11.5476L282.027 12.4772Z" fill="#49DDE7"/>
<path fill-rule="evenodd" clip-rule="evenodd" d="M198.101 50.9106C198.188 50.5894 198.275 50.1075 198.625 49.4651C200.021 46.6544 202.901 46.9757 204.734 44.165C204.996 43.7635 205.956 42.2377 205.869 40.3104C205.869 39.7482 205.694 39.2664 205.607 38.9452C205.52 38.7043 205.345 38.4634 205.17 38.2225C204.298 36.8573 202.727 36.3755 202.028 36.2148C201.941 37.4997 201.679 39.3467 200.37 40.8725C199.235 42.1574 198.537 41.9165 197.228 43.4423C195.657 45.2089 194.697 47.7787 195.657 48.9833C195.744 49.0636 195.744 49.1439 195.919 49.2242C196.704 50.0272 197.49 50.5894 198.101 50.9106Z" fill="#BA9219"/>
<path fill-rule="evenodd" clip-rule="evenodd" d="M192.278 30.1251C192.278 30.1251 190.48 28.0216 195.2 23.2138C198.909 19.5078 200.258 9.79191 193.964 7.68848C193.964 7.68848 192.952 16.002 189.356 19.0069C185.31 22.3123 183.849 27.02 184.411 28.7228C184.411 28.7228 185.759 30.4256 188.232 30.6259C190.817 30.8262 192.278 30.1251 192.278 30.1251Z" fill="#BA9219"/>
<path fill-rule="evenodd" clip-rule="evenodd" d="M205.652 39.4388C204.64 32.828 202.055 30.324 199.808 29.3223C194.75 26.9184 188.006 30.4241 185.758 27.7197C184.859 26.6179 185.084 25.1155 185.309 24.0137C184.859 24.9151 183.96 27.1187 184.41 29.8231C184.522 30.9249 185.084 34.1302 187.669 35.9331C191.603 38.5374 196.211 35.1318 202.617 37.8362C204.078 38.4372 205.09 39.0382 205.652 39.4388Z" fill="#FFD43A"/>
<path fill-rule="evenodd" clip-rule="evenodd" d="M214.473 65.6059C215.436 56.7717 213.246 53.3494 211.057 51.9168C206.591 48.9721 198.271 51.4393 196.081 47.6191C195.731 46.9824 195.566 46.4253 195.566 46.1865C195.391 46.7436 194.977 47.5933 194.977 48.5483C194.889 50.1401 195.38 52.2352 195.906 53.2698C197.745 57.0104 206.678 54.0657 211.495 58.2042C212.809 59.4776 214.297 61.5469 214.473 65.6059Z" fill="#FFD43A"/>
<path fill-rule="evenodd" clip-rule="evenodd" d="M179.465 18.3061C177.667 15.4014 175.869 12.3965 174.07 9.49173C174.52 8.59026 176.655 4.18307 182.05 2.38013C183.062 2.07964 186.096 1.078 189.356 1.87931C194.076 3.08127 197.561 7.38829 198.235 12.7971C197.223 11.8956 195.088 10.1929 191.941 9.89238C186.996 9.39156 181.713 12.697 179.465 18.3061Z" fill="#FFD43A"/>
<path fill-rule="evenodd" clip-rule="evenodd" d="M143.175 43.7574C144.733 41.0763 146.34 38.2729 147.898 35.5917C151.246 36.5216 155.457 38.003 160.293 40.2365C160.293 40.2365 164.079 41.9971 167.535 43.9975C174.172 47.9108 184.227 58.3032 193.589 73.4486C186.922 65.7951 175.13 54.7106 156.837 47.7699C152.126 45.9909 147.447 44.7057 143.175 43.7574Z" fill="#49DDE7"/>
<path fill-rule="evenodd" clip-rule="evenodd" d="M282.2 44.2828C280.642 41.6016 279.035 38.7982 277.477 36.1171C274.129 37.047 269.918 38.5284 265.082 40.7619C265.082 40.7619 261.296 42.5224 257.84 44.5229C251.203 48.4362 241.148 58.8286 231.786 73.974C238.453 66.3205 250.245 55.236 268.538 48.2953C273.249 46.5163 277.928 45.2311 282.2 44.2828Z" fill="#49DDE7"/>
<defs>
<linearGradient id="paint0_linear_16806_27144" x1="240.103" y1="72.097" x2="213.801" y2="101.611" gradientUnits="userSpaceOnUse">
<stop stop-color="#FFCE51"/>
<stop offset="1" stop-color="#D346B4"/>
</linearGradient>
</defs>
</svg>
