<svg width="129" height="180" viewBox="0 0 129 180" fill="none" xmlns="http://www.w3.org/2000/svg">
<path d="M105.297 92.0686C104.421 89.5587 101.589 87.9443 99.2187 86.8158L81.3767 78.3409C79.1398 77.2757 73.1914 74.4496 70.635 79.6557L65.8516 89.0494L58.8147 75.1653C55.4327 68.3081 49.1114 71.324 46.7314 72.4591L27.4748 81.643C25.1646 82.7448 22.3885 84.3659 21.4132 87.162C20.814 88.9063 21.0204 90.8303 22.0456 92.9107L31.0664 110.583L32.7308 109.734L34.3952 108.889L34.3685 108.839L65.2191 91.9354L66.4641 91.3029L66.737 91.4461L95.4173 106.565L98.746 108.269L104.964 96.1662V96.1396C105.295 95.5199 105.495 94.8388 105.553 94.1386C105.61 93.4384 105.523 92.7338 105.297 92.0686Z" fill="white"/>
<path d="M93.7321 103.507L71.5162 92.2855C69.5682 91.3029 67.4167 90.791 65.2349 90.791C63.0531 90.791 60.9017 91.3029 58.9536 92.2855L36.7244 103.507C34.4898 104.625 32.6095 106.342 31.293 108.466C29.9766 110.59 29.2755 113.038 29.2681 115.537V135.745C29.2755 138.244 29.9766 140.692 31.293 142.816C32.6095 144.94 34.4898 146.657 36.7244 147.775L58.9403 159C60.8891 159.98 63.0402 160.49 65.2216 160.49C67.403 160.49 69.5541 159.98 71.5029 159L93.7188 147.775C95.9559 146.659 97.8389 144.943 99.1578 142.818C100.477 140.694 101.18 138.246 101.188 135.745V115.537C101.181 113.038 100.48 110.59 99.1635 108.466C97.847 106.342 95.9667 104.625 93.7321 103.507ZM36.4215 106.449L59.909 94.2128C61.5869 93.3383 63.4488 92.8756 65.3409 92.8629C67.233 92.8501 69.101 93.2878 70.7905 94.1396L94.5709 106.123C94.744 106.213 94.9038 106.306 95.0769 106.403C95.4303 106.615 95.7199 106.919 95.9153 107.281C96.1106 107.644 96.2046 108.053 96.1872 108.465C96.1698 108.877 96.0418 109.277 95.8165 109.622C95.5913 109.967 95.2771 110.245 94.9071 110.427L70.5209 122.56C68.848 123.391 67.0034 123.818 65.1354 123.806C63.2675 123.795 61.4284 123.345 59.7658 122.494L36.4348 110.537C36.0591 110.344 35.7436 110.052 35.5228 109.693C35.302 109.333 35.1845 108.919 35.1832 108.497C35.1818 108.075 35.2966 107.661 35.515 107.299C35.7334 106.938 36.047 106.644 36.4215 106.449Z" fill="white"/>
<g clip-path="url(#clip0_18323_38850)">
<path d="M83.5357 12.5828C85.5717 11.4846 88.1453 11.2681 90.4266 12.1173C94.4648 13.6206 96.4904 17.8839 95.0301 21.8066C93.2393 26.6169 87.3295 28.8803 78.3755 32.3096L78.3534 32.3181L75.8264 33.2915L74.5464 30.9153L74.5117 30.8504C69.9978 22.4127 67.0202 16.8467 68.8078 12.0448C70.2681 8.12215 74.5884 6.22121 78.6266 7.72453C80.908 8.5738 82.7135 10.4205 83.5357 12.5828Z" fill="white"/>
</g>
<g clip-path="url(#clip1_18323_38850)">
<path d="M49.7557 36.1478C48.3136 35.424 46.5147 35.326 44.9415 35.9651C42.1569 37.0963 40.8323 40.1105 41.9312 42.8155C43.2787 46.1326 47.4458 47.5892 53.7595 49.796L53.7751 49.8015L55.557 50.4282L56.4006 48.7451L56.4235 48.6991C59.3971 42.7232 61.3587 38.7811 60.0136 35.4698C58.9147 32.7648 55.8633 31.5282 53.0786 32.6595C51.5054 33.2986 50.2846 34.6233 49.7557 36.1478Z" fill="white"/>
</g>
<defs>
<clipPath id="clip0_18323_38850">
<rect width="33.5763" height="32.5271" fill="white" transform="translate(70.3062) rotate(20.4189)"/>
</clipPath>
<clipPath id="clip1_18323_38850">
<rect width="23.421" height="22.6891" fill="white" transform="matrix(-0.926471 0.376367 0.376367 0.926471 58.7212 27.1023)"/>
</clipPath>
</defs>
</svg>
