<svg width="276" height="265" viewBox="0 0 276 265" fill="none" xmlns="http://www.w3.org/2000/svg">
<path d="M217.214 124.402C215.6 119.772 210.374 116.793 206.002 114.712L173.089 99.0782C168.963 97.1133 157.99 91.9 153.274 101.504L144.45 118.832L131.469 93.2202C125.23 80.5709 113.57 86.1341 109.179 88.228L73.6565 105.17C69.395 107.202 64.2739 110.192 62.4747 115.35C61.3694 118.568 61.7501 122.117 63.6414 125.955L80.2821 158.555L83.3523 156.989L86.4225 155.429L86.3734 155.337L143.283 124.156L145.58 122.989L146.083 123.253L198.99 151.143L205.13 154.287L216.6 131.96V131.911C217.211 130.768 217.58 129.512 217.686 128.22C217.792 126.928 217.631 125.629 217.214 124.402Z" fill="white"/>
<path d="M152.612 125.267L202.893 152.4C203.323 152.634 203.684 152.985 203.936 153.415C204.187 153.846 204.32 154.338 204.32 154.841C204.32 155.343 204.187 155.836 203.936 156.266C203.684 156.697 203.323 157.048 202.893 157.282L145.897 188.036C145.533 188.233 145.131 188.34 144.721 188.349C144.311 188.358 143.904 188.269 143.533 188.088L83.052 158.942C82.6001 158.724 82.2162 158.381 81.9439 157.95C81.6716 157.519 81.5217 157.018 81.5113 156.504C81.5009 155.989 81.6304 155.482 81.8851 155.04C82.1398 154.598 82.5095 154.238 82.9523 154.001L136.831 125.235C139.27 123.932 141.978 123.255 144.725 123.261C147.472 123.266 150.177 123.954 152.612 125.267Z" fill="url(#paint0_linear_14367_11812)"/>
<path d="M195.883 145.501L154.902 124.802C151.308 122.989 147.339 122.045 143.315 122.045C139.29 122.045 135.321 122.989 131.727 124.802L90.7214 145.501C86.5993 147.565 83.1308 150.732 80.7023 154.65C78.2738 158.568 76.9806 163.083 76.9668 167.693V204.972C76.9806 209.581 78.2738 214.097 80.7023 218.015C83.1308 221.933 86.5993 225.1 90.7214 227.163L131.703 247.869C135.298 249.677 139.266 250.619 143.29 250.619C147.314 250.619 151.282 249.677 154.877 247.869L195.859 227.163C199.985 225.104 203.459 221.938 205.892 218.02C208.325 214.101 209.622 209.584 209.638 204.972V167.693C209.624 163.083 208.331 158.568 205.902 154.65C203.474 150.732 200.005 147.565 195.883 145.501ZM90.1627 150.929L133.49 128.357C136.585 126.744 140.02 125.89 143.51 125.867C147 125.843 150.446 126.651 153.563 128.222L197.43 150.328C197.75 150.494 198.045 150.665 198.364 150.844C199.016 151.235 199.55 151.795 199.91 152.465C200.271 153.134 200.444 153.889 200.412 154.648C200.38 155.408 200.144 156.145 199.728 156.782C199.313 157.419 198.733 157.932 198.051 158.267L153.066 180.649C149.98 182.182 146.577 182.97 143.131 182.948C139.685 182.927 136.293 182.097 133.226 180.527L90.1872 158.47C89.4942 158.115 88.9121 157.576 88.5049 156.913C88.0976 156.249 87.8809 155.486 87.8783 154.707C87.8758 153.929 88.0876 153.164 88.4905 152.498C88.8934 151.832 89.4719 151.289 90.1627 150.929Z" fill="white"/>
<rect width="7.72479" height="10.0422" transform="matrix(-0.959282 0.282451 0.282451 0.959282 272.232 68.6289)" fill="#FFCD4F"/>
<rect width="10.8147" height="10.0422" transform="matrix(-0.97679 -0.214198 -0.214198 0.97679 155.915 57.0449)" fill="#49DDE7"/>
<rect width="9.70419" height="7.22663" transform="matrix(-0.707107 0.707107 0.707107 0.707107 49.293 25.1924)" fill="#EC56CB"/>
<rect width="8.49727" height="10.0422" transform="matrix(0.126303 0.991992 0.991992 -0.126303 96.292 96.8281)" fill="#EC56CB"/>
<circle r="6.56607" transform="matrix(-1 0 0 1 185.384 51.7389)" fill="#EC56CB"/>
<path d="M11.6185 68.7911L2.63068 77.7789L14.9083 81.0687L11.6185 68.7911Z" fill="#FFCD4F"/>
<path d="M248.585 45.8446L256.226 56.0022L261.202 44.306L248.585 45.8446Z" fill="#49DDE7"/>
<path fill-rule="evenodd" clip-rule="evenodd" d="M128.259 81.6603C128.387 81.1286 128.516 80.3311 129.031 79.2677C131.091 74.6155 135.339 75.1472 138.043 70.495C138.429 69.8304 139.845 67.3049 139.717 64.1148C139.717 63.1844 139.459 62.3869 139.33 61.8552C139.202 61.4565 138.944 61.0577 138.687 60.6589C137.399 58.3993 135.082 57.6018 134.052 57.3359C133.923 59.4627 133.537 62.5198 131.606 65.0453C129.932 67.172 128.902 66.7732 126.971 69.2987C124.654 72.223 123.238 76.4764 124.654 78.4702C124.783 78.6031 124.783 78.736 125.04 78.869C126.199 80.1982 127.357 81.1286 128.259 81.6603Z" fill="#BA9219"/>
<path fill-rule="evenodd" clip-rule="evenodd" d="M119.67 47.2561C119.67 47.2561 117.018 43.7746 123.981 35.8166C129.452 29.6824 131.441 13.6007 122.157 10.1191C122.157 10.1191 120.665 23.8797 115.36 28.8534C109.391 34.3245 107.236 42.1166 108.065 44.9351C108.065 44.9351 110.055 47.7535 113.702 48.0851C117.515 48.4167 119.67 47.2561 119.67 47.2561Z" fill="#BA9219"/>
<path fill-rule="evenodd" clip-rule="evenodd" d="M139.399 62.6752C137.907 51.7331 134.094 47.5883 130.778 45.9304C123.317 41.9515 113.37 47.7541 110.054 43.2778C108.728 41.4541 109.059 38.9672 109.391 37.1436C108.728 38.6357 107.401 42.283 108.065 46.7594C108.23 48.5831 109.059 53.8884 112.872 56.8726C118.675 61.1831 125.472 55.5463 134.923 60.0226C137.078 61.0173 138.57 62.0121 139.399 62.6752Z" fill="#FFD43A"/>
<path fill-rule="evenodd" clip-rule="evenodd" d="M152.412 105.985C153.833 91.3623 150.604 85.6978 147.374 83.3266C140.786 78.4525 128.513 82.5362 125.283 76.213C124.767 75.1591 124.523 74.237 124.523 73.8418C124.265 74.7639 123.655 76.1703 123.655 77.7511C123.525 80.3857 124.25 83.8535 125.025 85.566C127.738 91.7575 140.915 86.8834 148.02 93.7335C149.958 95.8412 152.154 99.2663 152.412 105.985Z" fill="#FFD43A"/>
<path fill-rule="evenodd" clip-rule="evenodd" d="M100.771 27.693C98.1188 22.885 95.4661 17.9113 92.8135 13.1034C93.4766 11.6113 96.6267 4.31654 104.585 1.33232C106.077 0.834949 110.553 -0.822953 115.361 0.503368C122.324 2.49285 127.464 9.62183 128.458 18.5745C126.966 17.0824 123.816 14.264 119.174 13.7666C111.879 12.9376 104.087 18.4087 100.771 27.693Z" fill="#FFD43A"/>
<path fill-rule="evenodd" clip-rule="evenodd" d="M47.2398 69.8223C49.5375 65.3846 51.9086 60.7444 54.2063 56.3066C59.1453 57.8458 65.3565 60.2977 72.4903 63.9946C72.4903 63.9946 78.0758 66.9087 83.1734 70.2199C92.9633 76.6972 107.795 93.8985 121.604 118.967C111.77 106.299 94.3765 87.9521 67.3926 76.4639C60.4439 73.5193 53.5422 71.392 47.2398 69.8223Z" fill="#49DDE7"/>
<path fill-rule="evenodd" clip-rule="evenodd" d="M252.314 70.6905C250.016 66.2527 247.645 61.6125 245.347 57.1748C240.408 58.7139 234.197 61.1658 227.063 64.8628C227.063 64.8628 221.478 67.7768 216.38 71.088C206.59 77.5653 191.759 94.7667 177.95 119.835C187.783 107.167 205.177 88.8202 232.161 77.3321C239.11 74.3875 246.012 72.2602 252.314 70.6905Z" fill="#49DDE7"/>
<defs>
<linearGradient id="paint0_linear_14367_11812" x1="186.74" y1="144.525" x2="142.915" y2="188.35" gradientUnits="userSpaceOnUse">
<stop stop-color="#FFCE51"/>
<stop offset="1" stop-color="#D346B4"/>
</linearGradient>
</defs>
</svg>
