<svg width="400" height="837" viewBox="0 0 400 837" fill="none" xmlns="http://www.w3.org/2000/svg">
<g opacity="0.4">
<rect x="80.9365" y="26.9375" width="7.08913" height="9.21587" transform="rotate(16.4065 80.9365 26.9375)" fill="#EC56CB"/>
<rect x="114.487" y="63.0918" width="9.92479" height="9.21587" transform="rotate(-12.3685 114.487 63.0918)" fill="#EC56CB"/>
<rect x="32.6895" y="35.4453" width="8.90565" height="6.63196" transform="rotate(45 32.6895 35.4453)" fill="#FFCD4F"/>
<rect x="93.4258" y="98.9941" width="7.79805" height="9.21587" transform="rotate(97.256 93.4258 98.9941)" fill="#49DDE7"/>
<circle cx="147.453" cy="6.02576" r="6.02576" fill="#49DDE7"/>
<path d="M69.2435 42.1515L77.4917 50.3997L66.2244 53.4188L69.2435 42.1515Z" fill="#49DDE7"/>
<path d="M156.457 86.3046L149.444 95.6263L144.878 84.8925L156.457 86.3046Z" fill="#FFCD4F"/>
<rect x="182.135" y="530.487" width="7.08913" height="9.21587" transform="rotate(16.4065 182.135 530.487)" fill="#EC56CB"/>
<rect x="215.686" y="566.642" width="9.92479" height="9.21587" transform="rotate(-12.3685 215.686 566.642)" fill="#EC56CB"/>
<rect x="133.888" y="538.995" width="8.90565" height="6.63196" transform="rotate(45 133.888 538.995)" fill="#FFCD4F"/>
<rect x="194.624" y="602.544" width="7.79805" height="9.21587" transform="rotate(97.256 194.624 602.544)" fill="#49DDE7"/>
<circle cx="248.652" cy="509.576" r="6.02576" fill="#49DDE7"/>
<path d="M170.439 545.701L178.687 553.95L167.42 556.969L170.439 545.701Z" fill="#49DDE7"/>
<path d="M257.655 589.854L250.643 599.176L246.076 588.442L257.655 589.854Z" fill="#FFCD4F"/>
<rect x="314.562" y="287.427" width="7.08913" height="9.21587" transform="rotate(16.4065 314.562 287.427)" fill="#FFCD4F"/>
<rect x="282.893" y="244.181" width="9.92479" height="9.21587" transform="rotate(-12.3685 282.893 244.181)" fill="#EC56CB"/>
<rect x="298.925" y="253.4" width="8.90565" height="6.63196" transform="rotate(45 298.925 253.4)" fill="#FFCD4F"/>
<rect x="364.621" y="250.308" width="7.79805" height="9.21587" transform="rotate(97.256 364.621 250.308)" fill="#FFCD4F"/>
<circle cx="319.405" cy="333.151" r="6.02576" fill="#EC56CB"/>
<path d="M348.238 284.207L356.486 292.455L345.219 295.474L348.238 284.207Z" fill="#EC56CB"/>
<path d="M277.366 293.624L270.354 302.946L265.787 292.212L277.366 293.624Z" fill="#49DDE7"/>
<rect x="270.777" y="785.181" width="7.08913" height="9.21587" transform="rotate(16.4065 270.777 785.181)" fill="#FFCD4F"/>
<rect x="239.108" y="741.935" width="9.92479" height="9.21587" transform="rotate(-12.3685 239.108 741.935)" fill="#EC56CB"/>
<rect x="255.141" y="751.154" width="8.90565" height="6.63196" transform="rotate(45 255.141 751.154)" fill="#FFCD4F"/>
<rect x="320.837" y="748.062" width="7.79805" height="9.21587" transform="rotate(97.256 320.837 748.062)" fill="#FFCD4F"/>
<circle cx="275.62" cy="830.905" r="6.02576" fill="#EC56CB"/>
<path d="M304.453 781.961L312.702 790.209L301.434 793.228L304.453 781.961Z" fill="#EC56CB"/>
<path d="M233.582 791.378L226.569 800.7L222.003 789.966L233.582 791.378Z" fill="#49DDE7"/>
<rect x="286.653" y="410.203" width="7.08913" height="9.21587" transform="rotate(16.4065 286.653 410.203)" fill="#FFCD4F"/>
<rect x="254.984" y="366.957" width="9.92479" height="9.21587" transform="rotate(-12.3685 254.984 366.957)" fill="#EC56CB"/>
<rect x="271.017" y="376.177" width="8.90565" height="6.63196" transform="rotate(45 271.017 376.177)" fill="#FFCD4F"/>
<rect x="336.713" y="373.084" width="7.79805" height="9.21587" transform="rotate(97.256 336.713 373.084)" fill="#FFCD4F"/>
<circle cx="291.496" cy="455.927" r="6.02576" fill="#EC56CB"/>
<path d="M320.329 406.983L328.578 415.232L317.31 418.251L320.329 406.983Z" fill="#EC56CB"/>
<path d="M249.458 416.4L242.445 425.722L237.879 414.988L249.458 416.4Z" fill="#49DDE7"/>
<rect x="52.2695" y="585.595" width="7.08913" height="9.21587" transform="rotate(16.4065 52.2695 585.595)" fill="#FFCD4F"/>
<rect x="20.6006" y="542.349" width="9.92479" height="9.21587" transform="rotate(-12.3685 20.6006 542.349)" fill="#EC56CB"/>
<rect x="36.6328" y="551.568" width="8.90565" height="6.63196" transform="rotate(45 36.6328 551.568)" fill="#FFCD4F"/>
<rect x="102.329" y="548.476" width="7.79805" height="9.21587" transform="rotate(97.256 102.329 548.476)" fill="#FFCD4F"/>
<circle cx="57.1127" cy="631.319" r="6.02576" fill="#EC56CB"/>
<path d="M85.9456 582.375L94.1939 590.623L82.9266 593.642L85.9456 582.375Z" fill="#EC56CB"/>
<path d="M15.0741 591.792L8.06169 601.114L3.49503 590.38L15.0741 591.792Z" fill="#49DDE7"/>
<rect x="20.1865" y="444.508" width="7.08913" height="9.21587" transform="rotate(16.4065 20.1865 444.508)" fill="#FFCD4F"/>
<rect x="50.9004" y="364.4" width="9.92479" height="9.21587" transform="rotate(-12.3685 50.9004 364.4)" fill="#49DDE7"/>
<rect x="116.559" y="322.576" width="8.90565" height="6.63196" transform="rotate(45 116.559 322.576)" fill="#EC56CB"/>
<rect x="91.5117" y="426.533" width="7.79805" height="9.21587" transform="rotate(97.256 91.5117 426.533)" fill="#EC56CB"/>
<circle cx="32.8236" cy="367.591" r="6.02576" fill="#EC56CB"/>
<path d="M87.889 388.122L96.1372 396.37L84.8699 399.39L87.889 388.122Z" fill="#FFCD4F"/>
<path d="M41.8299 447.87L34.8175 457.192L30.2509 446.458L41.8299 447.87Z" fill="#49DDE7"/>
<rect width="7.08913" height="9.21587" transform="matrix(-0.959282 0.282451 0.282451 0.959282 341.67 137.932)" fill="#FFCD4F"/>
<rect width="9.92479" height="9.21587" transform="matrix(-0.97679 -0.214198 -0.214198 0.97679 310.956 57.8242)" fill="#49DDE7"/>
<rect width="8.90565" height="6.63196" transform="matrix(-0.707107 0.707107 0.707107 0.707107 245.298 16)" fill="#EC56CB"/>
<rect width="7.79805" height="9.21587" transform="matrix(0.126303 0.991992 0.991992 -0.126303 270.345 119.957)" fill="#EC56CB"/>
<circle r="6.02576" transform="matrix(-1 0 0 1 329.033 61.015)" fill="#EC56CB"/>
<path d="M273.967 81.546L265.719 89.7943L276.987 92.8133L273.967 81.546Z" fill="#FFCD4F"/>
<path d="M320.027 141.294L327.039 150.616L331.606 139.882L320.027 141.294Z" fill="#49DDE7"/>
<rect x="59.6035" y="803.932" width="7.08913" height="9.21587" transform="rotate(16.4065 59.6035 803.932)" fill="#FFCD4F"/>
<rect x="90.3174" y="723.824" width="9.92479" height="9.21587" transform="rotate(-12.3685 90.3174 723.824)" fill="#49DDE7"/>
<rect x="155.976" y="682" width="8.90565" height="6.63196" transform="rotate(45 155.976 682)" fill="#EC56CB"/>
<rect x="130.929" y="785.957" width="7.79805" height="9.21587" transform="rotate(97.256 130.929 785.957)" fill="#EC56CB"/>
<circle cx="72.2406" cy="727.015" r="6.02576" fill="#EC56CB"/>
<path d="M127.306 747.546L135.554 755.794L124.287 758.813L127.306 747.546Z" fill="#FFCD4F"/>
<path d="M81.2469 807.294L74.2345 816.616L69.6679 805.882L81.2469 807.294Z" fill="#49DDE7"/>
<rect x="49.6816" y="294.627" width="7.08913" height="9.21587" transform="rotate(16.4065 49.6816 294.627)" fill="#FFCD4F"/>
<rect x="80.3955" y="214.52" width="9.92479" height="9.21587" transform="rotate(-12.3685 80.3955 214.52)" fill="#49DDE7"/>
<rect x="146.054" y="172.695" width="8.90565" height="6.63196" transform="rotate(45 146.054 172.695)" fill="#EC56CB"/>
<rect x="121.007" y="276.652" width="7.79805" height="9.21587" transform="rotate(97.256 121.007 276.652)" fill="#EC56CB"/>
<circle cx="62.3187" cy="217.71" r="6.02576" fill="#EC56CB"/>
<path d="M117.384 238.241L125.632 246.49L114.365 249.509L117.384 238.241Z" fill="#FFCD4F"/>
<path d="M71.325 297.989L64.3127 307.311L59.746 296.577L71.325 297.989Z" fill="#49DDE7"/>
<rect x="297.326" y="691.791" width="7.08913" height="9.21587" transform="rotate(16.4065 297.326 691.791)" fill="#FFCD4F"/>
<rect x="328.04" y="611.684" width="9.92479" height="9.21587" transform="rotate(-12.3685 328.04 611.684)" fill="#49DDE7"/>
<rect x="393.698" y="569.859" width="8.90565" height="6.63196" transform="rotate(45 393.698 569.859)" fill="#EC56CB"/>
<rect x="368.651" y="673.816" width="7.79805" height="9.21587" transform="rotate(97.256 368.651 673.816)" fill="#EC56CB"/>
<circle cx="309.963" cy="614.874" r="6.02576" fill="#EC56CB"/>
<path d="M365.029 635.405L373.277 643.654L362.01 646.673L365.029 635.405Z" fill="#FFCD4F"/>
<path d="M318.97 695.153L311.957 704.475L307.391 693.741L318.97 695.153Z" fill="#49DDE7"/>
</g>
</svg>
