<svg width="78" height="27" viewBox="0 0 78 27" fill="none" xmlns="http://www.w3.org/2000/svg">
<path d="M64.8483 6.01006C60.4739 5.60026 57.315 7.10308 57.3149 12.8629V19.8924H60.4739V12.8629C60.5802 10.342 61.3149 8.81483 64.8483 9.14004V6.01006Z" fill="#333333"/>
<path d="M68.7851 3.7471C69.7983 3.7471 70.6196 2.90828 70.6196 1.87355C70.6196 0.838817 69.7983 0 68.7851 0C67.772 0 66.9507 0.838817 66.9507 1.87355C66.9507 2.90828 67.772 3.7471 68.7851 3.7471Z" fill="#333333"/>
<path d="M3.13973 26.1655H0V6.29882H3.13973V7.78352C4.37446 6.54627 5.78558 5.90997 7.33781 5.90997C9.20754 5.90997 10.7598 6.61697 11.9592 7.99562C13.1939 9.37427 13.7937 11.1064 13.7937 13.1921C13.7937 15.2424 13.1939 16.9392 11.9592 18.2825C10.7598 19.6258 9.20754 20.2974 7.37308 20.2974C5.78558 20.2974 4.37446 19.6611 3.10446 18.3885V26.1655H3.13973ZM10.6187 13.1921C10.6187 11.8841 10.2659 10.8236 9.56032 10.0106C8.85476 9.19752 7.93753 8.77332 6.84392 8.77332C5.67974 8.77332 4.76252 9.16217 4.05696 9.97522C3.3514 10.7883 2.99862 11.8134 2.99862 13.1214C2.99862 14.394 3.3514 15.4545 4.05696 16.2675C4.76252 17.0806 5.67974 17.4694 6.84392 17.4694C7.93753 17.4694 8.81948 17.0452 9.52504 16.2322C10.2306 15.4545 10.6187 14.4293 10.6187 13.1921Z" fill="#333333"/>
<path d="M26.9171 6.29882H30.0568V19.9086H26.9171V18.4946C25.6118 19.6965 24.236 20.2974 22.7543 20.2974C20.8846 20.2974 19.3324 19.6258 18.0976 18.2471C16.8629 16.8685 16.2632 15.1363 16.2632 13.0507C16.2632 11.0004 16.8629 9.30357 18.0976 7.96027C19.3324 6.61697 20.8493 5.90997 22.6838 5.90997C24.2713 5.90997 25.6824 6.54627 26.9524 7.85422V6.29882H26.9171ZM19.4735 13.086C19.4735 14.394 19.8263 15.4545 20.5318 16.2675C21.2374 17.0806 22.1546 17.5048 23.2482 17.5048C24.4124 17.5048 25.3649 17.1159 26.0704 16.3029C26.776 15.4898 27.1288 14.4293 27.1288 13.1567C27.1288 11.8841 26.776 10.8236 26.0704 10.0106C25.3649 9.19752 24.4124 8.80867 23.2835 8.80867C22.1899 8.80867 21.3079 9.23287 20.5671 10.0459C19.8263 10.8236 19.4735 11.8488 19.4735 13.086Z" fill="#333333"/>
<path d="M33.958 6.29851H37.0977V7.57111C38.1914 6.47526 39.4261 5.94501 40.8019 5.94501C42.3894 5.94501 43.6242 6.43991 44.5061 7.42971C45.2822 8.27811 45.635 9.65676 45.635 11.5657V19.9083H42.4953V12.308C42.4953 10.9647 42.3189 10.0456 41.9308 9.51536C41.578 8.98511 40.9078 8.73766 39.9553 8.73766C38.8969 8.73766 38.1914 9.09116 37.7327 9.76281C37.3094 10.4345 37.0977 11.6364 37.0977 13.3332V19.9083H33.958V6.29851Z" fill="#333333"/>
<path d="M52.8778 8.94999V19.9085H49.738V8.94999H48.3975V6.01594H49.738V2.72839H52.8778V6.01594H55.3119V8.94999H52.8778Z" fill="#333333"/>
<path d="M70.5003 5.91492H67.0356V19.9424H70.5003V5.91492Z" fill="#333333"/>
<path d="M77.3447 5.91492H73.9646V19.9424H77.3447V5.91492Z" fill="#333333"/>
<path d="M75.799 3.7471C76.8122 3.7471 77.6335 2.90828 77.6335 1.87355C77.6335 0.838817 76.8122 0 75.799 0C74.7859 0 73.9646 0.838817 73.9646 1.87355C73.9646 2.90828 74.7859 3.7471 75.799 3.7471Z" fill="#333333"/>
</svg>
