<svg width="102" height="35" viewBox="0 0 102 35" fill="none" xmlns="http://www.w3.org/2000/svg">
<path d="M85.3118 7.83122C79.5571 7.2921 75.4014 9.26915 75.4012 16.8465V26.0942H79.5571V16.8465C79.6968 13.5302 80.6634 11.5211 85.3118 11.9489V7.83122Z" fill="white"/>
<path d="M90.3621 4.92952C91.695 4.92952 92.7754 3.82601 92.7754 2.46476C92.7754 1.10351 91.695 0 90.3621 0C89.0293 0 87.9488 1.10351 87.9488 2.46476C87.9488 3.82601 89.0293 4.92952 90.3621 4.92952Z" fill="white"/>
<path d="M4.1305 34.3475H0V8.21175H4.1305V10.165C5.75485 8.53728 7.61126 7.7002 9.6533 7.7002C12.113 7.7002 14.1551 8.63029 15.733 10.444C17.3574 12.2577 18.1464 14.5364 18.1464 17.2802C18.1464 19.9775 17.3574 22.2097 15.733 23.9769C14.1551 25.7441 12.113 26.6277 9.69971 26.6277C7.61126 26.6277 5.75485 25.7906 4.08409 24.1164V34.3475H4.1305ZM13.9694 17.2802C13.9694 15.5595 13.5053 14.1644 12.5771 13.0948C11.6489 12.0252 10.4423 11.4671 9.00356 11.4671C7.47203 11.4671 6.26537 11.9786 5.33716 13.0483C4.40896 14.1179 3.94486 15.4665 3.94486 17.1872C3.94486 18.8614 4.40896 20.2565 5.33716 21.3261C6.26537 22.3958 7.47203 22.9073 9.00356 22.9073C10.4423 22.9073 11.6025 22.3493 12.5307 21.2796C13.4589 20.2565 13.9694 18.9079 13.9694 17.2802Z" fill="white"/>
<path d="M35.4105 8.21175H39.541V26.1162H35.4105V24.256C33.6933 25.8371 31.8833 26.6277 29.9341 26.6277C27.4744 26.6277 25.4323 25.7441 23.808 23.9304C22.1836 22.1167 21.3947 19.838 21.3947 17.0942C21.3947 14.3969 22.1836 12.1647 23.808 10.3975C25.4323 8.63029 27.428 7.7002 29.8413 7.7002C31.9298 7.7002 33.7862 8.53728 35.4569 10.258V8.21175H35.4105ZM25.618 17.1407C25.618 18.8614 26.0821 20.2565 27.0103 21.3261C27.9385 22.3958 29.1451 22.9538 30.5839 22.9538C32.1154 22.9538 33.3685 22.4423 34.2967 21.3726C35.2249 20.303 35.689 18.9079 35.689 17.2337C35.689 15.5595 35.2249 14.1644 34.2967 13.0948C33.3685 12.0252 32.1154 11.5136 30.6303 11.5136C29.1916 11.5136 28.0313 12.0717 27.0567 13.1413C26.0821 14.1644 25.618 15.513 25.618 17.1407Z" fill="white"/>
<path d="M44.6737 8.21139H48.8042V9.88557C50.2429 8.44391 51.8673 7.74634 53.6773 7.74634C55.7657 7.74634 57.3901 8.39741 58.5503 9.69955C59.5714 10.8157 60.0355 12.6294 60.0355 15.1406V26.1158H55.905V16.1172C55.905 14.35 55.6729 13.1409 55.1624 12.4433C54.6983 11.7458 53.8165 11.4202 52.5634 11.4202C51.1711 11.4202 50.2429 11.8853 49.6396 12.7689C49.0827 13.6525 48.8042 15.2336 48.8042 17.4659V26.1158H44.6737V8.21139Z" fill="white"/>
<path d="M69.5635 11.6988V26.1153H65.433V11.6988H63.6694V7.83888H65.433V3.51392H69.5635V7.83888H72.7657V11.6988H69.5635Z" fill="white"/>
<path d="M92.7803 7.73218H88.2116V26.095H92.7803V7.73218Z" fill="white"/>
<path d="M101.83 7.73218H97.3486V26.095H101.83V7.73218Z" fill="white"/>
<path d="M99.5867 4.92952C100.92 4.92952 102 3.82601 102 2.46476C102 1.10351 100.92 0 99.5867 0C98.2539 0 97.1734 1.10351 97.1734 2.46476C97.1734 3.82601 98.2539 4.92952 99.5867 4.92952Z" fill="white"/>
</svg>
