<svg width="16" height="16" viewBox="0 0 16 16" fill="none" xmlns="http://www.w3.org/2000/svg">
<circle cx="8" cy="8" r="7.5" stroke="#767676"/>
<path d="M7.24 9.43H8.53C8.38 8.04 10.56 7.87 10.56 6.4C10.56 5.07 9.5 4.4 8.05 4.4C6.98 4.4 6.1 4.88 5.47 5.62L6.29 6.38C6.78 5.86 7.27 5.59 7.89 5.59C8.67 5.59 9.15 5.93 9.15 6.53C9.15 7.5 7.03 7.86 7.24 9.43ZM7.89 12.09C8.4 12.09 8.77 11.73 8.77 11.21C8.77 10.68 8.4 10.32 7.89 10.32C7.39 10.32 7.01 10.68 7.01 11.21C7.01 11.73 7.38 12.09 7.89 12.09Z" fill="#767676"/>
</svg>
