<svg width="39" height="37" viewBox="0 0 39 37" fill="none" xmlns="http://www.w3.org/2000/svg">
<path d="M34.1274 10.079C31.3666 7.30956 27.4987 5.5822 23.2773 5.58477H18.6039C18.1296 5.58477 17.7452 5.2003 17.7452 4.72603V2.15181C17.7452 0.888979 16.2796 0.191745 15.2998 0.988459L4.95371 9.40131C4.21581 10.0013 4.21578 11.1279 4.95366 11.728L15.2997 20.1417C16.2795 20.9384 17.7452 20.2412 17.7452 18.9783V16.2293C17.7452 15.8848 18.0244 15.6055 18.3689 15.6055H23.2773C24.7628 15.608 26.0626 16.1939 27.0419 17.1639C28.0125 18.1437 28.5984 19.4429 28.6008 20.9291C28.5984 22.4153 28.0125 23.7144 27.0419 24.693C26.0626 25.6643 24.7628 26.2501 23.2773 26.2527H1.49893C0.670822 26.2527 -0.000488281 26.924 -0.000488281 27.7521V34.774C-0.000488281 35.6021 0.670824 36.2734 1.49893 36.2734H23.2773C27.4987 36.2759 31.3666 34.5486 34.1274 31.7792C36.8957 29.0184 38.6242 25.1505 38.6216 20.9291C38.6241 16.7077 36.8957 12.8398 34.1274 10.079Z" fill="#DDAA00"/>
</svg>
