<svg width="60" height="53" viewBox="0 0 60 53" fill="none" xmlns="http://www.w3.org/2000/svg">
<path d="M18.5962 32.5845C18.3522 30.833 16.9882 29.5696 15.5525 29.7562L11.7192 30.2731C10.2691 30.4741 9.29283 32.0533 9.53691 33.8049L11.633 49.1526C11.8771 50.9042 13.241 52.1676 14.6767 51.981L18.5101 51.4641C19.9602 51.2631 20.9364 49.6838 20.6924 47.9323L18.5962 32.5845Z" fill="#DDAA00" stroke="#DDAA00" stroke-width="2" stroke-miterlimit="10" stroke-linecap="round" stroke-linejoin="round"/>
<path d="M47.4841 30.274L43.6507 29.7572C42.2007 29.5562 40.8368 30.8196 40.607 32.5855L38.5109 47.9189C38.2668 49.6704 39.2431 51.2641 40.6932 51.4507L44.5265 51.9676C45.9766 52.1686 47.3405 50.9052 47.5702 49.1392L49.6664 33.8059C49.9104 32.0543 48.9342 30.475 47.4841 30.274Z" fill="#DDAA00" stroke="#DDAA00" stroke-width="2" stroke-miterlimit="10" stroke-linecap="round" stroke-linejoin="round"/>
<path d="M57.6639 24.1864L56.6877 24.3587C55.6683 18.9317 53.3712 13.9067 49.9542 9.95852C44.9005 4.10083 37.8799 0.999695 29.5527 0.999695C21.3261 0.999695 14.3055 4.10083 9.23746 9.95852C5.82047 13.9067 3.52334 18.9317 2.50398 24.3587L1.5277 24.1864C0.867274 28.0341 0.824202 32.0397 1.41284 36.0741L2.38913 43.2239L5.18876 42.8363L5.86354 47.8038L10.0127 47.2295L8.36168 35.1122L7.01211 35.2988V35.2701C6.50961 31.7957 6.53833 28.393 7.09825 25.134L6.39475 25.0191C7.28489 20.2956 9.28053 15.9454 12.2237 12.5284C16.5165 7.56089 22.5034 4.9479 29.6245 4.9479C36.6595 4.9479 42.6608 7.57524 46.9392 12.5284C49.8824 15.9311 51.878 20.2813 52.7682 25.0191L52.0647 25.134C52.6246 28.393 52.6533 31.7957 52.1365 35.2988L50.7869 35.1122L49.1358 47.2295L53.285 47.8038L53.9598 42.8363L56.7594 43.2239L57.7357 36.1028C58.3674 32.0541 58.3244 28.0341 57.6639 24.1864Z" fill="#DDAA00" stroke="#DDAA00" stroke-width="2" stroke-miterlimit="10" stroke-linecap="round" stroke-linejoin="round"/>
</svg>
