<svg width="92" height="108" viewBox="0 0 92 108" fill="none" xmlns="http://www.w3.org/2000/svg">
<rect x="49.1418" y="45.6098" width="5.72024" height="7.43632" transform="rotate(16.4065 49.1418 45.6098)" fill="#FFCD4F"/>
<rect x="80.1003" y="85.9999" width="5.72024" height="7.43632" transform="rotate(16.4065 80.1003 85.9999)" fill="#FFCD4F"/>
<rect x="23.5884" y="10.7153" width="8.00834" height="7.43632" transform="rotate(-12.3685 23.5884 10.7153)" fill="#EC56CB"/>
<rect x="36.5249" y="18.1527" width="7.186" height="5.35135" transform="rotate(45 36.5249 18.1527)" fill="#FFCD4F"/>
<rect x="89.5347" y="15.6598" width="6.29227" height="7.43631" transform="rotate(97.256 89.5347 15.6598)" fill="#FFCD4F"/>
<circle cx="53.048" cy="82.5053" r="4.86221" fill="#EC56CB"/>
<path d="M76.3155 43.0121L82.971 49.6677L73.8794 52.1038L76.3155 43.0121Z" fill="#EC56CB"/>
<path d="M28.1284 32.0004L22.4701 39.5221L18.7853 30.861L28.1284 32.0004Z" fill="#49DDE7"/>
<rect width="5.72024" height="7.43632" transform="matrix(-0.959282 0.282451 0.282451 0.959282 82.844 98.3879)" fill="#FFCD4F"/>
<rect width="8.00834" height="7.43632" transform="matrix(-0.97679 -0.214198 -0.214198 0.97679 58.0593 33.7485)" fill="#49DDE7"/>
<rect width="8.00834" height="7.43632" transform="matrix(-0.97679 -0.214198 -0.214198 0.97679 91.4153 68.7153)" fill="#49DDE7"/>
<rect width="7.186" height="5.35135" transform="matrix(-0.707107 0.707107 0.707107 0.707107 5.0813 -6.10352e-05)" fill="#EC56CB"/>
<rect width="6.29227" height="7.43631" transform="matrix(0.126303 0.991992 0.991992 -0.126303 25.2908 83.8825)" fill="#EC56CB"/>
<circle r="4.86221" transform="matrix(-1 0 0 1 72.6459 36.3235)" fill="#EC56CB"/>
<path d="M28.2129 52.8885L21.5573 59.5441L30.6489 61.9802L28.2129 52.8885Z" fill="#FFCD4F"/>
<path d="M65.3799 101.101L71.0382 108.622L74.723 99.9613L65.3799 101.101Z" fill="#49DDE7"/>
</svg>
