<svg width="85" height="104" viewBox="0 0 85 104" fill="none" xmlns="http://www.w3.org/2000/svg">
<rect x="45.7139" y="36.7013" width="5.72024" height="7.43632" transform="rotate(16.4065 45.7139 36.7013)" fill="#EC56CB"/>
<rect x="42.7871" y="65.874" width="8.00834" height="7.43632" transform="rotate(-12.3685 42.7871 65.874)" fill="#EC56CB"/>
<rect x="6.78394" y="43.5656" width="7.186" height="5.35135" transform="rotate(45 6.78394 43.5656)" fill="#FFCD4F"/>
<rect x="55.7893" y="94.8431" width="6.29227" height="7.43631" transform="rotate(97.256 55.7893 94.8431)" fill="#49DDE7"/>
<circle cx="75.3844" cy="22.2098" r="4.86221" fill="#49DDE7"/>
<path d="M36.2781 48.9765L42.9337 55.632L33.842 58.0681L36.2781 48.9765Z" fill="#49DDE7"/>
<path d="M21.4834 66.8333L15.8251 74.355L12.1403 65.6939L21.4834 66.8333Z" fill="#FFCD4F"/>
<rect x="2.10034" y="91.3879" width="5.72024" height="7.43632" transform="rotate(16.4065 2.10034 91.3879)" fill="#FFCD4F"/>
<rect x="26.8853" y="26.7484" width="8.00834" height="7.43632" transform="rotate(-12.3685 26.8853 26.7484)" fill="#49DDE7"/>
<rect x="79.863" y="-7.00006" width="7.186" height="5.35135" transform="rotate(45 79.863 -7.00006)" fill="#EC56CB"/>
<rect x="37.5635" y="81.3208" width="6.29227" height="7.43631" transform="rotate(97.256 37.5635 81.3208)" fill="#EC56CB"/>
<circle cx="15.9835" cy="43.9361" r="4.86221" fill="#EC56CB"/>
<path d="M56.7317 45.8885L63.3873 52.5441L54.2956 54.9802L56.7317 45.8885Z" fill="#FFCD4F"/>
<path d="M19.5645 94.1006L13.9062 101.622L10.2213 92.9613L19.5645 94.1006Z" fill="#49DDE7"/>
</svg>
