<svg width="101" height="71" viewBox="0 0 101 71" fill="none" xmlns="http://www.w3.org/2000/svg">
<g opacity="0.6">
<path fill-rule="evenodd" clip-rule="evenodd" d="M22.3011 50.8742L87.3053 69.9486C87.6797 70.0584 88.0722 69.844 88.1821 69.4697L100.792 26.4949C100.902 26.1206 100.688 25.728 100.313 25.6182L35.3092 6.54387L35.2994 6.57784C34.6129 8.91757 32.1596 10.2577 29.8198 9.57118C27.4801 8.88463 26.1399 6.43133 26.8265 4.0916L26.8366 4.05771L13.686 0.198899C13.3116 0.0890492 12.9191 0.303477 12.8093 0.677834L0.199065 43.6526C0.0892163 44.0269 0.30364 44.4195 0.678 44.5293L13.8284 48.3881C14.5286 46.0693 16.9695 44.7454 19.2979 45.4286C21.6263 46.1119 22.9648 48.5448 22.3011 50.8742ZM20.3576 41.6909C19.9832 41.581 19.5907 41.7954 19.4809 42.1698C19.371 42.5441 19.5854 42.9367 19.9598 43.0465C20.3342 43.1564 20.7267 42.9419 20.8365 42.5676C20.9464 42.1932 20.732 41.8007 20.3576 41.6909ZM22.7629 30.9849C22.8728 30.6106 23.2653 30.3962 23.6396 30.506C24.014 30.6159 24.2284 31.0084 24.1186 31.3827C24.0087 31.7571 23.6162 31.9715 23.2418 31.8617C22.8675 31.7518 22.6531 31.3593 22.7629 30.9849ZM26.9213 19.3217C26.547 19.2119 26.1544 19.4263 26.0446 19.8006C25.9347 20.175 26.1492 20.5675 26.5235 20.6774C26.8979 20.7872 27.2904 20.5728 27.4003 20.1984C27.5101 19.8241 27.2957 19.4316 26.9213 19.3217ZM20.5748 38.4413C20.6847 38.0669 21.0772 37.8525 21.4516 37.9623C21.8259 38.0722 22.0403 38.4647 21.9305 38.8391C21.8207 39.2134 21.4281 39.4279 21.0538 39.318C20.6794 39.2082 20.465 38.8156 20.5748 38.4413ZM24.7337 26.778C24.3593 26.6682 23.9668 26.8826 23.8569 27.257C23.7471 27.6313 23.9615 28.0239 24.3359 28.1337C24.7102 28.2436 25.1028 28.0291 25.2126 27.6548C25.3225 27.2804 25.108 26.8879 24.7337 26.778ZM27.1384 16.0725C27.2483 15.6981 27.6408 15.4837 28.0152 15.5935C28.3895 15.7034 28.6039 16.0959 28.4941 16.4703C28.3842 16.8446 27.9917 17.0591 27.6174 16.9492C27.243 16.8394 27.0286 16.4468 27.1384 16.0725ZM22.5456 34.234C22.1712 34.1241 21.7787 34.3385 21.6689 34.7129C21.559 35.0873 21.7734 35.4798 22.1478 35.5896C22.5222 35.6995 22.9147 35.4851 23.0245 35.1107C23.1344 34.7363 22.92 34.3438 22.5456 34.234ZM24.9508 23.5286C25.0606 23.1542 25.4531 22.9398 25.8275 23.0497C26.2019 23.1595 26.4163 23.552 26.3064 23.9264C26.1966 24.3008 25.8041 24.5152 25.4297 24.4053C25.0553 24.2955 24.8409 23.903 24.9508 23.5286ZM29.1094 11.8656C28.7351 11.7557 28.3425 11.9702 28.2327 12.3445C28.1228 12.7189 28.3373 13.1114 28.7116 13.2212C29.086 13.3311 29.4785 13.1167 29.5883 12.7423C29.6982 12.368 29.4838 11.9754 29.1094 11.8656Z" fill="#FFE99E"/>
<rect x="82.9319" y="62.7753" width="59.4801" height="34.9675" rx="0.706414" transform="rotate(-163.647 82.9319 62.7753)" fill="#FFD84D"/>
<rect x="13.7249" y="42.468" width="7.69992" height="34.9675" rx="0.706414" transform="rotate(-163.647 13.7249 42.468)" fill="#FFD84D"/>
<path d="M40.7294 29.626L40.3807 30.8147C39.943 30.1592 39.4141 29.7406 38.7939 29.5586C38.1106 29.3581 37.4629 29.4347 36.8508 29.7883C36.2367 30.1383 35.826 30.6665 35.6188 31.3728C35.4141 32.0705 35.4768 32.7282 35.807 33.3458C36.1372 33.9635 36.644 34.3726 37.3274 34.5731C37.6805 34.6767 37.9974 34.7073 38.2781 34.6649C38.4327 34.6479 38.5976 34.6121 38.7727 34.5574C38.9506 34.5036 39.1416 34.4318 39.3457 34.342L38.9907 35.5522C38.3212 35.7082 37.6706 35.6935 37.039 35.5082C36.0886 35.2294 35.3747 34.6597 34.8975 33.7993C34.4248 32.9341 34.327 32.0291 34.6041 31.0844C34.8526 30.2374 35.3542 29.5644 36.1087 29.0654C37.0362 28.455 38.0469 28.3103 39.1408 28.6313C39.7381 28.8065 40.2676 29.1381 40.7294 29.626ZM42.5276 33.3437C42.8022 32.4077 43.3812 31.7044 44.2646 31.2338C45.145 30.7625 46.0648 30.6674 47.0238 30.9488C47.9713 31.2268 48.6845 31.804 49.1633 32.6805C49.645 33.5577 49.7464 34.4716 49.4675 35.422C49.187 36.3781 48.6073 37.089 47.7285 37.5546C46.846 38.0223 45.9195 38.1137 44.949 37.829C44.0905 37.5771 43.4068 37.0537 42.8978 36.2589C42.3384 35.3807 42.215 34.4089 42.5276 33.3437ZM43.5359 33.6536C43.3202 34.3886 43.3898 35.0655 43.7447 35.6841C44.0967 36.3019 44.5943 36.7052 45.2374 36.8939C45.9351 37.0986 46.5945 37.0301 47.2155 36.6884C47.8382 36.341 48.2524 35.817 48.4579 35.1164C48.666 34.4072 48.6035 33.7433 48.2704 33.1248C47.9411 32.5043 47.429 32.0921 46.7341 31.8882C46.0422 31.6852 45.3871 31.755 44.7689 32.0975C44.1525 32.4343 43.7414 32.953 43.5359 33.6536ZM54.4751 33.2707L53.2999 37.2761C53.1323 37.8475 53.103 38.2926 53.2122 38.6115C53.3786 39.0751 53.7145 39.3811 54.2199 39.5293C54.7281 39.6784 55.1775 39.6029 55.568 39.3028C55.8296 39.102 56.0455 38.7116 56.2157 38.1316L57.3909 34.1262L58.3944 34.4206L57.1383 38.7017C56.9328 39.4022 56.5452 39.9153 55.9757 40.241C55.3365 40.6022 54.6594 40.678 53.9444 40.4682C53.2295 40.2585 52.7021 39.8293 52.3622 39.1808C52.0589 38.5991 52.01 37.9579 52.2156 37.2573L53.4716 32.9763L54.4751 33.2707ZM61.6011 39.6508L60.8088 42.3513L59.8053 42.0568L61.7564 35.407L62.8934 35.7406C63.4504 35.904 63.8597 36.0662 64.1212 36.2271C64.3856 36.3889 64.5953 36.6095 64.7503 36.8888C65.0227 37.3741 65.0755 37.901 64.9087 38.4696C64.7301 39.0783 64.3847 39.5008 63.8725 39.7372C63.3603 39.9737 62.7582 39.9903 62.0663 39.7873L61.6011 39.6508ZM61.8741 38.7206L62.2488 38.8305C63.1704 39.1009 63.7353 38.8815 63.9434 38.1723C64.1447 37.4861 63.7702 37.0035 62.8198 36.7247L62.4882 36.6274L61.8741 38.7206ZM66.9856 40.5196C67.2602 39.5836 67.8392 38.8803 68.7226 38.4098C69.6031 37.9384 70.5228 37.8434 71.4818 38.1248C72.4293 38.4028 73.1425 38.98 73.6213 39.8564C74.103 40.7337 74.2044 41.6475 73.9255 42.5979C73.645 43.5541 73.0654 44.2649 72.1865 44.7306C71.304 45.1982 70.3775 45.2897 69.407 45.005C68.5485 44.7531 67.8648 44.2297 67.3558 43.4349C66.7965 42.5566 66.673 41.5849 66.9856 40.5196ZM67.9939 40.8295C67.7783 41.5646 67.8479 42.2414 68.2027 42.8601C68.5547 43.4779 69.0523 43.8811 69.6954 44.0698C70.3932 44.2746 71.0525 44.2061 71.6736 43.8644C72.2963 43.517 72.7104 42.9929 72.916 42.2924C73.124 41.5832 73.0615 40.9193 72.7285 40.3008C72.3991 39.6803 71.887 39.2681 71.1922 39.0642C70.5002 38.8612 69.8451 38.9309 69.227 39.2735C68.6105 39.6102 68.1995 40.1289 67.9939 40.8295ZM75.9786 46.8021L78.0623 39.7L81.4233 46.1964L82.7792 41.5751L83.7827 41.8695L81.7129 48.9242L78.3481 42.4407L76.9821 47.0965L75.9786 46.8021Z" fill="white"/>
</g>
</svg>
