<svg width="96" height="81" viewBox="0 0 96 81" fill="none" xmlns="http://www.w3.org/2000/svg">
<g opacity="0.6">
<path d="M26.9912 3.06471L14.176 5.84619L15.8006 13.3312L28.6158 10.5497L26.9912 3.06471Z" fill="#767676"/>
<path d="M29.3444 53.0235C25.1289 52.751 20.9258 52.5351 16.767 52.2502C14.9671 38.2126 13.2116 24.1059 11.5128 9.98699C15.0231 10.2938 18.5458 10.6574 22.0562 10.9642C24.796 23.3135 27.5234 35.6061 30.2064 47.9676C29.915 49.634 29.6358 51.3571 29.3444 53.0235Z" fill="#FAFAFA"/>
<path d="M17.0831 49.3315L11.0013 49.7609C9.95158 48.2075 8.9019 46.654 7.83992 45.0439C7.94946 34.3325 8.0023 23.6334 8.12415 12.9787C9.26835 11.9584 10.3682 11.0072 11.5124 9.987C13.3545 23.1248 15.241 36.1937 17.0831 49.3315Z" fill="#BDBDBD"/>
<path d="M32.6898 52.2975C36.413 50.3019 40.1485 48.363 43.8149 46.3797C39.6334 32.859 35.3829 19.2938 31.1324 5.72872C28.0651 7.46323 25.01 9.25445 21.9427 10.989C24.569 23.3628 27.1831 35.68 29.8094 48.0539C30.7654 49.4495 31.7338 50.9018 32.6898 52.2975Z" fill="#FAFAFA"/>
<path d="M42.3174 43.8548L48.03 41.7243C48.3413 39.8755 48.6525 38.0266 48.9514 36.1211C44.4112 26.4189 39.9277 16.7044 35.3998 7.05892C33.9923 6.59253 32.5281 6.13844 31.0762 5.74106C34.8462 18.4604 38.5473 31.1354 42.3174 43.8548Z" fill="#BDBDBD"/>
<line x1="21.9122" y1="11.0272" x2="30.0885" y2="48.6984" stroke="#BDBDBD" stroke-width="0.368338"/>
<path d="M18.4727 16.6109L11.5254 10.0437L14.1769 5.8463L22.1133 10.952L18.4727 16.6109Z" fill="#BDBDBD"/>
<path d="M27.4884 14.6542L31.1448 5.78551L26.9351 3.07729L21.8294 11.0137L27.4884 14.6542Z" fill="#BDBDBD"/>
<circle cx="24.7209" cy="16.9349" r="0.670405" transform="rotate(-12.2459 24.7209 16.9349)" fill="#C4C4C4"/>
<circle cx="26.1426" cy="23.4866" r="0.670405" transform="rotate(-12.2459 26.1426 23.4866)" fill="#C4C4C4"/>
<circle cx="27.4936" cy="29.7106" r="0.670405" transform="rotate(-12.2459 27.4936 29.7106)" fill="#C4C4C4"/>
<circle cx="28.9162" cy="36.2621" r="0.670405" transform="rotate(-12.2459 28.9162 36.2621)" fill="#C4C4C4"/>
<circle cx="30.3381" cy="42.8136" r="0.670405" transform="rotate(-12.2459 30.3381 42.8136)" fill="#C4C4C4"/>
<path fill-rule="evenodd" clip-rule="evenodd" d="M55.6493 54.1377C55.5652 54.4886 55.2343 54.723 54.8754 54.6859L49.1535 54.0938C48.7691 54.054 48.4847 53.7176 48.5095 53.3319L50.6727 19.6411L45.863 53.0589C45.8079 53.4412 45.4608 53.7119 45.0766 53.6722L39.3976 53.0845C39.0387 53.0474 38.7628 52.7502 38.7524 52.3895L37.7401 17.3019C37.7379 17.2254 37.7479 17.1491 37.7697 17.0758C37.9333 16.5261 38.0969 15.9767 38.2604 15.4277C39.5754 11.0121 40.8849 6.61487 42.1665 2.19208C42.2634 1.85763 42.5857 1.64032 42.932 1.67616L51.7674 2.59043C51.7675 2.59044 51.7676 2.59038 51.7676 2.59031C51.7676 2.59024 51.7676 2.59019 51.7677 2.5902L61.9424 3.64306C62.2888 3.6789 62.5598 3.9576 62.5861 4.30481C62.9349 8.89646 63.3163 13.4688 63.6993 18.0602C63.7469 18.631 63.7945 19.2021 63.8421 19.7735C63.8485 19.8497 63.8426 19.9265 63.8248 20.0008L55.6493 54.1377Z" fill="#97E1E5"/>
<mask id="mask0" style="mask-type:alpha" maskUnits="userSpaceOnUse" x="37" y="2" width="27" height="54">
<path fill-rule="evenodd" clip-rule="evenodd" d="M38.6748 53.0581C38.6852 53.4188 38.9611 53.716 39.32 53.7531L44.999 54.3408C45.3832 54.3806 45.7303 54.1099 45.7853 53.7275L50.5964 20.3008L48.4325 54.0011C48.4077 54.3868 48.6921 54.7232 49.0766 54.763L54.7984 55.3551C55.1573 55.3922 55.4883 55.1578 55.5723 54.8069L63.7479 20.67C63.7657 20.5957 63.7715 20.5189 63.7652 20.4427C63.7176 19.8713 63.6699 19.3002 63.6223 18.7294C63.2394 14.138 62.858 9.56566 62.5092 4.97402C62.4828 4.62681 62.2118 4.3481 61.8655 4.31226L53.0294 3.39791C53.0293 3.39791 53.0292 3.39785 53.0292 3.39778C53.0293 3.39771 53.0292 3.39765 53.0291 3.39765L42.8544 2.34478C42.5081 2.30894 42.1858 2.52625 42.0889 2.86071C40.8073 7.28349 39.4978 11.6807 38.1828 16.0963C38.0193 16.6454 37.8557 17.1947 37.6921 17.7445C37.6702 17.8178 37.6603 17.8941 37.6625 17.9705L38.6748 53.0581Z" fill="#97E1E5"/>
</mask>
<g mask="url(#mask0)">
<path fill-rule="evenodd" clip-rule="evenodd" d="M35.8242 2.97049C35.8385 6.02863 37.701 8.57941 40.2478 8.84294C42.7945 9.10647 45.1399 6.99112 45.78 4.0007L35.8242 2.97049Z" fill="#7AC5C9"/>
<path fill-rule="evenodd" clip-rule="evenodd" d="M58.2568 5.29251C58.2713 8.35044 60.1338 10.901 62.6804 11.1645C65.227 11.428 67.5722 9.31288 68.2126 6.32271L58.2568 5.29251Z" fill="#7AC5C9"/>
</g>
<circle cx="52.3452" cy="5.18792" r="1.17808" transform="rotate(5.90784 52.3452 5.18792)" fill="white"/>
<path d="M84.9693 22.5111C84.9832 22.4596 85.011 22.3566 85.0249 22.3051C85.0806 22.0991 85.1362 21.8932 85.1405 21.6733C85.1544 21.6218 85.1544 21.6218 85.1683 21.5704C85.2421 21.0931 85.2645 20.6019 85.2216 20.1483C85.0874 18.3993 85.2242 16.6682 85.6694 15.0205L87.339 8.84172L84.4087 8.04994L82.3913 15.516C81.9189 15.2226 81.3813 14.9669 80.7644 14.8002C80.1989 14.6474 79.6056 14.5975 78.9983 14.5992C76.4388 14.6811 73.9198 14.0004 71.7498 12.6406C71.2774 12.3472 70.7397 12.0914 70.1228 11.9247C69.7116 11.8136 69.3378 11.7679 68.964 11.7221L70.9397 4.4105L68.0094 3.61872L66.6877 8.51029C66.159 10.4669 65.219 12.3124 63.9095 13.8923C63.4994 14.3893 63.1268 14.9516 62.9085 15.5556C62.9085 15.5556 62.8946 15.6071 62.8807 15.6585C62.825 15.8645 62.7179 16.0566 62.6623 16.2625C62.6484 16.314 62.6205 16.417 62.6066 16.4685C62.3979 17.2409 62.1197 18.2707 61.9025 19.4827C60.8305 25.4915 62.34 28.2751 60.8852 32.0258C60.4249 33.1169 41.5954 68.9137 40.7625 70.5672C40.6137 70.9137 40.5678 71.288 40.9276 71.3853L58.5093 76.136L76.0909 80.8867C76.4508 80.9839 76.7024 80.6652 76.6456 80.2631C76.5392 78.4111 78.5206 38.0065 78.6725 36.832C79.2533 32.8452 81.9593 31.2007 84.1109 25.4836C84.4823 24.3132 84.812 23.2973 84.9693 22.5111Z" fill="#FF5290"/>
<mask id="path-20-inside-1" fill="white">
<path fill-rule="evenodd" clip-rule="evenodd" d="M84.8409 47.4225C84.8533 47.4017 84.8657 47.3807 84.878 47.3597C84.8903 47.3386 84.9024 47.3176 84.9144 47.2964L84.9327 47.265L84.9323 47.2648C86.5856 44.3148 85.5745 40.5726 82.642 38.8618C79.7094 37.151 75.9541 38.1127 74.2 41.0038L74.1988 41.0032L69.9144 48.3474L80.6483 54.6093L84.8409 47.4225Z"/>
</mask>
<path d="M84.8409 47.4225L83.3446 46.5264L83.3394 46.535L83.3343 46.5436L84.8409 47.4225ZM84.9144 47.2964L83.4079 46.4176L83.4028 46.4262L83.3979 46.435L84.9144 47.2964ZM84.9327 47.265L86.4392 48.1439L87.3181 46.6374L85.8116 45.7585L84.9327 47.265ZM84.9323 47.2648L83.4108 46.412L82.5727 47.9074L84.0534 48.7713L84.9323 47.2648ZM74.2 41.0038L73.3211 42.5104L74.8019 43.3742L75.6911 41.9086L74.2 41.0038ZM74.1988 41.0032L75.0777 39.4966L73.5712 38.6178L72.6923 40.1243L74.1988 41.0032ZM69.9144 48.3474L68.4079 47.4686L67.529 48.9751L69.0355 49.8539L69.9144 48.3474ZM80.6483 54.6093L79.7694 56.1158L81.2759 56.9946L82.1548 55.4881L80.6483 54.6093ZM83.3715 46.4808C83.3626 46.4961 83.3536 46.5113 83.3446 46.5264L86.3372 48.3186C86.3531 48.292 86.3689 48.2654 86.3845 48.2385L83.3715 46.4808ZM83.3979 46.435C83.3892 46.4503 83.3804 46.4656 83.3715 46.4808L86.3845 48.2385C86.4001 48.2117 86.4156 48.1848 86.4309 48.1579L83.3979 46.435ZM83.4262 46.3862L83.4079 46.4176L86.4209 48.1753L86.4392 48.1439L83.4262 46.3862ZM84.0534 48.7713L84.0539 48.7715L85.8116 45.7585L85.8111 45.7582L84.0534 48.7713ZM81.7631 40.3683C83.8723 41.5988 84.5998 44.2907 83.4108 46.412L86.4537 48.1175C88.5715 44.339 87.2767 39.5463 83.5208 37.3553L81.7631 40.3683ZM75.6911 41.9086C76.9525 39.8295 79.6539 39.1378 81.7631 40.3683L83.5208 37.3553C79.765 35.1642 74.9557 36.3959 72.7089 40.0991L75.6911 41.9086ZM73.32 42.5097L73.3211 42.5104L75.0789 39.4973L75.0777 39.4966L73.32 42.5097ZM71.4209 49.2263L75.7053 41.882L72.6923 40.1243L68.4079 47.4686L71.4209 49.2263ZM81.5272 53.1028L70.7933 46.8409L69.0355 49.8539L79.7694 56.1158L81.5272 53.1028ZM83.3343 46.5436L79.1418 53.7304L82.1548 55.4881L86.3474 48.3013L83.3343 46.5436Z" fill="#FED9BD" mask="url(#path-20-inside-1)"/>
<path d="M68.5918 40.8538C68.9262 40.4191 69.5314 40.3005 70.0052 40.5768L87.1794 50.5958C87.6532 50.8722 87.8478 51.4575 87.6339 51.9625L81.8054 65.7256C81.5491 66.3306 80.8198 66.5732 80.2523 66.2421L59.7946 54.3076C59.227 53.9765 59.0792 53.2223 59.4798 52.7015L68.5918 40.8538Z" fill="#FFAA5C"/>
<circle cx="72.8254" cy="44.8721" r="0.763054" transform="rotate(30.2581 72.8254 44.8721)" fill="#FED9BD"/>
<circle cx="82.2414" cy="50.3651" r="0.763054" transform="rotate(30.2581 82.2414 50.3651)" fill="#FED9BD"/>
<circle r="5.28475" transform="matrix(-0.93267 0.360731 0.360731 0.93267 82.7468 29.0133)" stroke="#BDBDBD" stroke-width="0.902275"/>
<path d="M81.219 25.251L82.3253 21.3878L77.8011 23.1376L81.219 25.251Z" fill="#E7FEFF"/>
<path d="M80.5986 20.4015L78.4293 21.2405L77.7785 23.1548L82.3238 21.3968L80.5986 20.4015Z" fill="#96E3E8"/>
<path d="M80.0886 22.329L80.5927 20.4036L78.4201 21.2439L80.0886 22.329Z" fill="#E7FEFF"/>
</g>
</svg>
