<svg width="84" height="72" viewBox="0 0 84 72" fill="none" xmlns="http://www.w3.org/2000/svg">
<g opacity="0.6">
<rect y="11.0586" width="37.9538" height="38.4282" rx="3.14728" transform="rotate(-6.13873 0 11.0586)" fill="#EEEEEE"/>
<rect x="2.09009" y="12.7428" width="16.5586" height="13.1495" rx="0.96925" transform="rotate(-6.13873 2.09009 12.7428)" fill="#D7D7D7"/>
<rect x="3.62646" y="27.0274" width="16.5586" height="13.1495" rx="0.96925" transform="rotate(-6.13873 3.62646 27.0274)" fill="#97E1E5"/>
<rect x="19.7642" y="10.842" width="16.5586" height="13.1495" rx="0.96925" transform="rotate(-6.13873 19.7642 10.842)" fill="#FFA3E5"/>
<rect x="21.3005" y="25.1263" width="16.5586" height="13.1495" rx="0.96925" transform="rotate(-6.13873 21.3005 25.1263)" fill="#61AEDA"/>
<rect x="14.0381" y="41.7574" width="16.6048" height="3.32096" transform="rotate(-6.13873 14.0381 41.7574)" fill="#9E9E9E"/>
<path fill-rule="evenodd" clip-rule="evenodd" d="M14.2641 41.6588C13.4825 41.0625 12.3216 40.7489 11.0686 40.8837C8.92611 41.1141 7.32558 42.568 7.4937 44.1311C7.66181 45.6942 9.5349 46.7745 11.6774 46.5441C12.9304 46.4093 13.9981 45.8561 14.6349 45.1072L14.2641 41.6588Z" fill="#B5B5B5"/>
<path fill-rule="evenodd" clip-rule="evenodd" d="M30.7943 43.3685C31.5759 43.9651 32.737 44.2788 33.9903 44.144C36.1327 43.9136 37.7333 42.4597 37.5651 40.8966C37.397 39.3335 35.5239 38.2532 33.3815 38.4836C32.1282 38.6184 31.0603 39.1719 30.4235 39.921L30.7943 43.3685Z" fill="#B5B5B5"/>
<path d="M43.1028 8.34479C43.1281 8.00834 43.3034 7.70108 43.5801 7.50799L51.1095 2.25338C51.886 1.71148 52.9434 2.31455 52.8723 3.25879L51.7012 18.8202C51.6546 19.4388 51.1154 19.9025 50.4968 19.856L43.4031 19.3221C42.7845 19.2755 42.3207 18.7363 42.3673 18.1177L43.1028 8.34479Z" fill="#FF5290"/>
<rect x="41.3599" y="16.5402" width="11.6067" height="15.3508" rx="0.748821" transform="rotate(4.30407 41.3599 16.5402)" fill="#FFFCF4"/>
<rect x="38.7983" y="30.6151" width="14.602" height="23.9623" rx="0.748821" transform="rotate(4.30407 38.7983 30.6151)" fill="#D7D7D7"/>
<path fill-rule="evenodd" clip-rule="evenodd" d="M60.801 69.599C66.8993 69.0982 72.3026 64.6635 73.8682 58.2568C75.8143 50.293 71.0934 42.298 63.3239 40.3994C55.5543 38.5007 47.6782 43.4175 45.7322 51.3813C44.1666 57.788 46.9157 64.2149 52.0957 67.4717L60.801 69.599Z" fill="#FFEBB7"/>
<ellipse cx="59.793" cy="54.8479" rx="11.2203" ry="11.4812" transform="rotate(13.7321 59.793 54.8479)" fill="#FFAA5C"/>
<path fill-rule="evenodd" clip-rule="evenodd" d="M67.0895 42.9315C73.2432 42.4266 78.6957 37.9518 80.2755 31.4871C82.2391 23.4515 77.4757 15.3845 69.6362 13.4687C61.7966 11.553 53.8496 16.5141 51.886 24.5496C50.3062 31.0144 53.0805 37.4995 58.3077 40.7855L67.0895 42.9315Z" fill="#E8E8E8"/>
<ellipse cx="66.1051" cy="27.9171" rx="12.264" ry="12.7859" transform="rotate(13.7321 66.1051 27.9171)" fill="#97E1E6"/>
</g>
</svg>
