<svg width="214" height="104" viewBox="0 0 214 104" fill="none" xmlns="http://www.w3.org/2000/svg">
<path d="M77.39 2.48C74.86 10.29 70.13 20.52 66.17 27.12L78.16 31.3C82.23 25.14 87.18 15.79 91.58 6.99L77.39 2.48ZM33.5 26.79C31.52 20.19 26.35 10.29 21.51 3.03L9.52 7.76C14.14 15.46 18.98 25.58 20.52 32.07L33.5 26.79ZM99.72 61.11H56.6V48.02H94.11V35.04H56.6V0.719995H42.85V35.04H7.21V48.02H42.85V61.11H0.5V74.42H42.85V103.35H56.6V74.42H99.72V61.11ZM194.98 40.21H173.2V33.5H194.98V40.21ZM194.98 55.94H173.2V49.23H194.98V55.94ZM194.98 72H173.2V65.18H194.98V72ZM161.43 23.71V81.68H207.3V23.71H187.83C188.71 21.4 189.59 18.87 190.47 16.23H209.5V5.12H158.13V16.23H176.61C176.17 18.65 175.73 21.29 175.29 23.71H161.43ZM120.62 20.08H146.91V27.67H157.8V9.95999H139.87V1.05H127.66V9.95999H110.06V27.67H120.62V20.08ZM140.42 87.07H127.11V76.95H140.42V87.07ZM127.33 66.83C130.52 64.74 133.6 62.32 136.57 59.68C139.87 62.21 143.17 64.63 145.92 66.83H127.33ZM140.53 37.57C138.99 40.32 137.23 42.96 135.14 45.38L127.55 40.43C128.32 39.44 129.09 38.56 129.86 37.57H140.53ZM151.53 71.45L151.75 71.67L159.12 62.54C155.49 59.46 150.1 55.5 144.16 51.54C148.78 45.82 152.52 39.22 155.05 31.74L147.68 28.33L145.7 28.88H135.47C136.46 27.23 137.23 25.58 138 23.82L127.33 21.18C123.37 30.42 115.78 38.78 107.2 44.17C109.62 45.71 113.69 49.67 115.45 51.76C117.1 50.66 118.64 49.34 120.18 48.02L127.44 53.08C121.39 58.14 114.46 62.1 107.2 64.63C109.51 66.72 112.37 71.12 113.8 73.98L116.11 72.99V101.48H127.11V97.08H151.53C153.73 99.17 156.15 101.59 157.58 103.35C165.61 100.16 175.29 94.33 181.01 88.72L170.45 82.12C166.49 86.19 158.79 91.25 151.53 94.22V71.45ZM185.85 88.61C191.79 93.01 199.49 99.5 203.01 103.68L213.13 96.97C209.17 92.79 201.14 86.74 195.31 82.67L185.85 88.61Z" fill="url(#paint0_linear_13674:11224)"/>
<defs>
<linearGradient id="paint0_linear_13674:11224" x1="131.231" y1="11" x2="117.696" y2="101.061" gradientUnits="userSpaceOnUse">
<stop stop-color="#FFE99E"/>
<stop offset="0.28125" stop-color="#FEDF70"/>
<stop offset="1" stop-color="#E6B300"/>
</linearGradient>
</defs>
</svg>
