<svg width="80" height="80" viewBox="0 0 80 80" fill="none" xmlns="http://www.w3.org/2000/svg">
<g clip-path="url(#clip0_21912_87368)">
<path d="M78.0146 12.8398H33.5191C32.422 12.8398 31.5332 13.7811 31.5332 14.9417V46.2978C31.5332 47.4584 32.422 48.3969 33.5191 48.3969H78.0146C79.1118 48.3969 80.0005 47.4586 80.0005 46.2978V14.9417C80.0005 13.7811 79.1118 12.8398 78.0146 12.8398Z" fill="#767676"/>
<path d="M16.0593 55.3701C12.9804 55.3701 10.4824 58.0073 10.4824 61.2643C10.4824 64.52 12.9804 67.16 16.0593 67.16C19.137 67.16 21.632 64.52 21.632 61.2643C21.632 58.0073 19.137 55.3701 16.0593 55.3701Z" fill="#767676"/>
<path d="M78.3453 50.8679H30.8523C29.9388 50.8679 29.1963 50.0826 29.1963 49.1167V22.9729C29.1963 22.0054 28.4566 21.2217 27.5402 21.2217H12.4548C11.9636 21.2217 11.4986 21.4534 11.1852 21.8509L0.383594 35.559C0.135312 35.8723 0 36.2698 0 36.6784V48.7026V54.9901C0 55.9562 0.741094 56.74 1.65469 56.74H9.97766C11.3259 54.7197 13.548 53.3934 16.0595 53.3934C18.5698 53.3934 20.7905 54.7197 22.1402 56.74H56.11C57.4583 54.7197 59.6787 53.3934 62.1906 53.3934C64.7022 53.3934 66.9212 54.7197 68.2711 56.74H78.3455C79.2591 56.74 80.0002 55.9562 80.0002 54.9901V52.6192C80 51.6518 79.2589 50.8679 78.3453 50.8679ZM6.04734 38.0707V36.8592C6.04734 36.4451 6.18109 36.0436 6.42828 35.7192L13.323 26.7406C13.6487 26.3184 14.1344 26.0742 14.6478 26.0742H21.4031C22.347 26.0742 23.1116 26.8814 23.1116 27.8778V38.0709C23.1116 39.0673 22.3469 39.8746 21.4031 39.8746H7.75312C6.81187 39.8745 6.04734 39.0672 6.04734 38.0707Z" fill="#767676"/>
<path d="M62.1912 55.3701C59.1123 55.3701 56.6172 58.0073 56.6172 61.2643C56.6172 64.52 59.1125 67.16 62.1912 67.16C65.2687 67.16 67.7652 64.52 67.7652 61.2643C67.7652 58.0073 65.2686 55.3701 62.1912 55.3701Z" fill="#767676"/>
</g>
<defs>
<clipPath id="clip0_21912_87368">
<rect width="80" height="80" fill="white"/>
</clipPath>
</defs>
</svg>
