<svg width="22" height="18" viewBox="0 0 22 18" fill="none" xmlns="http://www.w3.org/2000/svg">
<path d="M18.6176 3.32819C19.109 3.07558 19.5445 2.72665 19.8982 2.30221C20.2519 1.87776 20.5166 1.38648 20.6765 0.857605C19.8529 1.68113 18.1029 1.95393 18.1029 1.95393C17.4978 1.2104 16.6523 0.701296 15.7121 0.514391C14.7718 0.327487 13.7958 0.474497 12.9524 0.930075C12.1089 1.38565 11.4508 2.12125 11.0916 3.01003C10.7324 3.89881 10.6945 4.88508 10.9846 5.79878H10.7941C9.11685 5.68756 7.48131 5.22721 5.99227 4.44724C4.50323 3.66726 3.19352 2.58486 2.14706 1.26937C2.14706 1.26937 -0.323529 4.56349 3.38235 7.03408C3.38235 7.03408 1.73529 7.03408 1.32353 6.62231C1.32353 6.62231 0.911765 9.0929 4.61765 10.74C4.35907 10.8577 4.07825 10.9187 3.79412 10.9187C3.50999 10.9187 3.22916 10.8577 2.97059 10.74C2.97059 12.3304 4.62794 13.6223 6.67647 13.6223C6.67647 14.7598 3.9125 15.6811 0.5 15.6811C5.85294 19.387 18.6176 18.5635 19.4412 4.56349L21.5 2.50466L18.6176 3.32819Z" fill="white"/>
</svg>
