<svg width="80" height="80" viewBox="0 0 80 80" fill="none" xmlns="http://www.w3.org/2000/svg">
<path d="M79.9989 39.9947L73.0516 44.0451L78.841 49.6435L71.1358 51.8913L75.42 58.7303L67.4096 59.0484L69.9359 66.7144L62.0728 65.1027L62.7254 73.161L55.4729 69.7044L54.1887 77.6779L47.9678 72.5673L44.8204 80L39.9994 73.5321L35.1785 80L32.0311 72.5673L25.8102 77.6779L24.526 69.7044L17.2734 73.161L17.9261 65.1027L10.063 66.7144L12.5893 59.0484L4.57888 58.7303L8.86303 51.8913L1.15788 49.6435L6.94727 44.0451L0 39.9947L6.94727 35.9549L1.15788 30.3565L8.86303 28.0981L4.57888 21.2697L12.5893 20.9516L10.063 13.275L17.9261 14.8973L17.2734 6.83897L24.526 10.2956L25.8102 2.31146L32.0311 7.42213L35.1785 0L39.9994 6.45726L44.8204 0L47.9678 7.42213L54.1887 2.31146L55.4729 10.2956L62.7254 6.83897L62.0728 14.8973L69.9359 13.275L67.4096 20.9516L75.42 21.2697L71.1358 28.0981L78.841 30.3565L73.0516 35.9549L79.9989 39.9947Z" fill="url(#paint0_linear_20767_75759)"/>
<path d="M17.1247 29.4165L17.223 31.9425L21.1612 31.0586L21.6331 43.179L24.5349 42.5277L24.063 30.4073L28.0012 29.5234L27.9028 26.9974L17.1247 29.4165ZM32.7972 25.8989L29.8954 26.5502L30.4657 41.1967L33.3675 40.5454L32.7972 25.8989ZM38.7438 24.5643L36.0285 25.1737L36.5988 39.8201L39.3555 39.2014L39.0042 30.1801L42.3206 35.8808L44.0825 35.4854L46.9403 28.3347L47.294 37.4197L50.0715 36.7963L49.5012 22.1499L46.7444 22.7686L43.0756 31.643L38.7438 24.5643ZM52.5301 21.4701L53.1004 36.1165L62.0131 34.1162L61.9155 31.6114L55.9046 32.9605L55.7559 29.1397L61.1449 27.9302L61.0474 25.4254L55.6583 26.6349L55.5302 23.3448L61.5411 21.9957L61.4428 19.4697L52.5301 21.4701ZM28.1547 47.3113C27.0762 45.926 25.3253 45.5268 23.0453 46.0385C19.646 46.8014 18.2239 48.9406 18.314 51.2544C18.4082 53.6742 19.8714 54.7376 22.7201 54.8691C25.0655 54.9636 25.6889 55.4019 25.7286 56.4207C25.7633 57.3123 25.2326 58.1808 23.5744 58.553C22.1028 58.8832 21.2132 58.5904 20.4083 57.7861L18.2516 59.8547C19.5821 61.269 21.3505 61.5787 23.8585 61.0158C27.2163 60.2622 28.7188 58.0407 28.6254 55.6421C28.5246 53.0524 27.1327 52.2086 24.1182 52.1143C22.1923 52.0541 21.2605 51.7493 21.2158 50.6031C21.177 49.6054 21.8577 48.8317 23.1635 48.5386C24.6144 48.213 25.3796 48.5337 26.0403 49.3918L28.1547 47.3113ZM32.5856 58.8644L33.3478 55.8883L38.1358 54.8137L39.1146 57.399L42.203 56.7059L36.6582 43.1759L33.8807 43.7993L29.4765 59.5622L32.5856 58.8644ZM35.4331 47.6905L37.2507 52.4857L34.0172 53.2115L35.4331 47.6905ZM46.0978 41.0573L43.196 41.7086L43.7663 56.355L52.6789 54.3547L52.5814 51.8499L46.5705 53.199L46.0978 41.0573ZM53.8478 39.3179L54.4181 53.9643L63.3308 51.964L63.2332 49.4592L57.2224 50.8083L57.0736 46.9875L62.4627 45.778L62.3651 43.2732L56.9761 44.4827L56.8479 41.1926L62.8588 39.8435L62.7605 37.3175L53.8478 39.3179Z" fill="white"/>
<defs>
<linearGradient id="paint0_linear_20767_75759" x1="80" y1="-2.3919e-06" x2="-5.2529e-06" y2="80" gradientUnits="userSpaceOnUse">
<stop stop-color="#FF8E4F"/>
<stop offset="1" stop-color="#AC00BB"/>
</linearGradient>
</defs>
</svg>
