<svg width="19" height="18" viewBox="0 0 19 18" fill="none" xmlns="http://www.w3.org/2000/svg">
<path d="M12.824 9.896V7.544C12.824 2.432 10.208 0.223999 6.464 0.223999C2.744 0.223999 0.128 2.432 0.128 7.544V9.896C0.128 14.96 2.744 17.216 6.464 17.216C8 17.216 9.32 16.832 10.376 16.04L12.608 17.936L14.384 15.824L12.08 13.856C12.56 12.8 12.824 11.504 12.824 9.896ZM3.488 7.544C3.488 4.376 4.52 3.056 6.464 3.056C8.408 3.056 9.464 4.376 9.464 7.544V9.896C9.464 10.496 9.416 11.024 9.344 11.504L7.928 10.256L6.104 12.392L7.976 14C7.568 14.264 7.04 14.384 6.464 14.384C4.52 14.384 3.488 13.064 3.488 9.896V7.544ZM18.8324 13.256H15.0884V17H18.8324V13.256Z" fill="white"/>
</svg>
